<?xml version="1.0" standalone="no"?>
<!DOCTYPE svg PUBLIC "-//W3C//DTD SVG 1.1//EN" "http://www.w3.org/Graphics/SVG/1.1/DTD/svg11.dtd" >
<svg xmlns="http://www.w3.org/2000/svg">
<metadata></metadata>
<defs>
<font id="labfont100swordsregular" horiz-adv-x="1024" >
<font-face units-per-em="2048" ascent="1638" descent="-410" />
<missing-glyph horiz-adv-x="675" />
<glyph unicode="&#xfb01;" horiz-adv-x="1228" d="M39 788q0 -27 70 -30q79 -3 98 -25l12 -174q10 -127 10 -176q0 -115 -26 -197q-3 -51 -78 -69q-74 -21 -74 -68q13 -39 32 -51t60 -12q46 0 105 20q38 12 86 12q34 0 149 -16q103 -16 154 -10q35 12 35 63q-35 71 -121 68q-95 27 -98 160q10 65 10 133q0 63 -2 114 q-4 102 -4 115q0 55 2 80q37 29 86 29q5 0 59 -4q47 -7 60 -7q8 0 38 5q33 38 11 86q-82 15 -244 0q-18 11 -20 18q0 7 -4.5 62.5t-7.5 109.5t-3 84q0 123 35 207q29 26 82 26q46 0 104.5 -22t97 -48t38.5 -40q-15 -59 -3 -129q7 -7 15 -23q9 -20 20 -20q3 0 15 4 q11 5 51 20t58 24t46 25.5t44 36.5t24 45q9 122 -37 177q-22 3 -45 0q-105 50 -170 73q-33 33 -80 33q-15 0 -55 -6q-44 -7 -62 -4q-91 -10 -178 -67t-139 -136q-78 -90 -78 -278q0 -45 2 -78q2 -39 2 -76q-19 -16 -49 -16q-15 0 -45 6q-46 4 -47 4q-15 0 -21 -2 q-20 -33 -20 -56zM675 608q0 -11 1 -24q9 -21 29 -21q6 0 45 17q36 16 57 10q12 -3 20 -17q4 -9 15 -28q-14 -74 -11 -187q0 -130 -6 -188q-8 -18 -69 -57q-50 -27 -47 -72q9 -46 45 -55q35 7 73 10t90.5 3t79.5 -1t95.5 -4t81.5 -4q38 38 38 65q0 29 -69 66t-78 76 q-16 213 -16 301q0 147 24 264q3 97 -49 100q-44 -21 -147 -61q-107 -39 -138 -59q-66 -45 -64 -134z" />
<glyph unicode="&#xfb02;" horiz-adv-x="1290" d="M39 788q0 -27 70 -30q79 -3 98 -25l12 -174q10 -127 10 -176q0 -115 -26 -197q-3 -51 -78 -69q-74 -21 -74 -68q13 -39 32 -51t60 -12q46 0 105 20q38 12 86 12q34 0 149 -16q103 -16 154 -10q35 12 35 63q-35 71 -121 68q-95 27 -98 160q10 65 10 133q0 63 -2 114 q-4 102 -4 115q0 55 2 80q37 29 86 29q5 0 59 -4q47 -7 60 -7q8 0 38 5q33 38 11 86q-82 15 -244 0q-18 11 -20 18q0 7 -4.5 62.5t-7.5 109.5t-3 84q0 123 35 207q36 28 68 28q33 0 88 -34q63 -42 94 -47q-15 -60 8 -99q11 -8 31 -8q12 0 76 23q37 -19 40 -84q6 -92 9 -101 q-15 -92 -15 -196q0 -30 11 -224q9 -141 6 -229q15 -156 -133 -268q-28 -49 14 -82q80 -17 154 -17q10 0 25 1t37.5 2t39.5 2q45 2 104 2q32 0 86 -4q19 10 23.5 24t11.5 66q-6 36 -49 51q-55 18 -65 31q-43 64 -43 167q0 58 16 140q-11 221 -8 456q2 303 2 459 q-24 49 -74 49q-73 -26 -86 -32q-68 40 -131 73q-33 33 -80 33q-15 0 -55 -6q-44 -7 -62 -4q-91 -10 -178 -67t-139 -136q-78 -90 -78 -278q0 -45 2 -78q2 -39 2 -76q-19 -16 -49 -16q-15 0 -45 6q-46 4 -47 4q-15 0 -21 -2q-20 -33 -20 -56z" />
<glyph horiz-adv-x="0" />
<glyph horiz-adv-x="0" />
<glyph horiz-adv-x="682" />
<glyph unicode="&#xd;" horiz-adv-x="675" />
<glyph unicode=" "  horiz-adv-x="675" />
<glyph unicode="&#x09;" horiz-adv-x="675" />
<glyph unicode="&#xa0;" horiz-adv-x="675" />
<glyph unicode="!" horiz-adv-x="962" d="M43 1325q20 -47 107 -63q100 -21 126 -41q29 -52 23 -113q27 -64 27 -152q0 -12 -7 -122q-5 -70 -2 -123q16 -32 35 -101q14 -60 41 -94q9 -85 53 -82q42 -9 99 51q3 6 71 80q48 54 48 94q0 17 -11 43q-8 33 -8 78q0 61 23 164l37 160q7 37 14 100q5 55 14 70 q10 15 65 56l40 30q57 42 57 102q0 51 -74 51q-52 0 -131 -20q-56 -17 -100 -27q-144 15 -238 15q-110 0 -164 -23q-32 -15 -41 -19.5t-34.5 -19.5t-35.5 -25.5t-21 -29t-13 -39.5zM309 158q0 -105 56 -146q37 -16 112 -16q51 0 78 12q32 35 43 60q25 80 25 120 q0 65 -43 105q-50 33 -119 33q-48 0 -84 -25q-59 -59 -62 -84q-6 -27 -6 -59z" />
<glyph unicode="&#x22;" horiz-adv-x="819" d="M121 1501q40 -297 55 -385q3 -31 29 -31h67q20 0 29 31q43 227 68 381q6 39 -23 39h-205q-26 0 -20 -35zM453 1501q40 -297 55 -385q3 -31 29 -31h67q20 0 29 31q38 196 67 381q6 39 -22 39h-205q-26 0 -20 -35z" />
<glyph unicode="#" horiz-adv-x="1126" d="M90 686q0 -49 25 -49h196q-37 -208 -57 -336q-2 -14 16.5 -21.5t55.5 -7.5q71 0 77 27l22 120q13 77 36 218h139q-15 -87 -33.5 -198.5t-23.5 -137.5q-3 -15 15.5 -23t59.5 -8q68 0 74 27l58 340h206q18 0 31.5 33.5t13.5 70.5q0 45 -20 45h-205q17 78 25 138h207 q18 0 31.5 33.5t13.5 70.5q0 45 -21 45h-205q21 135 37 217q4 19 -14 28t-59 9q-67 0 -76 -27q-11 -32 -37 -227h-139q35 211 36 213q3 20 -16.5 30.5t-62.5 10.5q-62 0 -68 -31q-1 -2 -5 -25.5t-14.5 -80.5t-21.5 -117h-197q-20 0 -34.5 -32t-14.5 -70q0 -47 25 -47h196 q-19 -113 -24 -138h-199q-20 0 -34.5 -31.5t-14.5 -68.5zM487 786q17 78 25 138h139q-19 -113 -24 -138h-140z" />
<glyph unicode="$" horiz-adv-x="1474" d="M76 -96q52 -217 178 -254q83 -15 102 -15q42 0 70 19q64 68 78 88.5t14 56.5q0 22 -10 45q-3 31 -35 50q-16 7 -61 32q-15 15 -31 15q-14 0 -33 -19q-25 -25 -35.5 -30t-29.5 -5q-50 0 -80 41q-16 65 22 90q35 21 80 21q5 0 51 -4t47 -4q181 -69 312 -88v-267 q0 -22 59 -22q60 0 60 22v256q112 -3 217 21q178 101 210 123q62 43 84 97q11 27 21 71q23 118 23 180q0 145 -86 231q-2 2 -111 64q-66 41 -57 98q77 126 96 156q58 99 78 166q15 102 -60 161q-61 -27 -82 -38q-49 -21 -88 -21q-20 0 -41 6q-100 39 -204 60v170 q0 28 -62 28q-57 0 -57 -26v-152q-66 4 -94 4q-143 0 -250 -49q-101 -50 -121 -78q-103 -65 -103 -241q0 -9 5 -76q56 -150 301 -264q18 -29 -11 -72q-17 -18 -64 -68t-72 -77t-62 -67.5t-63.5 -73t-45.5 -60.5q-68 -148 -59 -301zM399 217q2 14 3.5 24t6 21.5t7 18.5 t11 19.5t13.5 19t19.5 23.5t22.5 26t30 32.5t35 38.5q44 38 98 117q77 114 84 123q72 62 152 170q93 118 145 170q44 24 74 -6q3 -17 -1 -35.5t-17 -42.5t-21.5 -38t-30 -43.5t-26.5 -37.5q-181 -207 -299 -377q4 -5 0 -11t-5.5 -7.5t-8.5 -5l-9 -4.5l-98 -129 q-66 -76 -129 -101q-53 21 -56 35zM457 1014q1 69 43 125.5t108 79.5q46 4 66 4q120 0 184 -58q36 -45 6 -116q-17 -40 -40.5 -71t-80.5 -91q-15 -6 -34 -6q-23 0 -56 8q-41 6 -53 6q-124 40 -143 119zM659 168q0 11 7 25q16 31 84 112q63 72 84 113q31 86 75 94 q153 -6 199 -141q2 -16 2 -49q0 -165 -106 -222q-97 -32 -179 -32q-66 0 -116 20l-31 37q-19 22 -19 43z" />
<glyph unicode="%" horiz-adv-x="1177" d="M31 1053q0 -51 18 -97q35 -96 94 -155q39 -41 88.5 -60t106 -15t119 47.5t118.5 123.5q35 90 35 168q0 117 -77.5 209t-194.5 117q-75 4 -146.5 -43t-116 -127t-44.5 -168zM102 43q-5 -20 24.5 -43t62 -30t51.5 7l-2 -4q4 4 137 211q676 1067 682 1073q10 17 10 31 q0 34 -40 67t-66 27q-41 -39 -444.5 -664t-414.5 -675zM238 1100q4 25 10 74q6 48 24 69q22 17 44.5 19t43 -22t27.5 -77q15 -138 -8 -254q-21 -47 -62 -47q-45 -6 -57 21q-17 47 -20 106q0 74 -2 111zM559 301q0 -46 16 -96q42 -113 109.5 -172t140 -60t146.5 43t133 127 q33 88 33 170q0 116 -77.5 208.5t-193.5 117.5q-75 4 -146.5 -43t-116 -127t-44.5 -168zM766 348q4 25 10 74q6 48 25 70q22 17 44 19t42.5 -22t27.5 -77q15 -136 -8 -256q-15 -28 -41 -40.5t-48.5 -7.5t-29.5 23q-22 49 -22 217z" />
<glyph unicode="&#x26;" horiz-adv-x="1820" d="M84 422q1 -94 41 -171t135 -190q145 -92 307 -92q263 0 340 47q23 3 66 25q64 35 69 37q18 6 35 6q31 0 72 -47t72 -47q16 0 32 8q77 14 181 14q98 0 264 -18q22 -4 22 6q19 19 19 45q0 28 -23 41q-112 29 -166 121q-30 30 -96 92q-56 56 -59 115l73 188q53 109 131 152 q57 31 78 28q35 35 29 56q-21 43 -59 43q-15 0 -62 -13q-43 -12 -65 -12q-11 0 -27 4q-27 12 -84 12l-45 2q-40 0 -72 7q-11 -9 -41 -2q-27 6 -47 -13.5t-20 -40.5q0 -23 61 -53q62 -30 62 -72q12 -21 12 -43q0 -25 -31 -92q-8 -2 -24 -2q-19 0 -37 8t-37.5 28t-29 31 t-31.5 42.5t-25 36.5q-8 22 -49 63q-39 36 -49 66q-5 15 -5 16q0 22 54 45q68 56 98 82q47 41 67.5 105.5t8.5 130.5q-4 20 -7.5 34.5t-11.5 29.5t-12.5 23.5t-20.5 22t-24.5 19.5t-35.5 22t-42 24t-56 30t-67 36q-112 17 -186 17q-170 0 -305 -60q-49 -20 -99 -76 q-45 -50 -57 -96.5t-12 -116.5q0 -130 80 -213q6 -60 -62 -90q-81 -35 -90 -59q-11 -13 -49 -41q-34 -24 -49 -47q-42 -74 -39 -254zM395 524q-1 12 0 24t6 26t8 22.5t13 25.5t13 22t16 24.5t14 21.5q23 17 92 6l7 -2h-1q6 -34 55 -71q52 -40 66 -74q28 -19 96 -113 q53 -77 90 -92q7 -19 52 -57q41 -35 41 -49q0 -17 -25 -39q-54 -45 -117 -45q-35 0 -73 14q-9 4 -34.5 15t-37.5 16.5t-34.5 16t-35.5 18.5t-29.5 18.5t-28 21.5t-20.5 23q-61 29 -98 92t-35 135zM506 1006q0 14 31 59q91 -9 176 -88q112 -122 135 -146q31 -40 55 -94 q188 -205 252 -284q16 -13 16 -27q0 -11 -8 -27t-8 -32q-6 -21 -29 -21q-9 0 -30 6q-26 4 -31 2q-89 75 -156 142q-29 23 -65 96q-36 70 -78 84q-40 64 -123 153q-92 98 -131 150q-6 15 -6 27zM702 1206q18 84 68 99q80 20 133 -2q3 -9 37 -43q22 -25 16 -52q17 -24 17 -41 q0 -29 -51 -102q-27 -27 -64 -27q-17 0 -43 11q-87 43 -113 157z" />
<glyph unicode="'" horiz-adv-x="512" d="M133 1501q40 -297 55 -385q3 -31 29 -31h68q19 0 28 31q43 227 68 381q6 39 -23 39h-204q-27 0 -21 -35z" />
<glyph unicode="(" horiz-adv-x="882" d="M39 743q0 -186 86 -436q19 -25 57 -77.5t58 -77.5q65 -85 131 -137t176 -107l14 -4q14 -5 40 -13t56 -18q67 -21 119 -18q31 3 31 24q3 30 8 41q4 20 4 25q0 31 -47 43q-54 11 -65 22q-74 38 -97 78q-37 11 -59 59q-25 54 -43 72q-10 61 -14 115q12 78 79 112 q90 12 146 -8q17 -3 26 66q3 23 4 39t-2.5 26t-7 15.5t-14 8t-18 3t-23.5 0.5q-21 0 -39 -2t-39 -2q-76 0 -110 70q-15 47 -15 69q0 41 27 68q35 47 78 47q18 0 51 -8q38 -9 61 -9q19 0 29 2q16 37 16 74q0 39 -16 68q-37 -3 -78 12q-19 6 -37 11.5t-27.5 8t-11.5 3.5 q-68 15 -77 94q-9 70 86 194q12 35 79 72t125 51q14 3 17 35q3 46 -3 62.5t-26 18.5t-55 -1q-61 -8 -94 -10q-75 -12 -209 -68q-152 -133 -166 -147q-159 -102 -205 -461q-6 -52 -6 -105z" />
<glyph unicode=")" horiz-adv-x="854" d="M39 1452q0 14 6 35q-3 32 53 47q4 0 34.5 -3.5t39 -4.5t36.5 -5t41.5 -7t38.5 -8.5t42.5 -12t39.5 -15.5t42 -20q108 -57 233 -182q7 -10 37 -78q13 -29 131 -346q4 -26 -8 -174q-18 -196 -21 -240q-19 -53 -45 -112q0 -8 -59 -97q-69 -100 -76 -129 q-64 -90 -135.5 -128.5t-285.5 -111.5q-41 -14 -64 -22q-57 0 -70 25q7 17 4 45q-1 21 -0.5 36.5t10 25t29.5 10.5q29 3 76 30q46 30 72 39q13 27 67 92q43 51 53 97q0 10 9 45q8 27 8 45q0 29 -25 45q-6 40 -112 86q-32 3 -41 -6q-15 -11 -21 -11q-11 0 -35 9 q5 14 5.5 55.5t-9.5 60.5q9 25 47 25q21 0 39 -2t41 -2q68 0 86 53l29 74q-27 114 -98 123q-40 6 -66 0q-30 -7 -65 -4l-7 43q-6 27 -6 45q0 32 17 49q61 3 90 16q63 25 80 29q24 52 24 108q0 46 -18 86q-4 5 -18 25.5t-20.5 29t-18.5 22.5t-23 22.5t-23 13.5 q-15 42 -108 63q-82 18 -82 66zM143 451z" />
<glyph unicode="*" horiz-adv-x="737" d="M82 930q-5 -17 31 -60t49 -36q32 24 127 88v-168q7 -12 69 -9.5t62 15.5v162q103 -73 117 -84q12 -7 47 37t30 57q-21 37 -79 61q-26 22 -70 54q31 21 81 55.5t66 44.5q2 2 2 6q0 17 -28 59q-30 39 -51 36t-66 -48q-25 -14 -49 -31v140q0 18 -57 19.5t-62 -11.5 q-21 -27 -6 -98q-1 -9 -2 -27t-2 -25q-116 82 -137 95q-14 0 -42 -41.5t-28 -61.5q0 -4 2 -6q53 -35 156 -106z" />
<glyph unicode="+" horiz-adv-x="819" d="M57 547q0 -101 25 -101h199q0 -174 4 -186q10 -16 75 -16q101 0 101 24v178q65 3 192 3q21 0 21 75q0 78 -17 88q-45 22 -198 19v209q0 20 -76 20q-79 0 -88 -18q-9 -19 -12.5 -90.5t2.5 -122.5q-32 -8 -74 -2q-4 -1 -72 2q-25 0 -41 0.5t-25 -7t-12.5 -24t-3.5 -51.5z " />
<glyph unicode="," horiz-adv-x="512" d="M106 133q0 -33 42 -78.5t88 -58.5q16 -3 16 -31q0 -33 -19 -65q-6 -31 -49 -80q-45 -48 -45 -70q0 -10 5.5 -17t13.5 -7q21 0 48.5 16.5t37.5 36.5q126 108 147 287q15 27 15 61q0 78 -44 124t-104 46q-64 0 -108 -47q-44 -41 -44 -117z" />
<glyph unicode="-" horiz-adv-x="675" d="M98 547q0 -101 25 -101h405q25 0 25 95q0 67 -14 75q-39 20 -133 2q-137 15 -201 9q-6 -1 -49 2q-26 3 -41 -6q-17 -10 -17 -76z" />
<glyph unicode="." horiz-adv-x="512" d="M115 117q13 -48 52.5 -86.5t86.5 -38.5q55 0 99 45.5t44 101.5q0 39 -20 72q-47 59 -131 59q-56 0 -88 -32q-25 -16 -33 -42t-10 -79z" />
<glyph unicode="/" horiz-adv-x="716" d="M-16 -485q0 -10 35.5 -22.5t62.5 -12.5q17 0 20 8q1 2 30.5 100.5t106.5 354.5t162 536q292 979 301 985q-1 35 -37 54t-69 14q-15 -12 -314 -989t-298 -1028z" />
<glyph unicode="0" horiz-adv-x="1228" d="M55 649q0 -96 35 -192q69 -190 191 -318q61 -64 136 -103t164.5 -47t180.5 21t190 110.5t187 211.5q63 171 63 332q0 125 -39 223q-67 174 -195.5 290t-303.5 152q-105 6 -215.5 -49.5t-197 -149t-141.5 -222t-55 -259.5zM369 764q2 14 7.5 66.5t8.5 74.5t11 66 t16.5 68.5t22.5 54t32 49.5q73 61 162 61q17 0 49 -4q150 -40 180 -285q16 -138 16 -264q0 -211 -36 -364q-29 -72 -90 -115t-124.5 -49t-120 18.5t-77.5 75.5q-11 26 -18.5 51.5t-13.5 45t-9.5 53t-6 51.5t-4 67.5t-2 72.5t-1.5 95.5t-2 110.5z" />
<glyph unicode="1" horiz-adv-x="790" d="M39 1042q0 9 4 33q15 6 63 10q49 3 70 7q27 16 74 45q160 97 216.5 120t147.5 19q13 -23 13 -47q0 -31 -21 -80q-25 -72 -26 -80q3 -49 5.5 -130t3 -164t0.5 -176v-160t-0.5 -123t-0.5 -58q2 -16 8.5 -29t19 -24.5t22.5 -19t30.5 -16t30 -12t34.5 -12t31 -10.5 q39 -29 24 -88q-18 -43 -75 -43q-26 0 -62 8q-43 6 -59 6q-46 21 -98 21q-39 0 -136 -23q-93 -22 -135 -22q-59 0 -104 26q-10 17 -10 35q0 36 26 62q14 17 107 53q68 26 77 84q23 174 23 334q0 157 -18 295q-6 14 -15.5 24.5t-26.5 18.5t-29.5 13t-37.5 9t-36 6t-40.5 5 t-36.5 4q-63 18 -63 79z" />
<glyph unicode="2" horiz-adv-x="1099" d="M55 37q20 -30 84 -51q81 -6 125 47q19 8 35 57q12 45 41 55q172 -172 414 -172q90 0 178 31q103 96 110 102q59 65 80 127q2 10 15 54q10 45 10 59q0 25 -12 43q-31 -15 -113 -84q-80 -70 -129 -90q-41 -12 -82 -12q-165 0 -291 135q-26 26 -26 53q0 28 26 45 q101 54 162.5 89.5t127.5 81t107 86t77 93t61 115.5q4 32 4 49q0 84 -43 191q-104 122 -393 143q-435 -35 -551 -260q0 -10 -6 -45q-9 -35 -9 -51q0 -39 29 -62q103 -41 137 -41q47 0 86 33q65 27 68 137q3 115 41 150q78 35 133 35q72 0 125.5 -60t52.5 -149q2 -12 2 -37 q0 -161 -233 -336q-41 -48 -183 -158q-73 -55 -117.5 -96.5t-80.5 -89.5t-50 -100.5t-12 -116.5z" />
<glyph unicode="3" horiz-adv-x="1130" d="M51 246q0 -121 84 -187q153 -75 348 -75q151 0 285 45q187 37 313 299q4 50 4 71q0 242 -200 365q-11 11 -11 24q0 14 9 23q110 76 110 244q0 17 -4 57q-111 172 -420 172l-207 -6q-154 -88 -215 -131q-2 -4 -13 -24t-15 -27t-13 -25t-12.5 -27.5t-8.5 -24t-7 -27 t-2 -23.5q0 -39 20 -72q39 -33 107 -33q58 0 116 25q18 7 31 22t20.5 28t13 39.5t7.5 38.5t4.5 45t3.5 40q40 58 111 61q109 3 190 -145q27 -47 27 -92t-29 -95q-20 -56 -90 -102q-5 -3 -125 -67q-13 -29 4 -39q39 -31 117 -66q92 -45 121 -72q61 -85 61 -172q0 -37 -16 -77 q-107 -116 -215 -113q-58 -1 -91.5 28t-68.5 99q-38 71 -53 86q-103 53 -154 53q-26 0 -47 -6q-90 -27 -90 -137z" />
<glyph unicode="4" horiz-adv-x="1249" d="M57 389q6 -12 15.5 -22t25.5 -18l26 -13t33.5 -11t31 -7.5t36 -6.5t31.5 -6q57 -3 168 25q118 28 164 28q27 0 39 -2q23 -32 28.5 -64t-17.5 -64t-77 -50q-129 -46 -143 -55q-22 -46 -17 -82q27 -53 54 -53q14 2 151 35q92 24 154 24q46 0 90 -12q16 -2 86 -25 q64 -22 92 -22q57 0 84 55q8 19 8 37q0 45 -78 80q-94 40 -112 67q-21 96 0 127q38 3 104 -20q78 -26 103 -29q42 15 65 72q-10 60 -4 153q6 106 2 150q-19 28 -70 16q-64 -148 -180 -157q-12 -2 -19.5 6t-10.5 28q14 181 -7 414q0 67 82 137q79 64 70 142q-8 35 -37 32 q-110 -26 -237 -26q-118 0 -250 24q-1 -1 -25 -8q-23 -10 -31 -18q-14 -24 -65 -174q-41 -113 -96 -162q-261 -231 -267 -545zM233 526q18 101 138 242q135 163 161 236q23 23 39 47q21 27 45 36q21 -14 25 -20q-6 -184 16 -524q-15 -15 -18 -21q-165 -9 -348 -43 q-52 9 -58 47z" />
<glyph unicode="5" horiz-adv-x="1105" d="M53 252q0 -59 35 -131q178 -155 295 -158q222 13 301 26.5t160 61.5q235 139 262 369q0 256 -145 371q-158 96 -355 96q-124 0 -225 -39q-4 0 -14 10q-8 8 -13 8q15 104 54 121q210 -21 346 4q98 19 177 79t111 144q4 18 8.5 37t6.5 27t2 10q0 32 -25 41l-20 -9 q-21 -9 -49.5 -20.5t-66.5 -26t-73.5 -26.5t-70 -20t-56.5 -8q-32 0 -59 6q-24 -4 -41 -4q-31 0 -106 16q-69 14 -111 14q-66 0 -109 -32q-26 -86 -63 -273q-33 -167 -76 -268q0 -3 -4 -43q-6 -35 -6 -49q0 -53 39 -70q56 -6 129 16q14 5 39 15.5t45.5 18.5t38.5 14 q6 0 80 4q35 2 84 2q151 0 213 -86q30 -58 30 -121q0 -52 -22 -129q-58 -117 -236 -144q-24 -8 -51 -8q-65 0 -115 86q-65 112 -86 127q-5 3 -28 16.5t-32.5 18.5t-27.5 13.5t-31.5 12t-25.5 3.5q-23 0 -49 -13q-64 -34 -64 -110z" />
<glyph unicode="6" horiz-adv-x="1216" d="M76 567q0 -81 21.5 -138t109.5 -228q163 -234 495 -234q83 0 191 19q81 28 132 82.5t140 195.5q23 61 23 123q0 108 -60 234q-75 98 -196.5 154t-255.5 56q-67 0 -139 -16q-96 -50 -115 -53q-35 35 -35 96q0 56 29 141q115 160 237 160q22 0 43 -6q154 -145 305 -166 q102 21 129 103q9 15 9 36q0 44 -27 82q-82 117 -287 117q-43 0 -90 -6q-36 4 -59 4q-242 0 -496 -291q-91 -158 -100 -405q-4 -36 -4 -60zM424 518q0 95 82 129q48 31 104 31q42 0 109 -23q133 -74 176 -178q23 -80 23 -145q0 -103 -50 -150q-80 -39 -147 -30 q-210 68 -289 319q-8 19 -8 47z" />
<glyph unicode="7" horiz-adv-x="1026" d="M53 774q5 -8 23 -8q16 0 24 8q132 112 222 178q94 88 284 88q25 0 111 -4q37 -3 37 -30q0 -10 -11 -21q-35 -42 -68 -91.5t-55.5 -86.5t-84.5 -141q-58 -67 -117 -177q-68 -132 -101 -184q-9 -35 -65 -127q-47 -80 -47 -135q0 -17 1.5 -26t10.5 -18t27 -9q29 0 102 20 q68 19 100 23q105 -12 207 -27q113 -13 207 -10q42 11 56 41.5t-2 60.5t-52 41q-74 21 -88 35q-59 59 -59 182q0 72 26 211l66 156t65 156q81 178 189 280q39 82 39 109q0 23 -17 43q-19 8 -43 8q-36 0 -82 -21q-75 -34 -79 -34q-385 -16 -445 -17q-53 -3 -117 37 q-65 41 -100 41q-19 0 -37 -6q-84 -418 -127 -545z" />
<glyph unicode="8" horiz-adv-x="1110" d="M51 344q0 -84 76 -227q100 -68 117 -74q171 -59 329 -59q122 0 217 32t153.5 88.5t88 129t29.5 157.5q0 71 -23 168q-78 93 -125 154q-20 16 -77 37q-49 14 -66 45l104 116q69 79 93 121q29 130 37 201q-10 16 -13 16q-48 25 -90 25q-43 0 -82 -25q-35 -250 -201 -370 q-33 -23 -73 -23q-72 0 -205 74q-25 61 -25 106q0 30 9 54q28 42 96 45q35 -2 102 -2q10 0 40.5 -0.5t44.5 -0.5t39 2.5t38.5 8t27 16.5t19.5 27q17 20 17 43q0 39 -33 53q-72 16 -154 16q-12 0 -110 -4q-102 -4 -115 -4q-49 0 -96 6q-36 -18 -60.5 -52t-52.5 -99 q-33 -73 -33 -170q0 -95 33 -162q15 -21 68 -74q45 -45 61 -82q-158 -116 -184 -213q-21 -46 -21 -100zM250 291q0 216 176 287q39 -3 95 -17.5t86 -25t100 -35.5q55 -19 91 -64t36 -98q0 -45 -29 -121q-73 -117 -246 -117q-57 0 -121 15q-173 64 -188 176z" />
<glyph unicode="9" horiz-adv-x="1165" d="M53 319q0 -8 4 -24q7 -42 24.5 -75.5t39.5 -58t66.5 -52.5t84.5 -48t115 -55q58 -10 105 -10q198 0 464 154q172 199 172 440q5 73 5 84q0 310 -273 522q-182 117 -373 117q-119 0 -211 -51q-181 -166 -196 -304q2 -14 7.5 -73.5t9.5 -84t13.5 -68.5t24.5 -72.5t37 -49.5 q188 -147 377 -147q86 0 156 33q76 43 131 61q22 -28 22 -72q0 -22 -8 -71q-8 -40 -4 -70q-59 -189 -248 -213q-138 35 -172 80q-15 163 -180 233q-119 6 -146 -24q-4 -6 -13 -22.5t-15 -24.5q-19 -29 -19 -54zM315 1040q0 38 9 68q15 30 30 39q47 35 109 35q57 0 115 -27 q166 -150 241 -412q-10 -51 -47 -72t-131 -42q-144 9 -256 166q-70 125 -70 245z" />
<glyph unicode=":" horiz-adv-x="512" d="M106 680q3 -102 142 -158q64 19 78 21q80 53 80 139q0 57 -39 95t-95 38q-44 0 -73 -29q-17 -3 -35 -21t-26.5 -31.5t-25.5 -43.5q-4 -7 -6 -10zM109 154q0 -9 4 -21q-4 -7 -0.5 -18t4 -17t8 -16.5t11 -16t12.5 -15.5t14 -14.5t14.5 -14l13.5 -13.5q32 -16 64 -16 q36 0 86 20q66 75 66 133q0 14 -3 29q-31 53 -57 86q-36 31 -80 31q-50 0 -103.5 -39.5t-53.5 -97.5z" />
<glyph unicode=";" horiz-adv-x="512" d="M106 133q0 -33 42 -78.5t88 -58.5q16 -3 16 -31q0 -33 -19 -65q-6 -31 -49 -80q-45 -48 -45 -70q0 -10 5.5 -17t13.5 -7q21 0 48.5 16.5t37.5 36.5q126 108 147 287q15 27 15 61q0 78 -44 124t-104 46q-64 0 -108 -47q-44 -41 -44 -117zM115 662q37 -82 61 -101 q24 -5 47 -14q27 -10 41 -10q15 0 27 6q4 2 23 13t25.5 15.5t18.5 14t16.5 19.5t4.5 22q16 59 16 78q0 27 -16 53q-10 6 -35 35q-17 21 -34.5 26.5t-45.5 5.5q-65 0 -106 -41q-25 -16 -31 -55q-9 -64 -12 -67z" />
<glyph unicode="&#x3c;" horiz-adv-x="757" d="M135 463l506 -338v221l-319 207l319 203v221l-506 -344v-170z" />
<glyph unicode="=" horiz-adv-x="819" d="M78 403q0 -100 24 -100q111 0 252 2h320q24 0 24 84q0 62 -14 70q-70 37 -170 16q-46 13 -141 10q-97 -6 -142 -2q-4 -1 -71 2q-26 0 -42 0.5t-25 -7t-12 -24t-3 -51.5zM78 690q0 -100 24 -100q111 0 252 2h320q24 0 24 84q0 61 -14 69q-71 38 -170 17q-46 13 -141 10 q-97 -6 -142 -2q-4 -1 -71 2q-26 0 -42 0.5t-25 -7t-12 -24t-3 -51.5z" />
<glyph unicode="&#x3e;" horiz-adv-x="757" d="M133 125l506 338v170l-506 344v-221l320 -203l-320 -207v-221z" />
<glyph unicode="?" horiz-adv-x="1576" d="M72 1217q0 -21 10 -99q9 -62 6 -86q-9 -116 6 -168q9 -26 25 -26q12 0 29.5 11.5t42 37.5t45 48.5t53.5 64.5t50 64t52.5 69t44.5 59q16 16 37 16q25 0 41 -22q5 -30 96 -242q89 -207 92 -254q-21 -77 -77 -86q-42 -28 -45 -139q18 -53 88 -74q103 -26 118 -37 q10 -20 41 -39t41 -49q20 -20 35 -20q21 0 35 33q20 44 33 57q201 183 233 199q242 178 277 385q8 44 8 96q0 173 -111 287q-31 54 -119.5 104t-182.5 75.5t-148 16.5q-32 -4 -51 -4q-8 0 -66 4q-62 4 -68 4q-51 0 -98 -18q-37 -13 -121 -10q-76 3 -118 -25 q-96 -31 -216 -64q-118 -49 -118 -169zM414 170q0 -65 41 -116t92 -56q80 -5 113.5 2.5t60.5 46.5q39 68 39 127q0 40 -19 76q-59 80 -161 80q-28 0 -58 -6q-37 -27 -82 -62q-26 -45 -26 -92zM596 1253q0 46 70 37q42 -12 88 -114l67 -166q47 -103 13 -195q-22 -22 -54 0 q-36 44 -89.5 158t-47.5 137q-2 9 -25 66q-22 55 -22 77zM844 1284q3 30 67 45q46 5 106.5 -25.5t100.5 -82.5q19 -36 19 -70q0 -48 -33 -104q-7 -10 -19.5 -29t-22.5 -34.5t-18 -29.5q-33 -20 -53 -20q-21 0 -30 20q-16 6 -62.5 141.5t-54.5 188.5z" />
<glyph unicode="@" horiz-adv-x="1751" d="M100 680q0 -228 104.5 -388.5t287.5 -238.5t430 -78q317 0 598 207q20 14 20 35q0 35 -35 35q-17 0 -32 -12q-244 -179 -570 -179q-135 0 -252 42.5t-203.5 120.5t-136 196t-49.5 262q0 196 87 358t251.5 259.5t374.5 97.5q164 0 297 -59t213 -174.5t80 -266.5 q0 -67 -27.5 -160t-71 -164t-82.5 -71l-77 -21q-33 0 -47 33q3 87 36 229q0 37 9 111q8 63 8 107q0 31 -2 45q-7 50 -30 69.5t-112 58.5q-18 9 -28 13q-112 14 -185 14q-196 0 -307 -102q-69 -63 -69 -137q0 -17 2 -23q21 -65 63 -59q19 3 36.5 10.5t36.5 22.5t30 24 t31 33.5t26 32t28 38t25 33.5q80 44 147.5 36t84.5 -64q3 -74 -33 -103q-86 -22 -152 -57q-40 -30 -147 -66q-103 -35 -148 -61q-196 -102 -190 -320q3 -81 147 -102q28 -4 47 -4q76 0 128 19t208 99q36 19 56 29q23 -9 20 -45q-4 -31 -2.5 -49t12.5 -26.5t39 -12.5 q10 -2 117 -2q130 0 240.5 85.5t172.5 221t62 283.5q0 139 -55 252.5t-150 187.5t-222 114t-273 40q-181 0 -339.5 -57t-275.5 -160t-184.5 -256t-67.5 -336zM672 522q0 55 41 111q59 41 112 61q52 22 111 56q58 38 127 38q-6 -45 -14 -135q-15 -85 -72 -106 q-22 -12 -64 -35t-63 -35q-78 -44 -137 -35q-41 24 -41 80z" />
<glyph unicode="A" horiz-adv-x="2009" d="M97 41.5q0 -16.5 5 -24.5t19.5 -12t23 -4.5t26.5 -0.5h7q22 0 84 10t86 10q35 0 66 -8q8 1 16 1q39 0 105 -11q71 -14 112 -14q65 0 117 24q14 8 14 23q0 36 -47 57l-131 58q-74 44 -74 114q3 44 64 105q38 12 84 12q4 0 74 -4t79 -4q50 -13 99 -13q39 0 141 13 q91 12 139 12q83 0 150 -31q43 -46 43 -108q0 -28 -10 -58q-46 -55 -93 -55q-14 0 -20 2q-69 -9 -72 -74q-3 -34 33 -47q89 -28 209 -28q48 0 188 10t189 10q77 0 139 -12q26 -8 46 18q15 20 14 43q0 7 -1 15q-27 52 -104 82q-33 13 -66 26.5t-45.5 18.5t-13.5 6 q-59 112 -111 280q-5 19 -19 68t-18.5 66t-17 58.5t-19.5 63.5t-20 62t-25.5 72.5t-29 77t-35.5 93.5q-69 182 -90 273q20 4 31 4q47 0 114 -55q82 -70 113 -78q19 -8 76 -62q44 -41 82 -41q42 7 42 47q0 11 -3 25q-5 8 -36.5 61t-42 70t-38 61t-43 67t-37 53t-39.5 51 q-11 14 -43 14q-20 0 -184 -45q-9 0 -391 -4q-246 -3 -375 -12q-11 2 -82 32q-58 25 -80 25q-21 0 -31 -17q-116 -231 -155 -317q-17 -42 -17 -55q0 -41 45 -41q28 0 58 35q33 38 53 53q6 4 44.5 30.5t53 35t44 26t51 24.5t40.5 9q11 -18 11 -35q0 -18 -15 -53 q-14 -35 -14 -58q-59 -120 -123 -360q-72 -261 -117 -365q-44 -231 -180 -307q-86 -42 -113 -53q-9 -24 -9 -40.5zM672 612q-1 14 -1 28q0 95 74 132q79 9 237 9q95 0 218 -3q36 -8 72 -88q8 -24 8 -55q0 -67 -47 -82q-75 -16 -158 -16q-41 0 -121 6q-106 4 -116 4 q-48 0 -88 -6q-4 2 -15.5 7t-16 7.5t-14 7.5t-14 9t-10 10.5t-7 13.5t-1.5 16zM778 1010q0 29 31 96q30 65 33 100q2 44 32.5 85t92.5 52h7q29 0 50 -24l37 -53q63 -197 84 -254q4 -12 4 -17q0 -37 -43 -49q-24 2 -52 1.5t-61 -1.5q-86 -6 -104 -6q-42 0 -90 10 q-21 27 -21 60z" />
<glyph unicode="B" horiz-adv-x="1820" d="M86 1339q0 -15 4 -39q17 -47 58 -68.5t128 -43.5q5 -2 31 2q18 3 21 -2h14q33 0 68 8q43 10 98 35t86.5 41t100.5 56t87 50q10 7 47 17q34 6 48 20q259 -9 340 -47q145 -106 145 -262q0 -32 -10 -74q-68 -149 -308 -164q-103 3 -112 47q4 37 4 78q0 60 -8 131 q-4 20 -4 37v27q2 12 2 26q0 60 -52 60q-72 -53 -215 -115l-227 -92q-27 -17 -113 -20q-76 -3 -102 -39q1 -24 32 -68.5t49.5 -64.5t31.5 -33q16 -94 16 -254q0 -189 8 -254q-8 -14 -39 -88q-20 -57 -43 -86q-17 -7 -49.5 -22.5t-48.5 -22.5q-29 -14 -46 -36.5t-17.5 -43 t21 -35t63.5 -14.5t61 8q66 18 171 18h30q78 -2 128.5 -2t73.5 2q79 -3 246 -24q171 -23 240 -23q89 0 176 23h13q161 0 358 147q94 113 94 266q0 69 -21 140q-24 85 -120 151q-30 16 -89 47.5t-88 46.5q-10 7 -10 17q0 19 21 28q107 30 196 166q11 49 11 82q0 137 -91 254 q-176 176 -508 176q-194 0 -413 -59q-37 -3 -127 -41q-82 -31 -125 -31q-15 0 -39 4q-70 15 -92 113q-19 8 -45 9q-67 0 -113.5 -50.5t-46.5 -114.5zM651 365q0 5 4 303q0 159 11 309q22 75 55 90q5 1 9 1q18 0 28 -12q14 -15 18 -50q1 -12 4 -102.5t6 -170.5q9 -170 9 -272 q0 -145 -17 -291q-28 -31 -65 -31q-18 0 -31 8q-32 18 -32 166q0 25 1 52zM932 319q5 37 5 100q0 47 -3 109q-3 70 -3 123t3 88q80 23 149 23q78 0 142 -20t113.5 -61t76.5 -108.5t27 -156.5q0 -198 -129 -269q-37 -9 -90 -28q-66 -17 -95 -17q-38 0 -79 23 q-117 77 -117 194z" />
<glyph unicode="C" horiz-adv-x="1507" d="M74 741q0 -152 36.5 -281.5t102 -223.5t154.5 -160.5t196 -99.5t225 -33q95 0 194 20t193.5 62.5t166.5 101.5t112 145q33 70 33 149q0 18 -2 36q-3 13 -15 10q-17 -7 -20 -4q-165 -137 -204 -163q-49 -33 -120 -58q-5 0 -12 1q-20 0 -55 -5q-51 -7 -58 -7q-48 0 -81 33 q-17 49 -17 98q0 28 6 84q4 70 4 80q0 34 -6 99q-8 57 -8 100l6 182q1 36 1 67q0 71 -5 109v11q0 32 14 75q19 55 19 76q0 9 -4 29q-39 -6 -105 -49q-68 -45 -110 -54q-36 -36 -121 -65q-90 -29 -127 -51q7 -29 47 -84q35 -54 47 -80q33 -314 33 -490q0 -1 -0.5 -7.5t-1 -8 t-1 -7t-1 -8t-2 -6.5t-3 -6t-4 -5t-5.5 -4.5t-7 -2.5q-86 71 -145 238q0 3 -3 55t-7 96q-8 84 -8 152q0 186 86 295q102 185 339 194q120 -29 198 -111.5t167 -250.5q85 -163 133 -223q20 -7 34.5 -12t20.5 -7t5 -2q10 0 18 8q0 1 -6.5 58.5t-11.5 115.5t-5 88q0 81 23 152 q67 151 113 238q2 9 2 18q0 38 -33 59q-39 -3 -100 -43t-99 -43q-98 3 -301 49q-194 43 -297 43q-153 0 -268 -77q-297 -202 -338 -521q-12 -89 -12 -174z" />
<glyph unicode="D" horiz-adv-x="1820" d="M86 1307q0 -10 3.5 -21t7.5 -19.5t13.5 -20t15 -18t19.5 -18.5t19.5 -16.5t21.5 -17t19 -15.5q52 -10 90 -10q103 0 233 59l217 119q71 17 171 17q87 0 196 -13q227 -82 295 -452q-2 -32 -1.5 -73t1.5 -91q6 -132 6 -162q0 -65 -10 -123q-23 -129 -101 -226.5 t-190 -133.5q-8 -1 -16 -1q-60 0 -113 58q-8 14 -11.5 35.5t-2.5 36.5t2.5 45.5t1.5 38.5l-6 284q-2 58 -2 109q0 102 8 178q-4 26 -21 121q-12 67 -13 110q0 9 1 17q4 22 16 43q15 27 15 43q0 10 -2 16q-12 4 -21 4q-14 0 -43 -16q-31 -21 -43 -23q-64 -14 -268 -90 q-162 -63 -272 -75q-15 -5 -21 -5q-14 0 -35 9q-24 6 -33 6q-18 0 -28 -23q17 -29 102 -131q62 -74 62 -146v-7l-7 -258q-6 -167 -26 -256q-12 -56 -84 -84q-46 -17 -72 -31.5t-41 -33.5t-14 -43t16 -58q28 -4 45 -4q52 0 136 20q81 19 129 19h12q124 -31 315 -37 q246 -6 318 -13l258 43q149 35 219 123q123 153 166 263.5t43 299.5v52q0 69 4 135q-76 282 -273 452q-66 73 -148 120t-160 66q-77 19 -171 20q-8 0 -17 1q-85 -1 -153 -11q-76 -10 -166 -30q-263 -62 -327 -69q-30 4 -46.5 27.5t-27.5 70.5q-15 6 -37 6q-34 0 -86 -24 q-89 -80 -86 -146q-2 -8 -2 -22zM684 575q0 78 8 130q0 5 -4 67t-4 66q0 45 16 82q27 32 54 32l12 -2q7 -3 11.5 -8t8.5 -14.5t5.5 -13.5t4.5 -18t3 -15q4 -42 4 -89q0 -105 -19 -235q29 -242 29 -250q0 -98 -33 -160q-22 -11 -41 -11q-10 0 -20 3q-19 29 -19 35q1 18 1 39 q0 65 -7 164q-10 157 -10 198z" />
<glyph unicode="E" horiz-adv-x="1630" d="M84 692q0 -172 85.5 -339.5t229.5 -280.5q210 -125 439 -125q132 0 247 47q40 6 107 45q65 35 102 35q15 0 21 -2q10 -20 49 -170q26 -102 80 -156q52 -27 112 -27t113 27q78 84 78 162q0 24 -10 51q-15 15 -68 18q-48 0 -70 11q-5 4 -20.5 17.5t-23 19.5t-20.5 18.5 t-20.5 21.5t-15.5 21t-12 23q-70 186 -70 475q0 15 0.5 43t1.5 79.5t2 92.5q2 69 1.5 124t-1.5 97q5 38 14.5 78.5t30.5 96t31 80.5t41 97.5t35 81.5q-1 2 -1.5 5t-1 7.5t-1.5 8.5q-1 3 -2 9.5t-2 8.5q-23 10 -43 10q-36 0 -86 -33q-49 -29 -91 -37t-110 -8q-142 0 -231 50 q-71 14 -168 14q-78 0 -238 -16q-167 -60 -221 -97q-129 -122 -211 -313t-82 -371zM469 637q9 361 113 584l14 6q11 2 14 -0.5t2 -9.5q-6 -99 -6 -222q0 -89 6 -276q4 -250 4 -281q0 -68 -4 -174q0 -8 -14 -8q-13 0 -16 8q-43 64 -70 178zM743 1094q0 140 50 229 q39 28 64.5 36.5t55.5 8.5q141 0 250 -151q142 -198 142 -508q0 -123 -29 -258q-101 -299 -315 -340q-76 -13 -97 -13q-60 0 -86 33q-24 86 -24 221v31q3 101 3 164.5t-3 89.5q30 17 69 17q33 0 72 -13q52 -16 164 -102q8 -12 22 -58q12 -39 39 -39q5 0 17 4q24 24 30 39 q3 55 3 132q0 38 -1 81q0 136 9 213v12v13.5t-0.5 13t-1 13.5t-2 12t-3.5 12t-5 9.5t-6.5 9t-9 6.5t-11.5 4q-10 -9 -57 -51.5t-67.5 -58.5t-59.5 -44t-72 -39t-66 -12q-29 -4 -45 14t-18 56q0 20 -6 108q-1 16 -2 38.5t-2 38.5t-1 28z" />
<glyph unicode="F" horiz-adv-x="1447" d="M72 1397q-1 -7 -1 -13q0 -62 79 -84q32 -9 55 -22t37.5 -34t22.5 -38t11.5 -51.5t4 -56t0.5 -67.5v-19q0 -41 -7 -181q-8 -107 -8 -176q0 -34 4 -96q0 -3 1.5 -18t6.5 -37t11 -33q0 -133 -2 -199q-9 -104 -90 -151q-15 -15 -76 -27q-47 -9 -47 -37q0 -32 21.5 -55.5 t49.5 -17.5q41 8 99 8q59 0 143 -8q115 -11 145 -11q22 0 93 11q65 10 86 10q37 0 100 -8q83 -11 104 -11q43 0 84 13q12 4 10.5 37.5t-14.5 40.5q-47 27 -133 30q-121 5 -166.5 21.5t-74.5 81.5q-6 53 -11 88q-6 56 -6 86q0 74 35 127q64 37 176 37q69 0 189 -19 q46 -12 61 -69q25 -93 27 -95q52 -137 227 -155q12 -3 49 24q32 22 40.5 46.5t8.5 62.5q0 78 -53 131q-2 2 -8 2q-5 0 -25 -10q-19 -13 -31 -13q-6 0 -14 4q-76 52 -76 166l27 205q16 122 115 305q104 194 125 303q0 3 4 27t4 25q0 22 -27 22h-4q-71 0 -285 -59 q-57 -13 -114 -13q-52 0 -160 15q-108 12 -164 12q-57 0 -145 -14q-107 -17 -148 -17q-48 0 -159 9q-78 5 -123 5q-19 0 -33 -1q-39 -9 -51 -39zM596 743q0 47 72 68h206q126 0 193 -12q27 -27 27 -61q0 -20 -9 -42q-17 -18 -39 -22q-16 -3 -40 -3q-11 0 -23 1l-53 4 q-45 -6 -118.5 -5.5t-174.5 5.5q-33 14 -39 49q-2 6 -2 18zM598 1157q0 82 51 121q104 37 191 37q107 0 190 -53q82 -73 82 -197q0 -43 -12 -84q-21 -35 -70 -35q-19 0 -33 2q-16 2 -34 2q-33 0 -52 -8q-28 4 -47 4q-3 0 -65 -4t-66 -4q-94 0 -129 68q2 14 1.5 33t-1.5 44 q-6 58 -6 74z" />
<glyph unicode="G" horiz-adv-x="1564" d="M76 717q0 -195 63 -361q166 -442 623 -442q192 0 399 74q51 51 119 51q55 0 139 -37q118 -50 133 -53q8 -8 19 -8q16 0 16 16q0 8 -2 12q-37 44 -90 135q1 20 1 43q0 39 -3 86q-8 91 -8 132q0 89 26 145q0 2 15 49q10 33 10 51q0 33 -29 56q-73 20 -127 20q-37 0 -82 -10 q-98 9 -275 9q-49 0 -103 -1q-118 -3 -204 -3q-116 0 -175 5q-60 25 -66 82l6 201q6 109 37 192q95 162 263 162h18q27 6 51 6q71 0 149 -84q103 -112 134 -131q3 -5 22 -39.5t24 -43.5t23 -39.5t27 -42.5t26.5 -35.5t30.5 -36t30.5 -27.5t35.5 -25q4 0 7.5 2t6 5.5t4.5 6.5 t3 9t2 10t1 11.5v11v12v10.5q5 19 13 86q10 58 26 82q93 266 113 365q-8 32 -39 32q-12 0 -78 -22q-107 -35 -213 -35q-151 0 -264 64l-219 -7q-31 7 -60 7q-63 0 -147 -35l-135 -68q-86 -96 -135 -155q-80 -111 -109 -173q-53 -154 -53 -327zM489 500q30 55 101 55 q22 0 72 -6q44 -8 73 -8q37 0 58 8q70 11 137 11q92 0 176 -21q15 -21 15 -48q0 -19 -7 -40q-29 -33 -90 -33q-29 0 -70 8q-46 6 -59 6q-12 1 -26 1q-43 0 -109 -7q-105 -10 -135 -10q-53 0 -86 8q-15 4 -26 18t-14.5 25t-9.5 33zM541 215q0 74 57 100q24 4 39 4q25 0 74 -6 q44 -8 73 -8q23 0 33 2q15 -1 31 -1q26 0 57 3q70 6 88 6q88 0 117 -63q1 -56 -23.5 -87.5t-99.5 -86.5q-67 -33 -145 -33q-133 0 -264 94q-37 27 -37 76z" />
<glyph unicode="H" horiz-adv-x="1953" d="M92 1421q0 -6 4 -22q23 -38 125 -76q90 -31 105 -94l36 -461q-6 -37 -10 -85t-6 -82.5t-4 -101t-2 -89.5t-1 -103t-1 -90q-18 -59 -102 -86q-99 -30 -121 -61q-5 -15 -5 -28q0 -26 21 -38q98 -16 203 -16q75 0 182 8q120 6 180 6q78 0 156 -10q33 16 33 56v7 q-16 29 -45 45t-92 37q-63 41 -72 101q1 4 1 13q0 17 -3 52q-2 35 -2 72q0 100 63 129q212 13 364 13q126 0 210 -9q71 -27 71 -135l-4 -86q-2 -24 -2 -43.5t2 -32.5q-18 -50 -119 -84q-87 -29 -90 -96q0 -31 43 -43q99 0 240 8t240 8q116 0 211 -12q43 12 43 69 q-22 45 -84 74q-98 47 -117 63q-33 26 -35 79v16q1 20 1 45q0 76 -7 199q-8 156 -8 256q0 46 4 120q10 38 10 72q0 27 -10 102q-12 64 -12 101q0 15 4 43q18 59 52.5 82t143.5 61q23 8 35 12q6 10 6 24q0 20 -14 48q-41 23 -86 23q-35 0 -105 -15q-75 -16 -106 -16 q-63 0 -189 18q-143 17 -190 17q-43 0 -84 -6q-14 -6 -17 -27.5t7 -40.5q10 -10 129 -74q78 -47 98 -106q4 -20 4 -33q0 -37 -31 -104q-39 -39 -108 -39q-7 0 -61 4q-58 4 -66 4q-15 0 -43 -4q-14 2 -45 2q-8 0 -94 -4q-65 -6 -97 -6q-100 0 -155 43q-21 38 -21 84 q0 75 32.5 118t113.5 74q67 27 67 64q0 16 -10 39q-32 14 -76 14q-43 0 -75 -14q-53 6 -152 6q-135 0 -354 -11q-44 -1 -63 -3.5t-31.5 -12.5t-12.5 -31zM668 795q0 66 41 90q149 41 323 41q115 0 273 -23q71 -27 77 -67l4 -50q1 -11 1 -21q1 -22 -3 -35q-4 -20 -22 -32 q-25 -28 -72 -28q-7 0 -43 4q-20 2 -45 2q-18 0 -26 -2q-252 -8 -365 -8h-39q-85 31 -96 75q-8 24 -8 54z" />
<glyph unicode="I" horiz-adv-x="847" d="M41 1386q7 -16 19 -26.5t33 -16.5t33 -8.5t42 -5.5t37 -4q92 -44 92 -178q0 -33 -6 -98q-8 -57 -8 -91v-18q0 -51 8 -174q12 -138 12 -201q0 -70 -8 -114q-6 -19 -6 -41q0 -18 4 -37q10 -72 10 -76q0 -30 -12 -51q-18 -59 -63.5 -87.5t-141.5 -54.5q-11 -6 -18 -41.5 t0 -42.5q49 -32 141 -32q60 0 119 16q52 14 121 14q38 0 143 -10t145 -10q55 0 107 10q8 1 8 24q0 12 -2 28q-6 52 -19 59q-83 21 -112 24q-75 21 -96 166q1 37 1 121q0 200 -8 664v16q0 151 56 207q56 39 96 39h6q57 17 57 100v8q-13 11 -32.5 20t-35 14t-45 9.5t-41 6 t-47.5 4.5t-42 4q-143 -33 -496 -33q-18 -3 -37 -43q-15 -31 -15 -51q0 -5 1 -9z" />
<glyph unicode="J" horiz-adv-x="1355" d="M70 360q29 -167 188 -319q225 -117 451 -117q145 0 256 51q126 42 211 164.5t96 263.5q10 58 10 111q0 78 -27 225q-28 152 -28 222q0 21 10 79q8 47 8 76q0 7 -4 47t-4 47q0 50 35 80q112 73 168 99q17 30 17 57q0 15 -5 29q-164 5 -287.5 5t-206.5 -5q-11 -1 -29 -1 q-38 0 -108 3q-99 6 -133 6q-52 0 -98 -6q-99 60 -194 60q-12 0 -25 -1q-80 -65 -129 -233q-58 -192 -105 -254q-10 -27 -10 -48q0 -29 20 -32q140 53 269 170q12 7 61 69q34 43 70 43q4 0 24 -4q61 0 76 -53q-6 -84 -6 -149.5t6 -112.5q13 -95 13 -266q0 -35 -1 -72 q0 -220 13 -340q-12 -94 -15 -100q-38 -35 -170 -35q-173 58 -188 217q5 13 23 31q39 28 63 28q44 0 78 -49q86 71 86 174q2 17 0 33t-11 32.5t-15 27t-23.5 28.5t-23 23.5t-27.5 25t-25 21.5q-29 16 -62 16q-22 0 -81 -16q-59 -19 -86 -19q-70 -33 -87 -74t-31 -187 q-4 -45 -7 -71zM791 1096q0 42 4 116q11 2 18 9q113 -30 113 -224q0 -10 -4 -96q-7 -75 -7 -98q0 -41 13 -148q12 -99 12 -149q0 -163 -63 -266l-19 -15q-13 -11 -24 -11q-3 0 -5 1l-20 25q10 105 10 211q0 123 -14 323t-14 322z" />
<glyph unicode="K" horiz-adv-x="1867" d="M92 1462q-1 -11 -1 -21q0 -62 48 -87q10 -4 40.5 -15t44.5 -16.5t37.5 -18.5t35.5 -24.5t22.5 -30.5t12.5 -41q-8 -104 -8 -264q0 -98 2 -176q2 -80 2 -178q0 -130 -11 -277q-16 -92 -190 -168q-25 -16 -25 -41q0 -2 4 -26q3 -21 3 -33q54 -63 157 -63q40 0 131 16 q88 16 127 16q51 0 131 -14q88 -16 127 -16q35 0 62 6q8 -1 14 -1q39 0 39 44q0 58 -55.5 102.5t-128.5 57.5q-56 26 -56 102v8q59 171 187 272q19 7 39 7q31 0 63 -17q82 -130 217 -268q31 -36 31 -90q0 -30 -2 -55q-4 -54 -4 -56q0 -57 26 -86q46 -24 109 -24q43 0 137 16 q101 20 140 22q4 0 8 1q39 0 112 -13q64 -12 108 -12h17h3q29 0 61 49v12q1 43 -27 65q-32 24 -121 54q-71 24 -98 51q-64 103 -197 271q-127 161 -204 264q-36 29 -36 91q0 23 5 50q17 40 44.5 58.5t94.5 44.5q192 141 368 141h7q62 33 62 93q0 8 -1 16q-38 47 -125 81 q-31 13 -48 20.5t-35.5 17.5t-25 13.5t-21 15.5t-19 16.5t-23.5 24t-30 30.5q-48 45 -76 57q-101 0 -121 -20q1 -20 1 -39q-1 -27 -3 -53q-4 -42 -12.5 -78.5t-30 -75t-42.5 -70t-61 -76t-75.5 -81.5t-94.5 -97l-10 -10q-4 -5 -20.5 -26.5t-22 -28.5t-21 -26.5t-22.5 -28 t-22 -26t-24 -26.5l-23 -23t-25 -23t-24 -19t-25 -17q-27 -18 -47 -18q-31 0 -31 65q0 33 17 133q14 83 14 138q0 24 -6 77q-8 47 -8 80q0 47 14 72q17 46 102 94q85 45 97 99q4 12 4 16q0 34 -56 49q-296 -20 -354 -20h-8q-42 3 -127 12q-92 10 -125 10q-87 0 -119 -37z " />
<glyph unicode="L" horiz-adv-x="1695" d="M141 666q-1 10 -1 20q0 19 5 37q17 62 76 86q4 2 23.5 6.5t29.5 11.5l48 9q-43 150 -72 260q-2 8 -7.5 29t-8 31t-4.5 26t-1 30q-2 22 -2 42q0 44 9 83q18 70 45 111q25 62 69 100q31 33 96 78l23 14q25 6 35 13q8 4 16 6t20 4.5t23 5.5q38 9 90 9q14 0 29 -1 q46 -2 119 -20q66 -21 110 -58q20 -14 88 -77q49 -84 58 -103q15 -39 35 -116l61 -271l78 19q16 3 30 3q44 0 74 -26q19 -13 37 -41q7 -9 14.5 -30.5t8.5 -22.5l45 -176q31 -118 57 -203q27 -94 49 -211l23 -100l8 -27q6 -18 6 -29q-4 -37 -14 -57q-31 -64 -92 -82 l-975 -237q-44 -11 -58 -11q-46 9 -63 21q-23 5 -43 35q-16 20 -21 55l-51 205q-72 336 -94 424l-20 69q0 10 -11 56zM408 1233q-2 -7 -2 -16q0 -20 8 -52q39 -162 75 -278q78 13 246 61q131 26 236 58q-2 22 -14 82.5t-15 78.5l-18 68q1 5 -11 63q-3 15 -12 35.5t-12 30.5 q-7 7 -21 24t-22 25q-2 1 -22 16t-31 17q-21 16 -62 20q-43 7 -59 7h-6q-2 1 -13 0.5t-16 1.5q-6 -3 -17.5 -6t-13.5 -5q-14 -3 -35 -11.5t-28 -10.5q-46 -34 -51 -39q-55 -55 -70 -107q-15 -34 -15 -54q0 -5 1 -9zM659 578q0 -28 11 -43q0 -1 1 -6t1 -7q6 -2 6 -10 q2 -2 5 -9t5 -9q16 -11 27 -27q17 -13 35 -23l38 -6v-35v-32v-68v-67q0 -12 1.5 -33t1.5 -29v-20l20 2q77 23 117 30l55 15q9 2 29.5 8.5t31.5 9.5l19 2l-10 25l-31 57q-16 29 -37 59q-2 7 -12 31l-15 27l-12 22l-18 29v4l2 10l6 7l10 6q1 4 10 22l5 15v26q2 6 2 19 q0 10 -2 18v25q-13 26 -17 32q-8 13 -14 13q-2 10 -10 14q-4 6 -29 31q-7 2 -18.5 7t-20.5 7q-19 8 -41 8q-13 0 -23 -2h-8h-6l-2 -2l-10 -4q-2 -4 -12 -4q-14 -7 -17 -8q-25 -15 -33 -27q-10 -15 -12 -20q-10 0 -10 -13q-9 -15 -19 -39v-26v-12z" />
<glyph unicode="M" horiz-adv-x="2531" d="M88 80q0 -10 1 -17t2 -12.5t6 -10.5l8 -8t13.5 -7.5t16.5 -7.5t23 -9.5t28 -11.5q76 20 179 20q65 0 161 -8t162 -8q45 0 68 2q26 14 26 45q0 10 -6 19q-16 36 -59 65q-5 3 -37 21t-46 28.5t-36.5 32.5t-32.5 50t-10 63q0 67 39 174q49 130 55 166q3 23 14 98t17 111 t17.5 94t26 100.5t32.5 77.5q10 7 45 -17q103 -227 301 -530q1 -8 1 -17q0 -49 -44 -104q-61 -76 -70 -112q-10 -23 -10 -43q0 -52 41 -99q8 -10 21 -26t50 -57t71 -72.5t74.5 -57.5t68.5 -26q25 0 55 10q33 51 106 127q79 79 105 121q35 54 47 100q5 20 6 42q0 28 -10 62 q-16 58 -72 119q-88 91 -94 150q25 36 98 237q52 145 146 199q15 -7 26.5 -22t18.5 -28.5t12.5 -40t7.5 -39.5t5.5 -46t4.5 -41q31 -91 80 -299q38 -169 76 -303q6 -21 6 -41q0 -21 -8.5 -41.5t-30.5 -43.5t-35 -35.5t-46.5 -39t-41.5 -33.5q-30 -55 -30 -69q0 -21 14 -29 q55 -26 117 -26q12 0 24 1q152 41 340 41q107 0 277 -16q36 19 39 84q-21 98 -156 125q-44 9 -65 55l-31 82q-14 94 -90 318q-73 212 -84 325q-5 17 -16.5 50t-16.5 49q-21 62 -21 102q0 121 105 141q74 15 92 39q8 8 8 33q0 69 -22 78q-31 8 -72 8t-104 -8 q-78 -10 -105 -10q-19 0 -47 4q-50 4 -123 22q-88 21 -125 21q-75 0 -96 -56q-34 -213 -156 -366q-14 -19 -39 -103q-21 -67 -53 -96q-61 71 -129 234q-25 45 -65 170q-44 123 -78 170q-36 20 -88 20q-33 0 -142 -20q-68 -11 -116 -11q-39 0 -144 11q-144 16 -145 17 q-21 2 -45 -22.5t-23 -48.5q1 -56 31 -73.5t119 -32.5q67 -12 94 -39q4 -12 4 -17q0 -13 -8 -32q-2 -4 -10 -29q-51 -96 -78 -272q-33 -218 -53 -285q-6 -22 -18 -70t-19.5 -75.5t-20 -70t-25.5 -70t-30.5 -59t-39.5 -54t-48 -37.5l-104 -37q-62 -27 -62 -86zM1176 297 q0 55 53 90q68 -15 74 -53q2 -24 -27 -80q-12 -14 -38 -14q-17 0 -40 6q-22 22 -22 51z" />
<glyph unicode="N" horiz-adv-x="1814" d="M86 1333q17 -56 84 -110q11 -8 38 -27t39.5 -29t32.5 -29t29.5 -34.5t17 -38.5t7.5 -49q0 -24 -6 -76t-6 -76q0 -28 10 -110t10 -113q0 -55 -10 -178l-13 -178q-24 -93 -149 -127q-51 -34 -51 -80q0 -15 2 -23q35 -59 117 -59q32 0 100 12t94 12q105 -10 209 -10 q70 0 424 21q40 21 40 46q0 5 -1 9q-14 32 -45 51q-22 11 -62 35q-96 44 -96 211v10q6 45 62 72q64 20 129 20q106 0 159 -59q-4 -106 -4 -113q0 -247 135 -329q121 -41 207 -41q87 0 146 41q84 90 84 188q0 22 -11 64q-30 107 -137 122h-5q-58 0 -107 -63q16 -43 16 -55 q0 -22 -12 -37q-22 -24 -50 -24q-15 0 -32 7q-42 23 -45 64q6 82 54 145t159 154q108 163 108 381q0 113 -35 223q-39 118 -142 206t-235 131.5t-274 43.5q-47 0 -107 -7.5t-106 -16t-123.5 -28t-113 -29t-125 -35.5t-111.5 -32q-162 -38 -197 -38q-42 0 -82 16 q-17 -14 -20 -31zM629 461q0 58 6 178q4 156 4 176q0 12 -4 98t-4 97q0 49 37 264q12 12 28 43q16 29 31 29q12 0 27 -9q12 -53 12 -123q0 -14 -4 -116q-4 -106 -4 -121q0 -47 2 -70q17 -176 17 -402q0 -126 -5 -267q-1 -1 -2.5 -4t-5.5 -10.5t-8 -14.5q-10 -20 -27 -23h-6 q-51 0 -76 45q-18 102 -18 230zM905 1169q0 20 15 134q0 29 61 69q4 3 6 4q32 4 49 4q127 0 240 -82q56 -59 84 -145v-7q0 -34 -18 -64q-20 -32 -52 -38q-88 -14 -174 -14q-89 0 -176 19q-35 47 -35 120zM911 723q-4 23 -4 42q0 28 8 50q48 66 156 66q41 0 76 -2 q16 -1 41.5 -3t32.5 -2q20 0 55 5q36 -8 92 -78v-14q0 -86 -35 -109l-33 -19q-8 1 -22 1q-42 0 -139 -5q-26 -1 -49 -1q-68 0 -110 10q-56 14 -69 59z" />
<glyph unicode="O" horiz-adv-x="1695" d="M82 782q0 183 84 324q66 209 264 326q126 74 250 88q20 -2 65 -2q15 0 109 4q45 2 100 2q131 0 224 -43q200 -92 336 -277t159 -395q-7 -35 -7 -98q0 -21 1 -45q1 -19 1 -37q0 -65 -9 -109q-108 -271 -293 -438q-59 -43 -162 -76q-148 -50 -168 -61q-70 -13 -131 -13 q-161 0 -459 121q-306 229 -346 510q-18 132 -18 219zM510 764q0 -15 2 -21q3 -41 57 -86q18 -7 59 -7h12q34 0 60 3q32 3 33 4q49 -6 122 -6q43 0 95 2q36 1 68 1q95 0 149 -7q-2 5 4 7.5t19 2.5q19 0 22 9q72 44 72 126v7q-50 80 -141 80q-27 0 -117 -17q-85 -16 -121 -16 q-32 -4 -53 -4q-41 0 -104 8t-105 8q-49 0 -84 -12q-49 -34 -49 -82zM524 360q32 -88 35 -98q25 -54 64 -80q100 -106 266 -106q42 0 94 10q180 43 227 195q3 8 31 63q21 40 21 68q0 34 -31 59q-59 33 -135 33q-64 0 -158 -27q-14 -2 -41 -2q-34 0 -119 10q-97 11 -119 11 q-30 0 -65 -7q-61 -19 -70 -129zM528 1110q0 -21 2 -31q14 -25 60 -47q214 -28 336 -31q35 15 110 21q85 5 126 21t65 67v13q0 119 -162 229q-88 49 -199 49q-73 0 -155 -29q-183 -103 -183 -262zM731 657h2h-2z" />
<glyph unicode="P" horiz-adv-x="1751" d="M86 1319q0 -72 49 -121q80 -45 170 -45q110 0 273 82q220 111 295.5 136.5t179.5 25.5q139 0 266 -68q62 -35 92 -113q26 -68 26 -136q-1 -10 -1 -21q-4 -79 -33 -133q-74 -142 -234 -142q-88 0 -172 41q-59 65 -59 168q0 45 16 133q25 127 25 129q-19 0 -31 -6 q-83 -62 -262 -116q-214 -63 -280 -93q-32 -9 -87 -9q-15 0 -32 1h-16q-62 0 -101 -20q-3 -46 51 -94l84 -72q51 -80 51 -209q0 -52 -8 -131t-8 -133q0 -45 6 -82q-65 -115 -123 -152q-12 -9 -45 -12q-31 -3 -49 -21q-11 -30 -11 -52q0 -18 7 -31q51 -39 125 -39 q37 0 125 16q84 15 121 18q163 -22 311 -22h67h24q148 0 196 12q52 13 69 74q-2 12 -7.5 22.5t-16.5 18.5t-19.5 13.5t-27 11t-27 8t-30.5 8t-27 6.5q-27 19 -39 46.5t-25 90.5q1 5 1 16q0 23 -3 72q-4 78 -4 82q0 113 51 170q40 4 66 4q37 0 147 -10q105 -10 144 -10 q127 0 221 55q144 24 221 287q14 43 14 94q0 173 -192 365q-165 104 -404 104q-76 0 -202 -12q-105 -9 -209 -17q-12 -5 -60 -24t-67 -26t-60 -20.5t-66.5 -19t-58.5 -9t-61 -1.5q-36 9 -45 47q-12 63 -15 66q-30 12 -69 12q-54 0 -105 -23q-102 -73 -102 -190zM659 852 q0 43 7 90q28 51 59 62q21 -3 34 -19t18.5 -45.5t7 -54t1.5 -64.5q0 -45 -6 -133t-6 -135q0 -42 12 -174q5 -60 5 -108q0 -38 -3 -68q-6 -8 -22 -8q-11 0 -27 4q-43 37 -55 112l-12 127q8 44 8 105q0 42 -10 155q-11 125 -11 154z" />
<glyph unicode="Q" horiz-adv-x="1673" d="M80 772q0 -285 110 -440q36 -74 90.5 -130.5t178.5 -158.5q9 -15 9 -30q0 -21 -19 -44q-156 -78 -314 -270q-5 -18 -20 -53q-19 -46 -19 -64q0 -26 21 -41q69 28 172 64q82 31 156 31q18 0 35 -2q91 -9 292 -80q192 -66 295 -66q35 0 70 6q17 -1 33 -1q188 0 370 157 q78 110 78 184q0 19 -2 29q-13 10 -25 10q-17 0 -51 -27q-38 -29 -53 -32q-62 -45 -158 -45q-47 0 -129 16l-129 25q-93 34 -203 34q-90 0 -221 -28q-25 -7 -103 -28.5t-120 -31.5l-35 6q18 35 55 60q61 47 64 51q67 70 174 70q30 0 98 -6q68 -9 105 -9q186 0 364 103 t305 272q17 47 33.5 116.5t25 116t26 145t22.5 126.5q-3 40 -19.5 88.5t-31.5 84.5t-52.5 98.5t-53 87t-65 98t-57.5 86.5q-213 130 -258 155q-288 25 -358 29q-12 1 -24 1q-101 0 -234 -65q-92 -73 -138.5 -112t-96.5 -89t-78 -94.5t-50 -99.5q-33 -59 -61 -164 q-4 -110 -4 -139zM532 868q26 11 41 11q17 0 54 -13q30 -10 55 -14q65 12 156 12q53 0 96 -2t96 -2q90 0 154 12q58 -6 73 -69q9 -15 9 -37q0 -34 -25 -76q-57 -63 -154 -63q-36 0 -137 16q-31 6 -56 9t-40.5 4.5t-36 1t-28.5 -1t-32.5 -3.5t-35.5 -4q-55 -8 -94 -8 q-53 0 -103 16q-51 61 -51 122q1 63 59 89zM506 362q3 99 53 117q20 3 72 3q31 0 74 -1h23q67 0 120 15q27 -15 80 -15q7 0 69 4q31 2 70 2q129 0 141 -116q1 -6 1 -11q0 -9 -2 -18q-3 -14 -11 -29t-15.5 -27t-22 -28.5t-23 -26t-26.5 -27t-24 -24.5q-120 -108 -237 -108 q-34 0 -82 10q-93 12 -162.5 91t-97.5 189zM520 1151q0 25 8 41q8 37 54 80q54 51 63 63q103 56 219 56q217 0 338 -213q5 -22 5 -42q0 -48 -27 -87q-32 -29 -74 -29q-25 0 -98 20q-16 2 -54 2q-34 0 -110 -6t-117 -6q-129 0 -186 57q-21 24 -21 64z" />
<glyph unicode="R" horiz-adv-x="1943" d="M92 1346q0 -38 12 -84q44 -84 158 -84q24 0 109 10q54 4 83 4h17q45 20 135 59.5t135 59.5q165 65 289 65q70 0 141 -18q44 -4 81 -21.5t100 -60.5q92 -83 92 -211q0 -39 -8 -72q-20 -86 -93.5 -152t-166.5 -87q-15 -1 -29 -1q-107 0 -159 47q-58 53 -58 138q0 47 22 137 q34 122 35 131q-10 2 -23 2q-33 0 -79 -12l-103 -37q-200 -153 -473 -153q-53 0 -106 6q-5 -2 -11.5 -5.5t-10.5 -6t-7 -3.5l-6 -41q0 -23 18 -32q172 -82 172 -259v-12q-20 -287 -20 -450q-9 -74 -119 -101q-107 -27 -123 -88q24 -43 90 -43q24 0 64 6q47 7 53 7 q95 30 213 30q87 0 248 -20q166 -21 250 -21q46 0 69 2l29 13q15 6 12 22q-3 58 -65 96l-113 50q-8 73 -8 122q0 34 4 56q1 11 1 23q0 24 -5 51q-10 58 -10 71q0 34 14 56q47 75 156 75q19 0 39 -2q55 -28 69 -67q10 -78 64 -224q51 -134 51 -227q0 -21 -4 -61 q40 -58 108 -58q35 0 109 21q63 16 95 16h9q183 -9 265 -18q47 38 47 63q0 48 -66 60q-63 8 -98 14q-34 12 -56.5 38.5t-60.5 86.5q-15 55 -63 178q-44 116 -56 182q3 19 12.5 37t31.5 38.5t32.5 30t44 33.5t37.5 27q56 73 72 161q12 67 11 170q0 33 -1 71q-7 21 -20 43.5 t-35.5 49.5t-38 44.5t-46 50t-40.5 43.5q-54 30 -107.5 48t-95 28t-129 14.5t-142.5 5t-202 0.5q-86 0 -229 -61q-143 -64 -224 -64q-23 0 -65 11q-13 4 -22 10t-15 11.5t-12.5 22.5t-10 26t-12.5 40q-97 -3 -176 -22q-76 -40 -76 -135zM645 516q11 36 10 99q0 50 -6 118 q-3 34 -3 64q0 92 28 147q36 31 69 31q17 0 29 -6q11 -19 14 -35q19 -133 19 -289q0 -9 -4 -231q-5 -115 -5 -186q0 -31 1 -54q-5 -16 -31 -16q-16 0 -39 6q-51 52 -65.5 125t-16.5 227z" />
<glyph unicode="S" horiz-adv-x="1564" d="M76 -63q65 -245 198 -285q100 -17 115 -17q50 0 80 21q5 6 22 24.5t24 27t20.5 26t19.5 29.5t11 27.5t5 29.5q0 22 -10 49q-2 12 -9 23t-21 21.5t-23 16t-29 17t-26 14.5q-19 16 -35 16q-15 0 -37 -22q-29 -26 -42 -32.5t-32 -6.5q-53 0 -88 47q-6 22 -6 40q0 35 24 55 q36 30 95 30q5 0 55 -4q37 -6 55 -6q273 -111 512 -111q109 0 215 25q29 16 80 45q64 36 91 51.5t64 40t49.5 38t29.5 38t24 48t15 60.5q26 121 26 209q0 160 -96 256q-22 22 -80 49q-65 31 -90 59q-20 21 -20 55q0 9 2 20q24 40 106 174q64 108 88 186q2 10 2 33 q0 95 -67 147l-93 -43q-58 -22 -100 -22q-24 0 -45 6q-271 96 -467 96q-159 0 -282 -57q-105 -47 -136 -88q-114 -71 -114 -267q0 -42 6 -88q58 -170 336 -297q8 -14 8 -29q0 -23 -19 -50q-270 -277 -346 -390q-66 -146 -66 -298q0 -18 1 -37zM438 287q10 62 36 99t130 151 q54 45 111 131q84 126 94 137q82 75 170 190q96 127 162 193q22 10 41 10q25 0 43 -18q4 -19 0 -40.5t-19.5 -48.5t-25 -41.5t-34.5 -48t-30 -40.5q-229 -271 -336 -424q6 -18 -24 -31l-111 -144q-67 -78 -143 -114q-61 25 -64 39zM504 1180q1 79 48 141.5t120 87.5 q58 4 78 4q133 0 202 -63q23 -30 23 -66q0 -33 -14 -65q-12 -30 -32.5 -59.5t-39 -50.5t-66.5 -71q-15 -6 -39 -6q-25 0 -61 8q-51 7 -59 7q-143 47 -160 133zM731 231q0 14 6 29q23 42 94 125q67 79 95 127q34 94 84 106q78 -4 139 -47.5t84 -111.5q4 -36 4 -58 q0 -180 -121 -245q-115 -37 -198 -37q-72 0 -134 24q-9 14 -32 41q-21 24 -21 47z" />
<glyph unicode="T" horiz-adv-x="1785" d="M88 1241q2 -17 8 -31t21 -29.5t21.5 -21.5t31 -23.5t27.5 -19.5q15 -6 28 -6q35 0 107 68q1 2 2 5l1.5 4.5t0.5 2.5q0 11 -21 14q-25 3 -30 8q-55 30 -55 97q0 10 1 20q2 9 6.5 16.5t13.5 14.5t15 11.5t19.5 10.5t18.5 8t21 8t19 7q40 4 59 4q155 0 392 -129 q264 -143 387 -164q22 -30 22 -88q0 -18 -2 -39q-4 -42 -4 -71q0 -41 8 -56q-1 -94 -2 -292.5t-2 -268.5q-1 -20 -21.5 -33t-41.5 -8q-10 0 -18.5 3.5t-14 11.5t-10 14.5t-8 19t-5 20t-4.5 22t-4 20.5q12 73 12 166q0 61 -6 184q-8 109 -8 186q0 88 8 148q-3 16 -12 16h-27 q-52 -68 -165 -94q-156 -42 -181 -57q63 -56 80 -130q12 -53 12 -139q0 -35 -2 -76t-2 -76q0 -64 7 -108q-1 0 -5 -5t-8 -9h-3q-25 0 -68 49q-95 148 -95 362q0 59 1.5 87t20.5 86.5t58 115.5l99 140q-141 -12 -263 -93q-127 -79 -191.5 -211t-64.5 -307q0 -216 105 -360 q43 -56 138 -137.5t163 -96.5q147 -63 338 -63q194 0 420 63q165 113 209 142q119 82 159 305q1 10 1 20q0 62 -36 62q-65 -77 -129 -150q-77 -77 -170 -98q-11 2 -45 -8q-37 -11 -41 -11q-19 0 -32 23q-9 126 -9 383q0 238 -10 381q10 23 33 43q322 62 393 258q6 27 6 55 q0 78 -45 111q-13 8 -32 8q-28 0 -64 -25q-113 -84 -256 -84q-98 0 -299 52q-193 49 -297 49h-12q-24 -2 -55 -2t-70 2q-63 2 -125 2q-200 0 -313 -45q-111 -62 -111 -203q0 -20 2 -41z" />
<glyph unicode="U" horiz-adv-x="1794" d="M86 1313q0 140 174 219q32 0 57 2t54 2q78 0 123 -39q112 -63 112 -225q0 -53 -26 -219q-88 -183 -88 -387q0 -238 131 -369q23 -23 41 -23q9 0 16 7q6 3 16 32q1 76 1 160q0 141 -3 307q-8 308 -8 461q0 85 4 221q32 43 78 43h6q44 -14 47 -51q13 -29 13 -72 q0 -30 -9 -94q-10 -72 -10 -90q0 -93 72 -121q15 0 100 -10q78 -10 109 -10q125 0 166 90q4 28 4 43q0 83 -52 135q-13 4 -122 47q-62 33 -62 95v6q39 13 106 13q40 0 91 -5q57 -7 101 -7q55 0 89 11l150 24q17 0 41 -4l12 -16q-2 -9 -13 -52t-14.5 -57t-13 -53.5t-13 -58 t-10 -52.5t-9 -56t-5 -49t-2.5 -50q0 -44 6 -90q35 -110 35 -254q0 -77 -8 -189t-8 -190q0 -43 4 -109q14 -25 66.5 -49t94 -35.5t46.5 -11.5q16 -43 16 -51q0 -18 -16 -31q-17 -15 -52 -18l-108 2q-15 0 -30.5 -1t-36 -4t-34.5 -5.5t-39.5 -9t-37 -9t-41 -11.5t-37 -11 t-40.5 -12t-36 -11q-50 7 -50 55q0 12 3 27q8 39 8 66q0 36 -14 49q-20 -8 -51 -35q-41 -35 -47 -39q-207 -115 -426 -115q-170 0 -310 70q-301 228 -301 446q0 49 15 101q12 147 83 272.5t183 185.5q80 69 80 186v9q-3 57 -68 72q-36 -9 -47.5 -12.5t-22.5 -13.5t-16 -28 q-9 -25 -12 -57q-9 -35 -35 -45q-149 34 -170 158zM813 840q0 -65 52 -93q35 -19 88 -19q27 0 59 5q8 1 16 1q26 0 62 -7q55 -12 73 -12q34 0 54 14q43 61 43 105q0 71 -72 106q-14 -2 -49 -2q-29 0 -127 10q-76 8 -113 8h-14q-72 -31 -72 -116zM821 285q0 -54 60 -82 q22 5 69 5q20 0 45 -1q77 0 115 14q106 53 127 154q20 90 20 123q0 57 -30 84q-12 -2 -37 -2q-38 0 -115 12t-110 12q-78 0 -125 -47q0 -5 -3.5 -42t-6.5 -74.5t-6 -82.5t-3 -73zM1700 31l24 2l14 -2h-38z" />
<glyph unicode="V" horiz-adv-x="2064" d="M100 1362q15 -43 29 -43q160 -9 242 -180l116 -301q104 -141 211 -387q132 -304 187 -398q7 -14 28 -102q15 -64 48 -64q9 0 26 7q203 113 287 167q164 43 235 56q12 -1 21.5 19.5t9.5 37.5q0 34 -45 51q-67 28 -74 35q-12 18 -12 43q0 27 21 74q24 46 34 69q1 1 18.5 38 t66.5 138t98 203q106 221 192 371q28 58 131 84q106 27 127 92q1 7 1 15q0 37 -38 73q-53 17 -104 17q-38 0 -109 -9l-108 -12q-147 15 -236 29h-28q-21 -1 -41 -1q-32 -2 -64.5 -6t-51.5 -13.5t-18 -24.5q6 -28 41 -105q33 -62 33 -104q0 -38 -22 -74q-9 -22 -48 -120 t-56 -138.5t-49.5 -114t-61 -124.5t-58.5 -93q-8 -32 -37 -32q-9 0 -16 10q-14 19 -29 44.5t-26.5 46.5t-28.5 56t-25 52.5t-26.5 58.5t-24.5 53q-8 14 -34.5 57t-38 63.5t-31.5 59t-29.5 64t-17.5 58.5t-8 61q0 15 4 47q9 64 84 92q75 -3 90 -43q1 -10 1 -19q0 -57 -48 -86 q9 -73 71 -129q30 -12 66 -12q64 0 125 37q41 26 52 57.5t16 118.5q0 15 1 23q-5 56 -63 106q-60 50 -122 73q-53 20 -83 20q-5 0 -10 -1q-336 -41 -557 -41q-90 0 -166 6q-27 -9 -39 -18q-30 -45 -30 -77q0 -6 1 -11zM1137 365q0 32 32 106l131 227q66 124 103 236 q17 57 84 176q68 120 84 178q27 21 61 21q24 0 43 -13q8 -13 8 -34q0 -28 -32 -91l-203 -417q-134 -284 -205 -416q-31 -25 -61 -25q-14 0 -29 9q-16 16 -16 43z" />
<glyph unicode="W" horiz-adv-x="2662" d="M135 1413q6 -20 20 -36.5t29 -26.5t40 -19.5t42 -14t47 -11.5t43 -11q37 -30 64 -100q26 -81 43 -104q49 -136 211 -459q155 -309 213 -457q14 -34 37 -123q15 -54 45 -121q4 -9 23 -9q7 0 17 1q34 5 42 19q147 164 335 176q35 9 35 41q0 8 -2.5 20.5t-10 33t-26 37.5 t-45.5 23q-59 15 -59 43q0 15 8 31q35 46 88 180q47 121 90 179q19 7 33 7q18 0 27 -12q15 -34 71 -186q45 -118 84 -180q28 -47 78 -215q44 -137 117 -189q13 -8 46.5 1.5t51.5 27.5q50 66 150 111q29 11 87.5 34t88.5 35q7 7 7 23.5t-17 41t-43 38.5q-56 33 -68 41 q-6 27 -6 57q0 18 2 37q32 60 66.5 131t78 168.5t67.5 153.5t78 182.5t68 158.5q30 70 158 136q131 67 156 133q0 39 -54 51q-59 -21 -125 -21q-65 0 -188 27q-126 27 -188 27q-24 0 -64 -4q-4 -20 -4 -29q0 -47 53 -94l92 -78q9 -21 9 -47q0 -42 -27 -103q-31 -66 -39 -98 q-171 -403 -264 -596q-8 -8 -35 -8q-61 67 -84 147q-39 81 -110 236q-68 151 -123 229q-6 18 -6 37q0 36 28 84q3 4 13.5 20.5t15 23t16 20.5t21.5 21.5t24.5 18.5t33 19.5t40.5 15.5q86 27 117 63q17 20 17 49q0 25 -13 56q-118 23 -229 23q-187 0 -379 -49h-14 q-47 0 -122 16q-93 20 -137 23q-83 -3 -104 -12q-25 -10 -25 -31q0 -11 2 -17q0 -20 8.5 -37t19.5 -28t32 -23t35 -18t41 -16t38 -15q76 -52 123 -170q72 -175 84 -195q4 -24 4 -38q0 -19 -4 -39q-34 -63 -88 -213q-50 -139 -106 -201q-8 -8 -23 -8q-16 0 -41 22 q-64 149 -164 338q-124 238 -164 334q-40 37 -43 143q6 44 58 62q62 21 74 49q6 38 3 61.5t-27.5 34t-80.5 10.5q-36 0 -110 -12q-73 -12 -113 -12q-71 0 -180 8q-86 7 -143 7q-19 0 -36 -1q-55 -9 -55 -82v-8zM1538 1324q-1 7 -1 14q0 32 17 48q24 7 40 7q20 0 28 -11 t8 -24q0 -12 -22 -50q-20 -34 -40 -35q-3 0 -5 1q-21 8 -25 50z" />
<glyph unicode="X" horiz-adv-x="1955" d="M94 172q0 -34 23 -57q61 -58 102 -58h4q93 0 146 -38.5t172 -174.5q12 -13 18 -20q6 -11 28 -11h7q28 2 37 21q18 52 18 131v23q0 21 -1 59t-1 53t1.5 43.5t6 43t13.5 38.5t23 44t34.5 45.5t48.5 54.5q137 140 164 198q16 4 25 4q41 0 67 -51q39 -71 49 -78 q9 -20 84 -108q54 -57 54 -115v-6q-9 -41 -76 -57q-74 -15 -90 -41q-9 -12 -9 -27q0 -26 33 -65q63 -29 133 -29q65 0 183 26q124 24 180 27q28 4 41 4q45 0 143 -31q88 -32 137 -32q60 0 107 41q10 17 10 34q0 20 -10 37q-18 42 -53 57t-113 21q-12 -1 -23 -1q-34 -1 -62 9 q-38 12 -70.5 45.5t-57 72t-59.5 104.5q-243 184 -301 389q3 53 55 96q32 21 172 176q101 116 201 131q35 15 118 21q94 5 133.5 25.5t45.5 82.5q-6 17 -29 27q-30 9 -35 14q-170 9 -291 154q-18 -4 -47 4q-36 8 -53 8q-36 0 -55 -31q20 -73 20 -119q0 -49 -20 -75 q-46 -64 -156 -183q-111 -120 -160 -186q-10 -15 -26 -15q-15 0 -35 13q-11 29 -125 180q-79 109 -82 191q10 19 24.5 27.5t53.5 21.5q48 15 51 106q-35 56 -96 56q-38 0 -99 -21q-84 -26 -96 -28q-59 -9 -139 -9q-55 0 -119 4q-26 3 -88 15q-53 12 -88 12q-23 0 -33 -2 q-67 -40 -67 -76q0 -6 4 -22q9 -25 37 -31l55 -12q54 -3 93.5 -18t74.5 -51.5t60.5 -75.5t68.5 -115q64 -116 121 -164q13 -18 86 -99q52 -58 61 -110q-35 -115 -203 -258q-55 -22 -219 -146q-131 -98 -244 -98q-29 0 -59 6q-37 -6 -37 -51z" />
<glyph unicode="Y" horiz-adv-x="2088" d="M100 1417q23 51 74 51q21 0 80 -16t84 -16q11 0 31 4q17 -1 34 -1q106 0 252 31q181 39 281 39q41 0 61 -2q87 -9 195 -129q33 -62 33 -127q0 -64 -40.5 -112t-121.5 -64h-5q-56 0 -112 62q-4 8 -4 12q0 10 14 18q10 6 17 13q11 30 11 58q0 32 -14 60q-28 53 -89 64 q-102 0 -117 -74q-14 -32 -14 -71q0 -21 5.5 -43.5t19.5 -52t21.5 -43.5t29.5 -51.5t26 -43.5q165 -337 211 -430q10 -15 33 -15q15 0 37 7q76 120 180 350q120 266 168 360q-15 38 -99 197q-2 12 -2 23q0 39 27 53q13 1 26 1q17 0 35 -1q32 -3 75 -13t67 -16t79 -22.5 t68 -20.5q4 2 178 2q106 0 168 -26q16 -16 16 -36q0 -16 -10 -34q-7 -21 -41.5 -47.5t-65.5 -42.5l-30 -17q-80 -61 -119.5 -137.5t-101.5 -257.5q-47 -139 -90 -209q-83 -99 -164 -321q-85 -232 -158 -322q-9 -20 -26.5 -61t-26.5 -62q-26 -71 -26 -129q0 -41 16 -84 q5 -14 12 -47q8 -27 8 -49q0 -27 -16 -49q-129 -14 -184 -14q-114 0 -181 34q-20 2 -63 2q-77 0 -203 -14q-129 -14 -205 -14q-56 0 -102 6q-180 41 -201 176q-6 30 -6 64q0 119 74 237q45 57 149 57q51 0 92.5 -16t81.5 -65q46 -55 46 -107t-46 -98q-13 -23 -28 -23 q-9 0 -27 15q-15 9 -31 14q-20 0 -36 -18t-20.5 -41t7 -47t41.5 -35q16 -1 31 -1q166 0 242 121q112 130 194 375q-33 88 -155 281q-12 36 -26.5 74.5t-35 84.5t-35.5 80t-43.5 90.5t-42 84.5t-47 93t-44 84t-48 90.5t-43.5 82.5q-65 135 -240 159q-42 25 -45 78zM969 -184 q-16 -28 -16 -51q0 -26 20 -44q8 -8 24 -8q23 0 54 25q15 28 70 144t168 364.5t224 505.5q111 264 220 436q20 29 20 61q0 38 -35 47q-35 0 -51 -16q-80 -80 -143 -233q-44 -127 -97 -269q-98 -161 -235 -477q-156 -360 -223 -485z" />
<glyph unicode="Z" horiz-adv-x="1634" d="M80 8q0 -28 56 -28h11q69 4 199 20q129 18 203 18q108 0 190 -30q152 0 340 -33q187 8 283 10q156 14 266 82v8q0 45 -29 90q-42 68 -49 93q-15 132 -20 200q1 2 3.5 14.5t7.5 38t11 52.5q15 61 15 100t-8 66q-93 -41 -156 -144q-8 -14 -43.5 -80.5t-54.5 -101.5 q-60 -99 -148 -135l-104 -25q-66 -16 -105 -16t-82 16q-20 38 -20 63q0 8 2 15q501 699 754 1047q47 68 47 98q0 12 -2 18q-201 68 -406 68q-207 0 -360 -72q-49 -18 -105 -18q-71 0 -192 39q-124 39 -195 39q-89 0 -125 -31q-16 -29 -16 -55q0 -31 22 -80q5 -13 16.5 -37 t16.5 -37q27 -50 27 -113q0 -40 -8 -92q-13 -77 -15 -94q3 -105 43 -135q80 42 146 129l108 158q70 141 303 141q54 -12 54 -60q0 -49 -97 -172q-122 -152 -133 -172q-120 -123 -274 -350q-176 -259 -256 -352q-83 -100 -109 -135q-12 -15 -12 -25zM516 297q0 13 21 68 q48 80 157 200q110 121 152 189q36 87 139 213q97 120 135 204q44 54 120 54q14 0 30 -2q13 -17 13 -38q0 -24 -17 -52q-170 -200 -326 -443q-42 -82 -137 -194q-100 -120 -141 -197q-30 -40 -93 -40q-12 0 -24 1q-29 10 -29 37z" />
<glyph unicode="[" horiz-adv-x="839" d="M160 1391q0 145 73 145h506q4 -65 0 -88t-32 -33q-26 2 -79 -12t-73 -27q-32 -32 -38.5 -85t-4.5 -185v-27q12 -588 -6 -993q6 -37 14 -100q16 -54 58 -66q79 -3 149 -24q9 -5 15 -32.5t5.5 -53t-8.5 -25.5q-253 -19 -489 -4q-8 -2 -23 -2q-57 0 -57 117l4 139 q0 192 4 1032q2 38 -8 166q-10 127 -10 158z" />
<glyph unicode="\" horiz-adv-x="716" d="M-18 1464q294 -939 602 -1978q3 -6 18 -6q27 0 62.5 12.5t35.5 22.5q1 51 -298 1028t-314 989q-33 5 -69 -14t-37 -54z" />
<glyph unicode="]" horiz-adv-x="839" d="M96 -189.5q0 25.5 6 53t15 32.5q70 21 149 24q42 12 58 66q8 63 14 100q-18 405 -6 993q2 172 -6 216q-9 53 -37 81q-20 13 -73 27t-79 12q-6 2 -11 4.5t-8.5 5t-6 6.5t-4.5 7t-3 10t-1.5 11.5t0 14.5t0.5 16.5t0.5 21t0.5 24.5h506q74 0 74 -145q0 -31 -10 -158 q-10 -128 -8 -166q-3 -325 4 -1032l4 -139q0 -117 -58 -117q-14 0 -22 2q-236 -15 -490 4q-8 0 -8 25.5z" />
<glyph unicode="^" horiz-adv-x="1126" d="M88 905h199l260 377l270 -377h199l-387 545h-154z" />
<glyph unicode="_" d="M0 -154v-114h1024v114h-1024z" />
<glyph unicode="`" horiz-adv-x="921" d="M289 1212q30 -43 192 -202q17 -17 33 -17h88q13 0 0 29q-27 66 -129 199q-15 18 -24 18h-154q-24 0 -6 -27z" />
<glyph unicode="a" horiz-adv-x="1101" d="M66 176q0 -40 8 -76q15 -82 176 -106q32 -4 51 -4t34.5 1t28.5 2t29.5 6t26.5 7.5t31 12.5t31.5 14.5t39 20.5t43 24t55 31t62.5 36q27 -9 27 -39v-51q15 -60 114 -75q145 75 209 114q39 14 39 66q0 11 -10 76q-19 3 -49 -15q-29 -20 -43 -20q-17 0 -31 20q-9 52 -9 133 q0 49 3 109q-6 34 -12 137q-5 101 -24 151.5t-81 84.5q-17 8 -37.5 17t-45 19.5l-38.5 16.5q-118 14 -192 14q-207 0 -309 -108q-50 -65 -50 -123q0 -24 9 -45q35 -62 71 -62h6q23 3 44.5 15t36 25t32 37.5t26.5 39.5t26 45.5t24 42.5q63 39 124 39q12 0 24 -1 q73 -9 102 -69q5 -24 5 -43q0 -44 -24 -65q-81 -20 -147 -60q-42 -33 -140 -69q-98 -31 -147 -64q-149 -82 -149 -262zM313 256q0 48 27 92q52 43 109 66q53 19 104 57q65 39 125 39q0 -18 6 -64q4 -62 4 -73q0 -93 -55 -117q-114 -69 -121 -74q-61 -37 -115 -37 q-11 0 -22 2q-62 35 -62 109z" />
<glyph unicode="b" horiz-adv-x="1175" d="M55 1253q0 -20 2 -30q9 -52 31 -52q11 0 43 19q27 18 43 18t25 -12q5 -17 9.5 -57.5t5.5 -69t-1 -33.5q1 -11 1 -27q0 -46 -5 -128q-6 -114 -6 -162q0 -32 10 -117q10 -88 10 -119t-6 -96t-6 -98q0 -95 47 -160q88 -156 322 -156q59 0 135 13q204 83 253 110 q86 47 121 112q20 38 33 97q19 87 19 162q0 110 -29 193.5t-80 133.5t-117 74.5t-145 24.5q-106 0 -190 -35q-58 -22 -86 -22q-24 0 -43 8q-19 87 -19 198q0 59 6 179q6 114 6 172q-27 86 -100 86q-37 -29 -119 -62q-96 -36 -133 -68t-37 -96zM442 469q3 173 93 223 q65 27 110 27q26 0 53 -6q176 -124 203 -248q8 -27 8 -64q0 -145 -143 -264q-50 -41 -121 -41q-37 0 -72 15q-92 39 -112 149z" />
<glyph unicode="c" horiz-adv-x="915" d="M43 387q0 -52 10 -127q26 -98 117 -174q135 -113 346 -113q242 0 356 150q31 57 31 124q0 16 -2 32h-27q-198 -103 -292 -103q-31 0 -58 6q-7 5 -30.5 19.5t-35 22t-29 20.5t-29.5 25t-21 24q-92 133 -92 246q0 44 16 90q6 47 39 72.5t115 58.5q24 4 35 4q59 0 135 -76 t133 -76q20 0 41 6q29 22 40 31t27.5 30.5t16.5 39.5q0 11 -6 26q-15 106 -138 127q-37 3 -107 10.5t-104 10.5q-274 -15 -399 -213q-88 -113 -88 -293z" />
<glyph unicode="d" horiz-adv-x="1144" d="M53 426q0 -98 21 -203q120 -256 334 -256q12 -2 34 -2q120 0 256 121q13 8 27 8q16 0 16 -24q0 -15 -2 -25t-2 -25t6 -24q17 -37 43 -37q5 0 11 2q143 43 157 47q102 37 152 72q5 27 5 83q0 24 -1 54q-14 3 -51 -10q-32 -14 -49 -14q-22 0 -35 22q2 28 1.5 94.5 t-1.5 171.5v44q0 123 14 220q-22 228 -22 424q0 121 10 248q-10 23 -31.5 32.5t-66.5 16.5q-170 -71 -308 -170q-1 -8 -4 -24.5t-4 -24.5q-4 -28 7.5 -42.5t27.5 -14.5q4 0 61 31q19 6 34 6q30 0 40 -25q-9 -58 -9 -139q0 -105 15 -250q2 -2 -4 -12q-6 -9 -6 -13 q-8 -2 -22 -2q-36 0 -103 48q-64 46 -106 49q-33 10 -62 10q-57 0 -194 -70q-189 -95 -189 -397zM256 520q0 70 29 142q66 90 155 90q18 3 36 3q90 1 164 -79q90 -96 89 -240q0 -73 -14 -168q-30 -70 -107 -94q-34 -12 -73 -12q-86 0 -150 49q-129 144 -129 309z" />
<glyph unicode="e" horiz-adv-x="923" d="M41 401q0 -179 123 -323q153 -105 362 -105q45 0 68 2q144 28 231 125q62 103 62 142q0 22 -10 45q-136 -67 -199 -111q-33 -10 -62 -10q-69 0 -188 61q-19 9 -19 34q0 15 7 36q148 97 239 201q24 36 111 104q78 60 98 109q6 15 6 37q0 43 -32 92q-125 55 -256 55 q-135 0 -265 -59q-228 -154 -266 -338q-10 -55 -10 -97zM285 530q0 171 121 224q53 16 81 16q45 0 66 -27q42 -20 51 -90q-23 -74 -117 -149q-123 -100 -151 -131q-8 -4 -12 -4q-14 0 -29 45q-10 75 -10 116z" />
<glyph unicode="f" horiz-adv-x="774" d="M39 788q0 -27 70 -30q79 -3 98 -25l12 -174q10 -127 10 -176q0 -115 -26 -197q-3 -51 -78 -69q-74 -21 -74 -68q13 -39 32 -51t60 -12q46 0 105 20q38 12 86 12q34 0 149 -16q75 -12 122 -12q18 0 32 2q35 12 35 63q-34 68 -114 68h-7q-95 27 -98 160q10 65 10 133 q0 63 -2 114q-4 102 -4 115q0 55 2 80q37 29 86 29q5 0 59 -4q47 -7 60 -7q8 0 38 5q20 23 20 49q0 18 -9 37q-41 8 -102 8t-142 -8q-18 11 -20 18q0 7 -4.5 62.5t-7.5 109.5t-3 84q0 123 35 207q36 28 68 28q34 0 98 -40q64 -43 106 -43q11 0 31 4q39 9 57 73q9 34 9 59 q0 46 -29 68q-33 33 -80 33q-15 0 -55 -6q-44 -7 -62 -4q-91 -10 -178 -67t-139 -136q-78 -90 -78 -278q0 -45 2 -78q2 -39 2 -76q-19 -16 -49 -16q-15 0 -45 6q-46 4 -47 4q-15 0 -21 -2q-20 -33 -20 -56z" />
<glyph unicode="g" horiz-adv-x="1030" d="M47 369q0 -217 115 -312q149 -94 272 -94q77 0 141 37q25 12 50.5 24t48 23.5t31.5 15.5q8 -44 8 -100q0 -99 -31 -178q-51 -92 -186 -133q-20 -4 -31 -4q-41 0 -92 57q-53 59 -99 62q-16 0 -49 8t-57 8q-42 0 -74.5 -43.5t-32.5 -89.5q0 -18 7 -35q5 -17 15.5 -30.5 t21 -23t30.5 -17.5t32.5 -12t39 -8t37.5 -5.5t40.5 -4t37.5 -3.5q98 7 175 22.5t150 47t127.5 79t99 120t72.5 169.5q2 38 2 116q0 118 -4 328v49q0 239 27 394q-9 22 -29 22q-13 0 -74 -39q-41 -35 -90 -35q-42 0 -135 37q-85 31 -136 31h-9q-161 -4 -203 -37 q-227 -166 -242 -328q-6 -67 -6 -118zM272 479q0 43 11 107q11 54 44 100t74 59q47 9 86 9q56 0 95 -19q139 -95 139 -327q0 -77 -19 -170q-30 -82 -108 -97q-28 -4 -43 -4q-115 0 -197 100.5t-82 241.5z" />
<glyph unicode="h" horiz-adv-x="1216" d="M57 1237q0 -26 11 -55q16 0 45 16q27 8 46 8q33 0 40 -24q-4 -54 -4 -90q0 -13 4 -111q2 -49 2 -111q0 -82 -17 -155q3 -33 21 -178q14 -109 14 -187q0 -50 -6 -94q2 -8 2 -23q0 -48 -63 -108q-60 -60 -60 -105v-8q12 -28 47 -28q12 0 39 6q32 4 35 4q50 16 100 16 q41 0 109 -8q67 -8 99 -8h11q25 -3 30 28q1 8 1 15q0 36 -31 71q-12 14 -28 25q-58 40 -58 80q0 5 5 35q4 24 4 39q0 25 -6 75q-7 58 -7 72q0 49 21 86q11 7 49 34t54 38t50 32t56 30.5t50 19t52 10.5q32 -37 39 -53q-10 -62 -10 -121q0 -60 12 -174q10 -127 10 -170 q0 -68 -12 -127q0 -78 98 -78q185 58 271 156q9 29 9 51t-9 37q-25 4 -39 -10q-28 -12 -47 -12q-24 0 -35 18q1 17 1 39q0 93 -11 264q-15 200 -15 297q-6 40 -59 61q-30 6 -59 6q-108 0 -234 -75q-155 -103 -207 -136q-37 18 -37 62q0 17 13 67q8 44 8 62v6q1 6 1 13 q0 30 -11 85q-15 65 -15 90q0 19 2 25q-8 21 -8 57q0 34 12 107q13 80 13 108q0 78 -43 127q-21 7 -39 7q-49 0 -113 -43q-70 -48 -106 -60q-97 -18 -97 -133z" />
<glyph unicode="i" horiz-adv-x="579" d="M30 605q0 -10 1 -21q12 -21 28 -21q4 0 50 17q35 15 53 10q16 -2 35 -45q-12 -61 -12 -148q0 -19 1 -39q1 -32 1 -60q0 -84 -7 -128q-8 -19 -67 -57q-53 -27 -50 -72q9 -45 46 -55q35 7 73 10t90.5 3t79.5 -1t94.5 -4t81.5 -4q39 39 39 65q0 29 -69 66t-78 76 q-14 186 -14 301q0 141 22 264v10q0 87 -49 90q-35 -18 -146 -61q-106 -39 -138 -60q-65 -45 -65 -136zM143 1102q7 -7 15 -23q9 -20 20 -20q3 0 15 4q14 6 43.5 17t47 18t42.5 20t40.5 25.5t29.5 31t20 39.5q1 20 1 38q0 93 -38 139q-12 1 -21 3q-4 1 -8 1q-6 0 -12 -1 q-10 -2 -16.5 -2.5t-18 -7t-17.5 -9.5t-21.5 -14.5t-23 -17t-29 -22t-32.5 -25.5q-43 -47 -43 -130q0 -29 6 -64z" />
<glyph unicode="j" horiz-adv-x="571" d="M-6 -418q0 -23 12 -41q75 -37 94 -37q15 0 21 2q224 3 368 338q23 108 23 236q0 60 -10 233t-10 234q0 109 16 203q-7 14 -4 57q3 35 -17 51q-278 -107 -335 -139q-38 -40 -38 -96q0 -19 5 -41q24 -19 50 -19q12 0 24 4q29 11 40 11q35 0 35 -58q0 -24 -2 -47 q-4 -46 -4 -47q0 -32 10 -45q-6 -134 -6 -261q0 -210 17 -401q-21 -43 -54 -43q-16 0 -61 25q-48 23 -66 23q-31 0 -53 -31q-55 -70 -55 -111zM237 1113l3 -28q14 -14 39 -14q19 0 73 23q66 30 74 32q66 18 78 97l6 131q-11 25 -14 30q-10 2 -27 2q-50 0 -84.5 -19 t-122.5 -87q-26 -30 -26 -131q0 -17 1 -36z" />
<glyph unicode="k" horiz-adv-x="1249" d="M61 1227q0 -15 2 -25q13 -24 42 -24q13 0 28 4q21 6 37 6q22 0 35 -12q6 -35 6 -74q0 -35 -10 -123q-11 -97 -11 -121q0 -56 15 -108q3 -291 3 -432q0 -71 -1 -105q-9 -39 -62 -80q-55 -43 -55 -86q0 -14 2 -22q17 -39 68 -39q24 0 63 8q66 12 101 12t84 -8t81 -8 q63 0 105 33q3 16 -1.5 31.5t-12.5 26t-25 23.5t-28.5 20t-33 19t-30.5 17q-12 21 -12 41q0 17 12 51l12 49q12 9 62 74q36 50 77 59q43 -32 82 -106q60 -102 72 -115q32 -124 37 -178q34 -45 93 -45h7q34 1 59 1q41 0 56 -3q20 4 39 4q30 0 55 -2q46 -4 53 -4q63 0 101 32 q3 18 3 32q0 35 -16 46q-91 36 -155 88q-52 63 -137 207q-79 130 -134 209q0 19 -22 41q-25 22 -25 37t13 31q30 37 71 96q42 42 90 42q9 0 17 -1q51 -20 51 -49q16 -13 33 -13h1q1 1 4.5 2.5t8 3.5t11.5 4.5t15 5t18.5 6t21.5 7.5q53 47 53 131q0 13 -4 37q-33 85 -97 119 q-45 24 -94 23q-21 0 -43 -4q-74 -15 -145 -70q-74 -84 -164 -297q-86 -201 -178 -281q-20 3 -23 25q-1 8 -4 21t-4 18q19 87 19 190q0 33 -7 166q-6 108 -6 168q-1 17 -1 35q0 37 5 80q13 93 13 114q0 89 -58 135q-21 8 -41 8q-38 0 -71 -28q-19 -16 -88 -45 q-74 -29 -106 -56t-32 -75z" />
<glyph unicode="l" horiz-adv-x="598" d="M37 1270q-8 -28 -8 -52q0 -32 14 -55q11 -8 31 -8q12 0 76 23q37 -19 40 -84q6 -92 9 -101q-15 -91 -15 -196q0 -30 11 -224q7 -106 7 -182q0 -25 -1 -47q1 -14 1 -28q0 -138 -134 -240q-11 -20 -11 -37q0 -26 25 -45q80 -17 154 -17q10 0 25 1t37.5 2t39.5 2q45 2 104 2 q32 0 86 -4q19 10 23.5 24t11.5 66q-6 36 -49 51q-55 18 -65 31q-43 64 -43 167q0 58 16 140q-9 174 -9 356q0 50 1 100q2 303 2 459q-24 49 -74 49q-7 -3 -37.5 -13.5t-41 -14.5t-37.5 -14.5t-39.5 -16t-35 -16t-35.5 -18t-29.5 -18t-28.5 -21t-21 -21.5z" />
<glyph unicode="m" horiz-adv-x="1873" d="M100 600q13 -10 27 -10q10 0 37 10q22 8 37 12q8 0 13.5 -3t9 -10.5t5 -12t4 -15.5t3.5 -14q-9 -41 -9 -84q0 -29 13 -139q7 -66 7 -112q0 -15 -1 -29q-6 -18 -49 -76q-28 -36 -28 -68q0 -6 1 -12q15 -49 78 -49q14 0 20 2q43 14 103 14q27 0 100 -6q50 -5 82 -5 q14 0 25 1q35 23 35 59q0 5 -1 11q-6 44 -51 71q-20 12 -39 23.5t-26.5 16t-8.5 5.5q-16 109 -16 350q-3 13 27 43q11 5 48 21t53.5 23t49 19.5t53 19.5t46 13.5t45.5 8.5q38 -35 38 -105q0 -9 -4 -63q-6 -43 -6 -59q13 -142 21 -183v-7q0 -43 -33 -95q-49 -74 -49 -116 q0 -38 39 -50h20q44 0 172 -2q40 -1 74 -1q78 0 119 5q50 0 50 43q0 5 -1 10q-1 14 -10.5 27t-18.5 20t-29.5 20.5t-25.5 16.5q-40 16 -53 47t-21 107q2 13 1.5 31t-1.5 41l-4 77v13v39.5t6.5 28.5t13.5 23.5t29.5 22.5t45.5 27.5t71 36.5q2 2 4 2q80 42 139 45 q58 -18 58 -90q0 -26 -2 -49q-4 -46 -4 -54q0 -37 12 -61q8 -36 8 -84q0 -34 -6 -104t-6 -105q0 -32 1.5 -52t7.5 -45t17.5 -39t33.5 -24t54 -10q16 9 140 68q104 49 137 71q17 27 17 55q0 24 -13 48q-12 4 -20 4q-11 0 -41 -10q-29 -13 -43 -13q-15 0 -27 9 q-16 200 -16 286q0 42 8 107q6 71 6 106q0 115 -68 162q-47 12 -90 12q-100 0 -223 -63l-201 -115h-5q-39 0 -42 41q-3 62 -8 72q-10 30 -33 43t-80 26q-108 -3 -241 -65l-222 -115q-28 6 -28 47v23q2 10 2 22q0 24 -8 35q-20 43 -66 43h-6q-214 -70 -281 -137 q-15 -45 -15 -77q0 -29 13 -48z" />
<glyph unicode="n" horiz-adv-x="1220" d="M57 696q0 -16 2 -26q10 -23 31 -23q7 0 37 10q24 9 37 9q10 0 20 -7q10 -69 10 -175q0 -27 -1 -56q-3 -175 -3 -218v-13q-9 -20 -69 -68q-41 -35 -41 -70q0 -38 41 -57q49 11 121 11q36 0 77 -3q56 -4 99 -4q62 0 96 8q6 15 6 33q0 22 -16.5 47.5t-31 40t-42.5 39.5 q1 15 1 33q0 35 -5 80q-8 79 -8 127q0 160 117 194q4 3 28 20t31 22t28 18.5t32 18t28 12t31 9t28 -0.5q50 -30 50 -101q0 -13 -7 -74q-7 -39 -7 -64q0 -8 1 -15q17 -73 17 -156q0 -43 -2 -78t-2 -78q0 -79 12 -137q48 -31 86 -31q137 53 291 131q0 7 6 37q5 19 5 31 q0 5 -1 10q-14 17 -37 17q-15 0 -27 -2l-28 -4q-29 0 -45 22v11q0 32 -13 102q-8 49 -8 82q0 17 2 30q-4 36 -4 58q0 45 8 108q9 70 9 103q0 96 -56 149q-70 33 -112 33q-24 0 -43 -8q-52 -30 -166 -80q-115 -48 -164 -86q-42 -31 -64 -31q-28 0 -28 68v22v23q0 66 -25 82 q-10 9 -34 9q-26 0 -66 -11q-28 -25 -94 -50q-77 -29 -107.5 -55t-30.5 -78z" />
<glyph unicode="o" d="M45 455q0 -49 59 -209q46 -148 283 -256q61 -25 121 -25q97 0 250 72q204 100 219 463q-88 300 -309 356q-62 35 -142 35q-48 0 -89.5 -6.5t-92 -28t-93.5 -57.5t-89 -98.5t-84 -147.5q-33 -42 -33 -98zM319 430q6 88 15 172q15 96 74 143q66 29 124 29q35 0 54 -8 q95 -65 110 -209l13 -250q-9 -164 -140 -219q-19 -8 -45 -8q-71 0 -133 53q-9 10 -16.5 22.5t-13 23.5t-10.5 28.5t-8.5 28t-7 32t-5 31.5t-3.5 34t-3 31.5t-3 34t-2 31.5z" />
<glyph unicode="p" horiz-adv-x="1128" d="M53 459q3 -46 53 -49q20 3 52 32q29 29 47 29q2 0 14 -4q-1 -33 -1 -72q0 -117 7 -295q11 -319 11 -372q-37 -92 -91 -131q0 -7 -8 -23q-8 -19 -8 -33q0 -17 21 -26q9 1 41 1q95 0 393 -5q20 5 27 29.5t-4 50.5t-38 34q-17 3 -45 11t-39 10q-47 53 -47 147q0 73 31 137 q24 48 58 48q4 0 8 -1q62 -10 110 -10q246 0 359 141q107 133 107 399q0 19 -1 38q-53 170 -127 233q-56 71 -172 92q-30 3 -203 23q-14 -3 -55 -21q-39 -20 -61 -20q-20 0 -35 12q-3 95 -3 168q0 44 1 80l-15 14q-47 -6 -106 -47q-72 -49 -101 -63q-14 -41 -14 -101 q0 -41 8 -114q1 -16 4 -36t4 -27.5t-1 -21.5t-8 -22.5t-20 -25.5t-34 -34.5t-53 -45.5q-66 -58 -66 -123v-6zM451 338q0 20 10 143q8 63 8 111q0 23 -2 43q35 35 162 35q173 -24 237 -174q37 -98 45 -142q-12 -15 -12 -28v-33q-30 -152 -190 -199q-136 4 -197 61.5 t-61 182.5z" />
<glyph unicode="q" horiz-adv-x="1052" d="M53 354q0 -86 27 -166q41 -97 128.5 -143t256.5 -80l76 12q40 5 71 19q27 7 62 39q39 31 61 31q10 0 19 -3q3 -28 3 -95q0 -39 -1 -93v-38q0 -92 12 -148q-6 -23 -18 -8q-12 -28 -62 -43q-48 -15 -55 -39q-10 -13 -10 -31q0 -40 30 -55q11 -1 39 -1q57 0 180 3 q72 3 126 3t89 -3l19 12q8 8 16 12q4 24 4 33q0 13 -6.5 26t-14 21.5t-23.5 20.5t-25.5 17.5t-31 17.5t-28.5 16v239q0 150 -14 242q-2 33 -2 79q0 68 4 165q1 37 1 71q0 100 -7 166q18 137 18 207v19q-8 2 -24 2q-42 0 -103 -43q-61 -44 -104 -47q-86 55 -217 94 q-38 10 -70 10q-15 0 -32 -2.5t-31 -5.5t-35 -10.5t-32 -11.5t-35.5 -15t-32 -14.5t-34 -16t-30.5 -14.5q-24 -24 -33 -39q-131 -210 -131 -412zM252 520q0 60 19 106t55 75.5t78.5 47.5t97.5 29q165 -26 225 -174q18 -102 18 -207q0 -90 -16 -172q-107 -98 -160 -98 q-22 0 -41 8q-177 12 -260 277q-16 59 -16 108z" />
<glyph unicode="r" horiz-adv-x="925" d="M43 643q13 -16 33 -16q14 0 47 10q10 3 23.5 6t15.5 4q34 -15 37 -67q-15 -46 -15 -99q0 -25 6 -78q1 -13 3 -41t2 -38q0 -30 -1 -46t-7 -42.5t-18.5 -43t-37.5 -35t-61 -32.5q-15 -15 -15 -41q0 -33 21 -51q48 -25 121 -25q36 0 94 6l80 9q14 2 45 2q26 0 78 -9 q47 -8 75 -8q20 0 35.5 2.5t33.5 10t28 26.5t10 47q0 17 -2 25q-33 33 -92 45q-99 19 -123 32q-36 21 -42 80q-1 17 -1 39q0 33 8 88q5 46 5 72q0 11 -1 19q1 19 8 35.5t26 34.5t28.5 26t39 28t33.5 23q19 8 43 8q29 0 96 -31q57 -32 101 -32q21 0 39 6q39 3 67 70 q15 99 15 100q0 49 -34 83t-89 34q-7 0 -24.5 -2t-26.5 -3q-41 -6 -52 -6q-59 -15 -131 -75q-97 -81 -121 -91q-27 21 -30 70q-2 70 -14 96q-10 23 -40 24q-5 0 -10 -1q-208 -95 -289 -135q-5 -6 -8.5 -13t-5.5 -16.5t-3.5 -15t-2 -17.5t-0.5 -15.5v-18.5v-17z" />
<glyph unicode="s" horiz-adv-x="987" d="M45 162q2 -12 9 -25t12.5 -21.5t19 -23.5t19.5 -20.5t24 -22.5t21 -20q113 -43 253 -43q207 0 408 86q92 41 135 186q1 13 1 26q-1 98 -69 165q-78 76 -251 120q-167 44 -224 113q1 35 38.5 63.5t80.5 28.5q47 0 131 -63q73 -57 133 -57q8 0 17 1q75 34 78 70q6 18 6 41 q0 55 -39 94q-88 60 -217 60q-71 0 -168 -23q-261 -64 -279 -235q3 -145 160 -228q46 -19 138.5 -57.5t138.5 -57.5q63 -45 63 -81q0 -9 -4 -21q-9 -36 -49 -51q-101 -33 -131 -33q-72 0 -142 76q-87 93 -127 108q-47 21 -81 21q-49 0 -70 -37q-11 -9 -18 -20t-10.5 -28.5 t-4.5 -27t-1.5 -34t-0.5 -29.5z" />
<glyph unicode="t" horiz-adv-x="765" d="M37 770q1 32 2.5 43t7 19t19.5 12h100q37 3 49 33q2 8 2 26q0 41 -24 111q-25 73 -25 82q0 11 8 14q150 69 258 168q2 2 4 2t6 -2q4 -4 9 -4q14 -38 14 -88q0 -35 -16 -123q-17 -93 -17 -125q0 -34 6 -64q42 -28 95 -28q54 0 124 28q68 -7 81 -16q12 -8 16 -33 q1 -11 1 -20q0 -47 -38 -55q-21 -9 -47 -9q-21 0 -84 17q-59 16 -82 16t-41 -6q-3 -6 -25 -39q5 -30 5 -113q0 -62 -3 -155v-25q0 -148 33 -239q52 -60 100 -60h5h7q33 0 79 23q50 24 69 24q2 -10 2 -20q0 -41 -30 -78l-74 -74q-61 -24 -139 -24q-109 0 -191 43 q-115 77 -115 254q0 37 9 139q5 68 5 108q0 17 -1 29q0 1 4 55q2 25 2 56q0 69 -39 92q-14 3 -45 -4q-31 -8 -45 -8q-26 0 -41 18zM154 842z" />
<glyph unicode="u" horiz-adv-x="1230" d="M57 647q0 -19 2 -29q14 -20 33 -20q12 0 41 16q31 17 43 17q14 0 31 -17q5 -76 5 -158q0 -130 -13 -280q1 -5 4 -25t4 -27t4.5 -25t6.5 -26t8.5 -22.5t11.5 -22.5t15 -17t19 -15q61 -25 121 -25q87 0 205 56q22 11 90.5 46.5t104.5 55.5q8 -11 8 -27q0 -10 -6 -34 q-3 -14 -4.5 -22t-1.5 -21.5t4.5 -21t15.5 -12.5t29 -3q53 26 151 32q133 9 154 15q47 14 57 28q5 6 6 15q2 6 2 20q0 53 -66 53q-7 0 -14 -1q-61 12 -73 73q-1 9 -1 27q0 35 3 104q6 95 6 125q0 27 -6 80q-8 47 -8 78q0 23 6 70t6 65q0 42 -23 80q-27 12 -67 12 q-49 0 -107 -18q-10 -10 -123 -68q-75 -40 -75 -102q0 -11 4 -35q4 -20 9.5 -29.5t15.5 -9.5t18.5 4.5t25.5 14.5q29 16 39 16q19 0 27 -14q-4 -28 -4 -50q0 -37 12 -108q10 -78 10 -107q0 -73 -41 -120q-106 -68 -237 -80q-54 0 -88 67q-12 88 -12 222q0 29 1 59l7 285 q-9 35 -19 45q-35 48 -83 48q-8 0 -15 -1q-30 -23 -111 -60q-91 -40 -129.5 -77t-38.5 -99z" />
<glyph unicode="v" horiz-adv-x="1185" d="M59 709q0 -43 72 -58q91 -22 105 -41q57 -69 126 -225q71 -161 125 -229q4 -12 13 -43t14.5 -47t16.5 -41.5t22.5 -39.5t29 -27t38.5 -17q90 44 229 155q4 12 4 19q0 17 -23 47q-33 39 -36 47q16 92 102 203q115 149 133 194q26 30 98 86q68 50 93 78q5 15 5 29 q0 24 -16 45q-21 12 -45 12q-19 0 -59 -12q-47 -14 -69 -16h-11q-25 0 -78 6q-78 10 -92 10q-33 0 -72 -17q3 -42 35 -88q37 -53 45 -82q-37 -148 -164 -313q-21 -9 -28 -4q-142 258 -195 373q-10 23 -24 78q-11 47 -31 73q-26 13 -51 13q-42 0 -101 -33q-69 -36 -98 -43 q-59 -31 -106 -60q-7 -21 -7 -32z" />
<glyph unicode="w" horiz-adv-x="1673" d="M78 748q0 69 51 86q78 -7 143 -7q113 0 189 21q47 -16 53 -39v-7q0 -66 -53 -181q-39 -82 -49 -174q-3 -24 -2 -48q0 -65 21 -127q29 -84 99 -120q33 -11 58 -11q77 0 141 52q53 95 53 233q0 77 -22 215q-3 6 -55 70q-35 44 -35 75q0 16 6 31q33 17 92 17q33 0 74 -5 q46 -7 83 -7q52 0 87 14q29 16 53 16t53 -16q6 -18 6 -39q0 -16 -5 -34t-15.5 -40t-18.5 -37t-23.5 -42t-21.5 -38q-16 -106 -16 -182q0 -133 41 -223q63 -72 141 -72q21 0 39 6q46 4 80.5 24t52.5 50.5t26.5 62.5t8.5 66q0 64 -39 180t-39 182q0 42 17 95q38 53 127 53 l42 -4q36 -2 60 -4q53 -12 59 -54q-3 -21 0 -51l5 -47q0 -31 -19 -53q-12 1 -23 1q-63 0 -83 -44q-4 -36 -4 -55q0 -40 16 -131q16 -94 16 -132q0 -64 -28 -122q-77 -151 -242 -175q-35 -1 -65 -1q-143 0 -195 12q-15 10 -38.5 24t-59.5 35t-64 37h-5q-36 0 -85 -41 q-56 -48 -86 -59q-102 -21 -184 -21q-212 0 -297 125q-86 89 -86 227q0 71 16.5 120t69.5 110q55 67 63 104q-3 43 -49 43h-6q-31 -10 -57 -10q-31 0 -54 14q-18 21 -18 52z" />
<glyph unicode="x" horiz-adv-x="1257" d="M70 104q-8 -30 -8 -50q0 -30 18 -40q16 -2 62.5 -7.5t70 -9t59 -11.5t61 -20t44.5 -29q24 -9 45 -9q58 0 61 99q4 106 45.5 166.5t85.5 80.5q8 -7 15.5 -14.5t14.5 -18t12.5 -18.5t12.5 -22t11 -21.5t11 -23.5t9.5 -22t9.5 -24t9 -22q2 -7 7.5 -26.5t9 -28.5t10.5 -21.5 t17 -17t23 -2.5q186 26 254 26q74 0 136 -16q27 6 48 28q18 19 18 41q0 4 -1 9q-9 55 -80 70q-104 19 -140.5 41t-94.5 106q-62 93 -101 137q-6 36 0 45q52 73 191 162q20 12 110 29q69 12 84 65q-9 43 -63 58q-80 16 -88 24q-25 11 -66 49q-35 35 -67 35q-15 0 -23 -2 q-30 -27 -39 -84q-8 -65 -14 -96l-68 -90q-43 -54 -84 -54h-4q-69 123 -69 185q0 30 12 65q-6 18 -59 35q-57 -31 -136 -31q-38 0 -145 17q-88 14 -139 14q-55 -23 -55 -59q0 -5 1 -10q3 -43 60 -52q71 -9 88 -22q76 -44 143 -152q76 -121 125 -157q0 -41 -26 -80 q-158 -146 -263 -176q-21 -15 -79 -21q-61 -6 -82 -27z" />
<glyph unicode="y" horiz-adv-x="1110" d="M53 782q0 -24 13 -47q15 -41 65 -41q15 0 27 2h24q38 0 54 -16q2 -22 -5 -45q-165 -143 -165 -344q0 -63 18 -125q86 -164 195 -170q89 -21 159 -21q158 0 250 99q25 14 39 14q13 0 21 -14q10 -55 10 -99q0 -138 -74 -233q-86 -83 -219 -86q-23 3 -49 35q-31 39 -39 47 q-76 31 -144 31q-41 0 -83 -17q-54 -51 -54 -96q0 -9 4 -25q76 -113 322 -116h5q130 0 257 57q130 58 221 158q82 143 82 372q0 88 -14 252q-11 140 -11 216q0 18 1 32q0 50 69 107q70 55 70 100q0 14 -2 20q-21 27 -60 27q-18 0 -63 -10q-55 -15 -77 -16q-3 -1 -7 -1 q-24 0 -84 9q-66 14 -96 14q-37 0 -64 -12q-10 -10 -10 -21q0 -26 49 -102q50 -78 60 -121q-2 -216 -11 -273q-13 -79 -65 -142q-3 -4 -6 -7q-66 -57 -138 -57q-18 0 -28 2q-80 34 -120 99t-40 134q0 19 4 43.5t8.5 43t15 50.5t15 46t18.5 51t17 45q0 24 8 65q6 47 6 68 q0 58 -33 84q-80 -4 -146 -4q-96 0 -163 8q-37 -15 -37 -70z" />
<glyph unicode="z" d="M47 14q10 -18 20 -21t54 -5q62 15 161 15q42 0 91 -3q71 -4 126 -4q80 0 128 8q26 4 57.5 4t69.5 -4q99 -12 125 -12q48 0 98 16q2 8 2 25q0 13 -29 98v119v21q0 55 13 102q0 3 -0.5 14t-1 15t-2 13t-3.5 13t-5.5 9.5t-8.5 7t-12 1.5q-31 -27 -121 -143 q-73 -92 -135 -132t-135 -40q-38 0 -76 12q-9 12 0 39q222 222 479 588q16 38 16 66q0 20 -8 34q-24 9 -53 9q-20 0 -100 -17q-57 -14 -97 -14h-14q-50 16 -106 16q-35 0 -117 -10l-109 -12q-8 -2 -24 -2q-31 0 -80 14t-76 14q-34 0 -57 -20q-4 -16 -4 -39q0 -40 12 -100 q-10 -97 -10 -159q0 -48 6 -75q9 -35 26 -35q8 0 19 11q108 142 137 178q88 94 189 94q17 0 45 -4q17 4 29 -11.5t7 -35.5q-38 -55 -143 -160q-85 -88 -135 -162q-29 -60 -133 -164q-93 -93 -115 -172z" />
<glyph unicode="{" horiz-adv-x="921" d="M80 680q0 -23 70 -66q80 -51 102 -79q6 -346 2 -500q-1 -108 58 -180t141 -74q207 -9 366 4q8 0 8.5 25.5t-5.5 53t-15 32.5q-70 21 -150 24q-41 11 -57 66q-8 63 -14 100q5 152 10 449q-21 27 -109 79q-75 43 -75 66q0 18 73 61q82 46 103 90q0 68 2 127q4 95 2 121 q-6 248 43 297q20 14 72.5 27t78.5 12q6 2 11 4.5t8.5 5t6 6.5t4.5 7t3 10t1.5 11.5t0 14.5t-0.5 16.5t-0.5 21t-0.5 24.5h-389q-172 0 -172 -469v-207q-20 -56 -104 -106q-74 -44 -74 -74z" />
<glyph unicode="|" horiz-adv-x="409" d="M129 -182h154v1716h-154v-1716z" />
<glyph unicode="}" horiz-adv-x="921" d="M96 -189.5q0 -25.5 8 -25.5q159 -13 367 -4q82 2 141 74t58 180q-4 154 2 500q22 28 102 79q70 43 70 66q0 30 -74 74q-84 50 -104 106v207q0 469 -172 469h-390q0 -10 -0.5 -24.5t-0.5 -21t-0.5 -16.5t0 -14.5t1.5 -11.5t3 -10t4.5 -7t6 -6.5t8.5 -5t11 -4.5 q26 2 79 -12t73 -27q49 -49 43 -297q-2 -26 2 -121q2 -59 2 -127q22 -45 102 -90q74 -44 74 -61q0 -23 -76 -66q-86 -51 -108 -79q5 -141 10 -449q-6 -37 -14 -100q-16 -54 -58 -66q-79 -3 -149 -24q-9 -5 -15 -32.5t-6 -53z" />
<glyph unicode="~" horiz-adv-x="921" d="M131 457q-7 -12 17 -30.5t45 -18.5q27 0 64.5 19.5t55.5 43.5q15 6 31 6q34 0 107 -37q68 -39 108 -39q23 0 41 9q73 21 124.5 76.5t57.5 123.5q1 20 -15.5 30t-37.5 5q-12 4 -18 4q-23 0 -49 -26q-30 -30 -44 -33q-40 3 -126 45q-79 39 -130 39q-32 0 -59 -12 q-56 -22 -104.5 -83t-67.5 -122z" />
<glyph horiz-adv-x="675" />
<glyph unicode="&#xa1;" horiz-adv-x="962" d="M43 45q0 -51 74 -51q52 0 131 20q56 17 100 27q134 -14 238 -14q112 0 164 22q32 15 41 19.5t34.5 19.5t35.5 25.5t21 29t13 39.5q-21 50 -107 66q-98 17 -126 39q-29 52 -23 112q-27 65 -27 152q0 29 6 123q6 76 3 123q-17 33 -35 100q-14 60 -41 94q-9 85 -53 82 q-42 9 -99 -51q-3 -6 -71 -80q-48 -54 -48 -94q0 -17 11 -43q8 -33 8 -78q0 -61 -23 -164l-37 -160q-7 -37 -14 -100q-5 -55 -14 -70q-10 -15 -65 -56l-40 -30q-57 -42 -57 -102zM315 1319q0 -65 43 -105q49 -32 119 -32q49 0 84 24q61 61 64 86q4 36 4 58q0 104 -56 145 q-37 16 -112 16q-51 0 -78 -12q-33 -36 -43 -59q-25 -80 -25 -121z" />
<glyph unicode="&#xa2;" d="M76 633q0 -52 10 -127q29 -99 117.5 -174.5t195.5 -95.5q73 -15 103 -17v-205q0 -22 59 -22q60 0 60 22v207q189 21 284 148q38 70 29 155h-27q-197 -102 -293 -102q-30 0 -57 6q-7 5 -30.5 19.5t-35 22t-29 20.5t-29.5 25t-21 24q-93 134 -93 245q0 41 17 90q6 47 39 73 t114 59q24 4 35 4q59 0 135 -76t134 -76q20 0 41 6q29 22 40 31t27.5 30.5t16.5 39.5q0 9 -7 26q-11 84 -53.5 104t-198.5 32q-25 2 -38 3v168q0 29 -62 29q-57 0 -57 -27v-167q-230 -37 -338 -207q-88 -113 -88 -293z" />
<glyph unicode="&#xa3;" horiz-adv-x="1413" d="M72 627q49 -90 112 -115q24 8 58 8q20 0 63 -6q44 -6 70 -6q28 0 37 -27q18 -43 20 -45q6 -55 -22.5 -71t-120.5 -11q-11 -4 -40 -13t-44 -15q-51 -23 -82 -78.5t-31 -122.5q0 -48 29 -98q69 -60 158 -60q51 0 100 21q40 0 92 43t84 43q18 0 33 -6q13 -16 88 -50 q44 -19 120 -31.5t117.5 -15t55.5 -2.5q170 0 229 115q33 33 75 181.5t36 189.5q-16 31 -35 28q-58 -34 -72 -96q-97 -111 -188 -147q-191 -9 -279 24q-6 -3 -39 17l-45 26q-14 20 -14 39q0 17 16 49q4 7 9.5 16t7 12l4.5 9t3.5 11.5t1 13t1.5 20.5q3 30 29 27q60 0 88 0.5 t79 8t74 22.5q25 53 0.5 89t-69.5 38q-74 4 -105 2l-43 -5q-32 0 -55 23q-57 168 -57 272q0 24 4 64q20 44 69 104.5t72 59.5q68 26 131 26q84 0 154 -49q23 -25 41 -117q-14 -122 -105 -157q-2 -5 -4.5 -12t-7 -26t1.5 -24q15 -34 59 -37q4 -1 22 -3.5t24.5 -3t23.5 1.5 t30 8t32.5 19t41.5 32q43 55 43 129q0 69 -32 129q-24 76 -107 129q-119 58 -143 71q-17 8 -47 11q-38 3 -50 12q-72 7 -204 -20.5t-183 -59.5q-30 -17 -92 -113t-82 -157q-14 -121 27 -256q2 -6 2 -19q0 -38 -53 -41q-128 11 -133 11q-48 0 -69 -9.5t-15 -29.5zM236 119 q-9 57 53 102l59 -12q30 -7 33 -37q3 -16 -33 -70q-85 -18 -112 17z" />
<glyph unicode="&#xa5;" horiz-adv-x="1658" d="M78 1303q17 38 55 38q17 0 57 -12t62 -12q14 0 20 2q89 -3 230 29q83 18 124 23.5t87 0.5t80 -27.5t77 -68.5q25 -48 25 -94q0 -38 -23 -68q-36 -49 -96 -57q-42 -3 -84 45q-2 2 -2 8q0 5 10 12q6 4 13 11q13 50 -6.5 86.5t-61.5 44.5q-71 0 -86 -54q-10 -27 -10 -49 q0 -11 2 -22.5t7.5 -25t10 -24t13 -26.5t13.5 -25t15.5 -27t14.5 -24q15 -30 64.5 -133t86.5 -178q15 -18 53 -4q57 94 129 254q27 61 52 115.5t45 96.5t24 50q-15 38 -69 143q-6 40 18 55q72 2 252 -53q2 2 131 2q75 0 121 -18q20 -23 4 -53q-4 -16 -28.5 -35t-46 -30 t-23.5 -11q-86 -68 -138 -209q-70 -197 -90 -231q-14 -25 -28 -62h35q95 19 151 -14q12 -6 12 -64q0 -76 -20 -76h-150q-51 -2 -100 -2q-14 -29 -53 -96q114 3 160 -6q95 19 151 -14q12 -6 12 -64q0 -76 -20 -76q-258 0 -326 -2q0 -155 37 -245q0 -9 8 -33q6 -27 6 -43 q0 -24 -12 -39q-181 -21 -262 22q-73 3 -131 -10q-75 -16 -107 -16h-22t-21.5 1t-23.5 4l-17.5 7.5t-15 13t-4.5 19.5q0 21 19 34t49 7q52 -1 65.5 8t50.5 66q23 38 23 84q0 2 -2 15.5t-6.5 44t-8.5 62.5h-202q-74 -2 -146 -2q-22 0 -22 93q0 41 5 54.5t21 16.5t47 0 q39 -2 64 -2q43 -5 119 -2q52 2 92 -2q-22 43 -62 102h-147q-55 -2 -117 -2q-22 0 -22 93q0 41 5 54.5t21 16.5t47 0q39 -2 64 -2q20 -2 80 -2q-42 100 -107 221q-99 187 -114 222q-47 96 -172 114q-32 16 -35 56zM928 618q-26 -39 2 -67q20 -14 57 10q90 173 141 293 q39 98 134 283q16 29 16 49q0 22 -25 31q-29 0 -36 -13q-52 -83 -156 -299q-43 -109 -133 -287z" />
<glyph unicode="&#xa6;" d="M51 162h922v921h-922v-921zM133 244v760h760v-760h-760z" />
<glyph unicode="&#xa8;" horiz-adv-x="1126" d="M223 1116q0 -47 41 -100q21 -21 62 -21q33 0 51 15q59 44 59 110q0 19 -6 37q-18 64 -104 64q-19 0 -29 -2q-34 -15 -61 -52q-13 -26 -13 -51zM643 1110q0 -51 27 -83t69 -32q39 0 60 15q59 44 59 110q0 19 -6 37q-18 64 -104 64q-19 0 -29 -2q-36 -16 -62 -52 q-14 -25 -14 -57z" />
<glyph unicode="&#xa9;" horiz-adv-x="1560" d="M84 762q3 -185 96 -341t251 -246t343 -87q137 1 261.5 55.5t214.5 146.5t142 218.5t50 265.5q-3 183 -96 339t-250.5 247t-341.5 90t-339.5 -94t-244.5 -251t-86 -343zM180 762q-1 117 45 225t123.5 186.5t184 126t221.5 48.5q157 1 292.5 -76t215.5 -209.5t81 -288.5 q1 -158 -75.5 -293t-209 -214t-288.5 -79q-158 0 -294 77t-215.5 209t-80.5 288zM385 770q0 -184 100 -288.5t252 -104.5q60 0 121.5 16t115 46t84.5 80.5t25 111.5q-7 7 -16 4q-117 -97 -160 -111q-20 0 -55 -2q-29 -3 -47 15q-11 32 -8 77q6 55 2 80q-7 37 -4 127 q3 83 0 121q-2 12 8 47q9 31 6 47q-16 -3 -51 -24q-41 -25 -56 -27q-76 -44 -122 -57q21 -43 47 -82q16 -170 16 -242q-3 -23 -12 -26q-45 33 -72 116q0 20 -6 76q-4 66 -4 76q0 93 43 145q49 87 168 96q28 -6 54.5 -24t45.5 -37t43 -53t36.5 -55t36 -63.5t32.5 -57.5 q33 -9 36 -6q-2 33 -10 104q-3 65 10 100q37 79 58 119q3 28 -17 39q-21 0 -47 -20q-33 -23 -51 -23q-37 0 -149 23q-107 22 -148 22q-107 0 -194 -90.5t-105 -206.5q-6 -47 -6 -88z" />
<glyph unicode="&#xab;" horiz-adv-x="819" d="M154 377q26 -69 77 -211q43 -123 54 -123q16 0 34 -2q16 -2 39 -2q24 0 37 8q11 4 11 16q0 13 -25 68q-27 50 -33 70q-8 25 -43 104q-29 69 -29 109q0 24 9 51q1 3 5.5 17.5t14 44.5t19.5 61q24 75 55 127q24 53 24 61q0 22 -36 19q-8 -1 -28 -2.5t-29.5 -2.5t-25 -5.5 t-22.5 -10.5t-12.5 -17.5t-5.5 -27.5q3 -26 -23 -82q-27 -52 -24 -86q-18 -21 -27 -61q-9 -45 -16 -72q-9 -27 0 -51zM432 377q31 -75 78 -211q46 -123 53 -123q17 0 35 -2q16 -2 39 -2q24 0 37 8q10 3 10 16q0 16 -25 64q-24 47 -32 74q-8 25 -43 104q-29 69 -29 109 q0 27 8 51q11 22 37 123q20 76 53 127q27 61 27 63q0 20 -35 17q-8 -1 -28 -2.5t-29.5 -2.5t-25 -5.5t-22.5 -10.5t-12.5 -17.5t-5.5 -27.5q3 -28 -22 -82q-28 -54 -25 -86q-17 -20 -26 -61q-5 -22 -17 -72q-9 -27 0 -51z" />
<glyph unicode="&#xad;" horiz-adv-x="675" d="M98 547q0 -101 25 -101h405q25 0 25 95q0 67 -14 75q-39 20 -133 2q-137 15 -201 9q-6 -1 -49 2q-26 3 -41 -6q-17 -10 -17 -76z" />
<glyph unicode="&#xae;" horiz-adv-x="1560" d="M84 762q3 -185 96 -341t251 -246t343 -87q137 1 261.5 55.5t214.5 146.5t142 218.5t50 265.5q-3 183 -96 339t-250.5 247t-341.5 90t-339.5 -94t-244.5 -251t-86 -343zM180 762q-1 117 45 225t123.5 186.5t184 126t221.5 48.5q157 1 292.5 -76t215.5 -209.5t81 -288.5 q1 -158 -75.5 -293t-209 -214t-288.5 -79q-158 0 -294 77t-215.5 209t-80.5 288zM369 465q12 -22 61 -19l33 5q41 14 96 14q25 0 127 -10q80 -9 127 -6q18 12 18 14q-1 15 -14 28t-24.5 19t-33.5 15q-5 2 -7 3q-3 71 -2 80q2 7 -5 47q-6 25 5 43q23 38 88 35q23 -15 30 -31 q2 -21 29 -100q23 -67 23 -102q0 -19 -2 -29q19 -25 49 -25q15 0 49 9q31 8 47 8q35 -1 119 -8q27 18 20 34q-6 18 -33 21q-35 3 -41 6q-16 6 -26.5 17t-24.5 38q-49 154 -53 164q3 23 27 41l43 33q39 51 36 180q-51 81 -79 105q-58 30 -110.5 36.5t-195.5 6.5 q-37 0 -102 -27q-69 -29 -100 -29q-9 0 -29 4q-25 7 -33 50q-31 0 -80 -11q-49 -27 -28 -98q21 -37 71 -37q2 0 48 4q37 4 45 2q9 4 48 21t56 23.5t47.5 17.5t54 15.5t45.5 4.5q37 0 64 -8q22 -1 37.5 -8.5t44.5 -28.5q41 -38 41 -92t-33.5 -92t-87.5 -49q-23 -1 -38.5 1 t-33.5 9.5t-27.5 26t-9.5 47.5q0 15 11 61l14 57q-17 2 -92 -20q-88 -70 -213 -70q-31 0 -47 2q-14 -5 -15 -6q0 -29 7 -33q80 -41 77 -120q-10 -150 -10 -203q-3 -33 -53 -45q-49 -15 -55 -41zM616 690q8 25 2 98q-6 57 11 95q21 21 45 12l4 -8q0 -6 2 -8q9 -240 4 -342 q-5 -5 -31 -5q-37 34 -37 158z" />
<glyph unicode="&#xaf;" horiz-adv-x="860" d="M70 991h684v111h-684v-111z" />
<glyph unicode="&#xb0;" horiz-adv-x="614" d="M45 1225q0 -88 63.5 -150.5t153.5 -62.5q86 0 146.5 58t60.5 140q0 93 -64.5 159.5t-154.5 66.5q-91 0 -148 -58.5t-57 -152.5zM162 1223q0 100 96 100q98 0 98 -106q0 -42 -26.5 -69.5t-67.5 -27.5q-44 0 -72 29t-28 74z" />
<glyph unicode="&#xb4;" horiz-adv-x="921" d="M416 993h88q16 0 33 17q162 159 192 202q18 27 -6 27h-154q-9 0 -24 -18q-102 -133 -129 -199q-13 -29 0 -29z" />
<glyph unicode="&#xb6;" horiz-adv-x="1177" d="M68 1141q-8 -235 83 -348t287 -113q49 0 88 8q50 6 60.5 -45.5t9.5 -229.5v-83q0 -189 -29 -226q-6 -1 -22 -4.5t-24 -5.5t-20.5 -6.5t-19 -10t-11.5 -14.5t-5 -20q0 -38 22 -47q405 8 547 4q15 6 15 23q0 4 -13 43q-41 27 -71 104q0 121 8 457q6 343 6 452q4 2 10 2 q14 0 39 -22q24 -24 41 -27q41 3 41 41q3 55 -51 103q-30 25 -48.5 42.5t-29 28.5t-13.5 22.5t-3 17t3.5 19.5t4.5 23q6 41 6 55q0 30 -12 64q-14 6 -59 17t-52 10q-4 -20 -4 -166q-7 3 -76 24q-44 14 -63 56q0 32 2 59t2 61q-15 12 -115 27q-4 -6 -10 -12q-3 -30 0 -64 q2 -18 -2 -63q-68 19 -121 22l-164 -18q-90 -18 -137 -74q-60 -54 -100 -186zM225 989q35 108 37 113q52 118 191 139q100 0 129 -29q-4 -57 4 -122q10 -95 10 -115q0 -100 -64 -158q-23 -23 -51.5 -29t-93.5 -8q-129 37 -147 152q-4 12 -4 26q0 16 -11 31zM705 229 q0 35 16 72q8 24 8 78q0 53 -12 170t-12 153q0 8 47 46q45 36 48 67t-36 49q-39 14 -39 27q-10 120 -10 280l73 -12q46 -11 57 -36.5t11 -90.5q0 -40 -6 -114q-6 -76 -6 -101q24 -40 24 -201q0 -168 -22 -393q3 -26 -6 -63l-13 -45h-96q-26 68 -26 114z" />
<glyph unicode="&#xb7;" horiz-adv-x="512" d="M115 750q13 -48 52.5 -86.5t86.5 -38.5q55 0 99 45.5t44 101.5q0 39 -20 72q-47 59 -131 59q-55 0 -88 -33q-25 -16 -33 -41.5t-10 -78.5z" />
<glyph unicode="&#xb8;" horiz-adv-x="921" d="M313 -389q0 -19 15 -19q83 0 176.5 38.5t116.5 97.5q18 49 18 77q0 54 -72 95q-19 6 -28 9.5t-20 12t-11 19.5q0 6 4 18q19 28 16 31q-2 2 -69 2q-17 -1 -35 -47t-18 -84q0 -29 16 -29q57 0 57 -49q0 -45 -43 -85t-98 -40q-25 0 -25 -47z" />
<glyph unicode="&#xbb;" horiz-adv-x="819" d="M147 63q0 -24 48 -24q23 0 41 2q16 2 32 2q8 0 54 123q52 150 77 211q9 24 0 51q-7 27 -16 72q-9 40 -27 61q3 32 -22 86q-28 54 -25 82q0 16 -5.5 27.5t-12.5 17.5t-22.5 10.5t-25 5.5t-29.5 2.5t-28 2.5q-34 3 -34 -17q0 -4 26 -63q33 -51 53 -127q26 -101 37 -123 q8 -24 8 -51q0 -42 -28 -109q-35 -79 -43 -104q-6 -22 -33 -74q-25 -48 -25 -64zM426 63q0 -24 47 -24q23 0 41 2q16 2 35 2q7 0 51 123q27 75 78 211q9 24 0 51q-7 27 -16 72q-9 40 -27 61q3 30 -23 86q-27 52 -24 82q0 16 -5.5 27.5t-12.5 17.5t-22.5 10.5t-25 5.5 t-29.5 2.5t-28 2.5q-37 3 -37 -19q0 -6 29 -59q27 -53 51 -129q10 -31 19.5 -61t14 -44.5t5.5 -17.5q8 -24 8 -51q0 -40 -29 -109q-35 -79 -43 -104q-6 -20 -30 -70q-27 -53 -27 -68z" />
<glyph unicode="&#xbf;" horiz-adv-x="1576" d="M72 479q0 -173 110 -286q31 -54 119.5 -104.5t183 -76t148.5 -16.5q32 4 51 4q6 0 68 -4q58 -4 65 -4q51 0 98 18q37 13 121 10q77 -3 119 25q103 33 215 64q119 49 119 170q0 20 -10 98q-9 62 -6 86q9 113 -7 168q-9 26 -24 26q-9 0 -22 -7.5t-30 -23t-33.5 -32 t-38.5 -43t-39 -47t-42 -52.5t-39.5 -51.5t-39 -52t-34.5 -45.5q-16 -16 -37 -16q-24 0 -40 22q-4 28 -97 246q-89 204 -92 250q21 77 78 86q42 28 45 139q-18 53 -88 74q-105 26 -119 37q-12 23 -41 41q-32 19 -41 47q-20 20 -35 20q-20 0 -34 -32q-21 -46 -33 -58 q-197 -179 -234 -198q-241 -177 -276 -386q-8 -44 -8 -96zM424 344q0 49 33 105q56 86 59 92q33 20 53 20q22 0 31 -20q16 -6 62.5 -141.5t54.5 -188.5q-3 -30 -68 -45q-46 -5 -106.5 25.5t-100.5 82.5q-18 35 -18 70zM727 680q22 22 53 0q36 -44 90 -158t48 -137 q4 -16 24 -66q23 -58 23 -77q0 -46 -70 -37q-42 12 -88 114l-68 166q-46 101 -12 195zM801 1321q0 -41 18 -76q59 -80 162 -80q27 0 57 6q37 27 82 62q27 47 27 92q0 65 -41 116t-92 56q-80 5 -113.5 -2.5t-60.5 -46.5q-39 -68 -39 -127z" />
<glyph unicode="&#xc0;" horiz-adv-x="2009" d="M124 41.5q0 -16.5 5 -24.5t19.5 -12t23 -4.5t26.5 -0.5h7q22 0 84 10t86 10q34 0 65 -8q40 3 121 -10q71 -14 113 -14q64 0 117 24q14 8 14 23q0 36 -47 57l-131 58q-74 44 -74 114q3 45 63 105q38 12 84 12q4 0 74 -4t80 -4q50 -13 98 -13q40 0 142 13q92 12 139 12 q82 0 149 -31q43 -46 43 -108q0 -28 -10 -58q-46 -55 -92 -55q-14 0 -20 2q-69 -9 -72 -74q-3 -34 33 -47q89 -28 209 -28q48 0 188 10t188 10q78 0 140 -12q26 -7 45.5 18.5t13.5 57.5q-27 52 -104 82q-33 13 -66 26.5t-45.5 18.5t-13.5 6q-59 112 -111 280q-5 19 -19 68 t-18.5 66t-17 58.5t-19.5 63.5t-20 62t-25.5 72.5t-29 77t-35.5 93.5q-69 182 -90 273q20 4 30 4q48 0 115 -55q82 -70 113 -78q17 -7 75 -62q44 -41 82 -41q54 9 39 72q-6 10 -43.5 73t-52 86t-44 70t-52 78t-43.5 56q-11 14 -43 14q-21 0 -185 -45q-9 0 -391 -4 q-246 -3 -375 -12q-9 2 -81 32q-58 25 -80 25q-21 0 -31 -17q-125 -249 -156 -317q-16 -40 -16 -55q0 -41 45 -41q27 0 57 35q31 36 54 53q6 4 44.5 30.5t53 35t44 26t51 24.5t40.5 9q10 -17 10 -35q0 -21 -14 -53q-14 -35 -14 -58q-58 -120 -123 -360q-72 -261 -117 -365 q-44 -231 -180 -307q-86 -42 -113 -53q-9 -24 -9 -40.5zM698 612q-12 116 74 160q126 15 455 6q35 -8 71 -88q9 -27 9 -55q0 -67 -47 -82q-75 -16 -158 -16q-42 0 -121 6q-106 4 -117 4q-48 0 -88 -6q-4 2 -15.5 7t-16 7.5t-14 7.5t-14 9t-10 10.5t-7 13.5t-1.5 16z M782 1839q30 -43 193 -203q16 -16 33 -16h88q13 0 0 29q-26 64 -129 198q-16 19 -25 19h-154q-24 0 -6 -27zM805 1010q0 29 31 96q29 62 32 100q2 44 32.5 85t92.5 52q34 3 58 -24l36 -53q63 -197 84 -254q5 -15 5 -17q0 -37 -43 -49q-47 3 -113 0q-85 -6 -105 -6 q-42 0 -90 10q-20 26 -20 60z" />
<glyph unicode="&#xc1;" horiz-adv-x="2009" d="M124 41.5q0 -16.5 5 -24.5t19.5 -12t23 -4.5t26.5 -0.5h7q22 0 84 10t86 10q34 0 65 -8q40 3 121 -10q71 -14 113 -14q64 0 117 24q14 8 14 23q0 36 -47 57l-131 58q-74 44 -74 114q3 45 63 105q38 12 84 12q4 0 74 -4t80 -4q50 -13 98 -13q40 0 142 13q92 12 139 12 q82 0 149 -31q43 -46 43 -108q0 -28 -10 -58q-46 -55 -92 -55q-14 0 -20 2q-69 -9 -72 -74q-3 -34 33 -47q89 -28 209 -28q48 0 188 10t188 10q78 0 140 -12q26 -7 45.5 18.5t13.5 57.5q-27 52 -104 82q-33 13 -66 26.5t-45.5 18.5t-13.5 6q-59 112 -111 280q-5 19 -19 68 t-18.5 66t-17 58.5t-19.5 63.5t-20 62t-25.5 72.5t-29 77t-35.5 93.5q-69 182 -90 273q20 4 30 4q48 0 115 -55q82 -70 113 -78q17 -7 75 -62q44 -41 82 -41q54 9 39 72q-6 10 -43.5 73t-52 86t-44 70t-52 78t-43.5 56q-11 14 -43 14q-21 0 -185 -45q-9 0 -391 -4 q-246 -3 -375 -12q-9 2 -81 32q-58 25 -80 25q-21 0 -31 -17q-125 -249 -156 -317q-16 -40 -16 -55q0 -41 45 -41q27 0 57 35q31 36 54 53q6 4 44.5 30.5t53 35t44 26t51 24.5t40.5 9q10 -17 10 -35q0 -21 -14 -53q-14 -35 -14 -58q-58 -120 -123 -360q-72 -261 -117 -365 q-44 -231 -180 -307q-86 -42 -113 -53q-9 -24 -9 -40.5zM698 612q-12 116 74 160q126 15 455 6q35 -8 71 -88q9 -27 9 -55q0 -67 -47 -82q-75 -16 -158 -16q-42 0 -121 6q-106 4 -117 4q-48 0 -88 -6q-4 2 -15.5 7t-16 7.5t-14 7.5t-14 9t-10 10.5t-7 13.5t-1.5 16z M805 1010q0 29 31 96q29 62 32 100q2 44 32.5 85t92.5 52q34 3 58 -24l36 -53q63 -197 84 -254q5 -15 5 -17q0 -37 -43 -49q-47 3 -113 0q-85 -6 -105 -6q-42 0 -90 10q-20 26 -20 60zM1020 1620h88q17 0 33 16q160 157 192 203q18 27 -6 27h-153q-9 0 -25 -19 q-103 -134 -129 -198q-13 -29 0 -29z" />
<glyph unicode="&#xc2;" horiz-adv-x="2009" d="M124 41.5q0 -16.5 5 -24.5t19.5 -12t23 -4.5t26.5 -0.5h7q22 0 84 10t86 10q34 0 65 -8q40 3 121 -10q71 -14 113 -14q64 0 117 24q14 8 14 23q0 36 -47 57l-131 58q-74 44 -74 114q3 45 63 105q38 12 84 12q4 0 74 -4t80 -4q50 -13 98 -13q40 0 142 13q92 12 139 12 q82 0 149 -31q43 -46 43 -108q0 -28 -10 -58q-46 -55 -92 -55q-14 0 -20 2q-69 -9 -72 -74q-3 -34 33 -47q89 -28 209 -28q48 0 188 10t188 10q78 0 140 -12q26 -7 45.5 18.5t13.5 57.5q-27 52 -104 82q-33 13 -66 26.5t-45.5 18.5t-13.5 6q-59 112 -111 280q-5 19 -19 68 t-18.5 66t-17 58.5t-19.5 63.5t-20 62t-25.5 72.5t-29 77t-35.5 93.5q-69 182 -90 273q20 4 30 4q48 0 115 -55q82 -70 113 -78q17 -7 75 -62q44 -41 82 -41q54 9 39 72q-6 10 -43.5 73t-52 86t-44 70t-52 78t-43.5 56q-11 14 -43 14q-21 0 -185 -45q-9 0 -391 -4 q-246 -3 -375 -12q-9 2 -81 32q-58 25 -80 25q-21 0 -31 -17q-125 -249 -156 -317q-16 -40 -16 -55q0 -41 45 -41q27 0 57 35q31 36 54 53q6 4 44.5 30.5t53 35t44 26t51 24.5t40.5 9q10 -17 10 -35q0 -21 -14 -53q-14 -35 -14 -58q-58 -120 -123 -360q-72 -261 -117 -365 q-44 -231 -180 -307q-86 -42 -113 -53q-9 -24 -9 -40.5zM698 612q-12 116 74 160q126 15 455 6q35 -8 71 -88q9 -27 9 -55q0 -67 -47 -82q-75 -16 -158 -16q-42 0 -121 6q-106 4 -117 4q-48 0 -88 -6q-4 2 -15.5 7t-16 7.5t-14 7.5t-14 9t-10 10.5t-7 13.5t-1.5 16z M748 1636q0 -18 77 -18q74 0 95 12q54 48 77 101q3 6 27 6q21 0 29 -4q43 -52 71 -103q9 -12 80 -12q90 0 90 22q0 7 -4 11q-117 137 -174 186q-31 16 -85.5 15t-82.5 -9q-40 -26 -102 -94q-64 -74 -92 -102q-6 -6 -6 -11zM805 1010q0 29 31 96q29 62 32 100q2 44 32.5 85 t92.5 52q34 3 58 -24l36 -53q63 -197 84 -254q5 -15 5 -17q0 -37 -43 -49q-47 3 -113 0q-85 -6 -105 -6q-42 0 -90 10q-20 26 -20 60z" />
<glyph unicode="&#xc3;" horiz-adv-x="2009" d="M124 41.5q0 -16.5 5 -24.5t19.5 -12t23 -4.5t26.5 -0.5h7q22 0 84 10t86 10q34 0 65 -8q40 3 121 -10q71 -14 113 -14q64 0 117 24q14 8 14 23q0 36 -47 57l-131 58q-74 44 -74 114q3 45 63 105q38 12 84 12q4 0 74 -4t80 -4q50 -13 98 -13q40 0 142 13q92 12 139 12 q82 0 149 -31q43 -46 43 -108q0 -28 -10 -58q-46 -55 -92 -55q-14 0 -20 2q-69 -9 -72 -74q-3 -34 33 -47q89 -28 209 -28q48 0 188 10t188 10q78 0 140 -12q26 -7 45.5 18.5t13.5 57.5q-27 52 -104 82q-33 13 -66 26.5t-45.5 18.5t-13.5 6q-59 112 -111 280q-5 19 -19 68 t-18.5 66t-17 58.5t-19.5 63.5t-20 62t-25.5 72.5t-29 77t-35.5 93.5q-69 182 -90 273q20 4 30 4q48 0 115 -55q82 -70 113 -78q17 -7 75 -62q44 -41 82 -41q54 9 39 72q-6 10 -43.5 73t-52 86t-44 70t-52 78t-43.5 56q-11 14 -43 14q-21 0 -185 -45q-9 0 -391 -4 q-246 -3 -375 -12q-9 2 -81 32q-58 25 -80 25q-21 0 -31 -17q-125 -249 -156 -317q-16 -40 -16 -55q0 -41 45 -41q27 0 57 35q31 36 54 53q6 4 44.5 30.5t53 35t44 26t51 24.5t40.5 9q10 -17 10 -35q0 -21 -14 -53q-14 -35 -14 -58q-58 -120 -123 -360q-72 -261 -117 -365 q-44 -231 -180 -307q-86 -42 -113 -53q-9 -24 -9 -40.5zM698 612q-12 116 74 160q126 15 455 6q35 -8 71 -88q9 -27 9 -55q0 -67 -47 -82q-75 -16 -158 -16q-42 0 -121 6q-106 4 -117 4q-48 0 -88 -6q-4 2 -15.5 7t-16 7.5t-14 7.5t-14 9t-10 10.5t-7 13.5t-1.5 16z M719 1677q-4 -11 16 -20.5t41 -9.5q59 0 86 41q15 6 31 6q33 0 106 -37t111 -37q25 0 41 8q66 19 112 73.5t52 121.5q1 16 -12.5 22.5t-32.5 1.5q-12 4 -17 4q-19 0 -41 -28q-22 -32 -38 -35q-41 3 -127 45q-79 39 -129 39q-26 0 -56 -10q-95 -59 -143 -185zM805 1010 q0 29 31 96q29 62 32 100q2 44 32.5 85t92.5 52q34 3 58 -24l36 -53q63 -197 84 -254q5 -15 5 -17q0 -37 -43 -49q-47 3 -113 0q-85 -6 -105 -6q-42 0 -90 10q-20 26 -20 60z" />
<glyph unicode="&#xc4;" horiz-adv-x="2009" d="M124 41.5q0 -16.5 5 -24.5t19.5 -12t23 -4.5t26.5 -0.5h7q22 0 84 10t86 10q34 0 65 -8q40 3 121 -10q71 -14 113 -14q64 0 117 24q14 8 14 23q0 36 -47 57l-131 58q-74 44 -74 114q3 45 63 105q38 12 84 12q4 0 74 -4t80 -4q50 -13 98 -13q40 0 142 13q92 12 139 12 q82 0 149 -31q43 -46 43 -108q0 -28 -10 -58q-46 -55 -92 -55q-14 0 -20 2q-69 -9 -72 -74q-3 -34 33 -47q89 -28 209 -28q48 0 188 10t188 10q78 0 140 -12q26 -7 45.5 18.5t13.5 57.5q-27 52 -104 82q-33 13 -66 26.5t-45.5 18.5t-13.5 6q-59 112 -111 280q-5 19 -19 68 t-18.5 66t-17 58.5t-19.5 63.5t-20 62t-25.5 72.5t-29 77t-35.5 93.5q-69 182 -90 273q20 4 30 4q48 0 115 -55q82 -70 113 -78q17 -7 75 -62q44 -41 82 -41q54 9 39 72q-6 10 -43.5 73t-52 86t-44 70t-52 78t-43.5 56q-11 14 -43 14q-21 0 -185 -45q-9 0 -391 -4 q-246 -3 -375 -12q-9 2 -81 32q-58 25 -80 25q-21 0 -31 -17q-125 -249 -156 -317q-16 -40 -16 -55q0 -41 45 -41q27 0 57 35q31 36 54 53q6 4 44.5 30.5t53 35t44 26t51 24.5t40.5 9q10 -17 10 -35q0 -21 -14 -53q-14 -35 -14 -58q-58 -120 -123 -360q-72 -261 -117 -365 q-44 -231 -180 -307q-86 -42 -113 -53q-9 -24 -9 -40.5zM698 612q-12 116 74 160q126 15 455 6q35 -8 71 -88q9 -27 9 -55q0 -67 -47 -82q-75 -16 -158 -16q-42 0 -121 6q-106 4 -117 4q-48 0 -88 -6q-4 2 -15.5 7t-16 7.5t-14 7.5t-14 9t-10 10.5t-7 13.5t-1.5 16z M717 1743q0 -48 41 -101q20 -20 61 -20q34 0 51 14q60 45 60 111q0 19 -6 37q-18 63 -105 63q-18 0 -28 -2q-37 -16 -62 -51q-12 -24 -12 -51zM805 1010q0 29 31 96q29 62 32 100q2 44 32.5 85t92.5 52q34 3 58 -24l36 -53q63 -197 84 -254q5 -15 5 -17q0 -37 -43 -49 q-47 3 -113 0q-85 -6 -105 -6q-42 0 -90 10q-20 26 -20 60zM1137 1737q0 -51 27 -83t69 -32q39 0 59 14q60 45 60 111q0 19 -6 37q-18 63 -105 63q-19 0 -29 -2q-35 -15 -61 -51q-14 -25 -14 -57z" />
<glyph unicode="&#xc5;" horiz-adv-x="2009" d="M124 41.5q0 -16.5 5 -24.5t19.5 -12t23 -4.5t26.5 -0.5h7q22 0 84 10t86 10q34 0 65 -8q40 3 121 -10q71 -14 113 -14q64 0 117 24q14 8 14 23q0 36 -47 57l-131 58q-74 44 -74 114q3 45 63 105q38 12 84 12q4 0 74 -4t80 -4q50 -13 98 -13q40 0 142 13q92 12 139 12 q82 0 149 -31q43 -46 43 -108q0 -28 -10 -58q-46 -55 -92 -55q-14 0 -20 2q-69 -9 -72 -74q-3 -34 33 -47q89 -28 209 -28q48 0 188 10t188 10q78 0 140 -12q26 -7 45.5 18.5t13.5 57.5q-27 52 -104 82q-33 13 -66 26.5t-45.5 18.5t-13.5 6q-59 112 -111 280q-5 19 -19 68 t-18.5 66t-17 58.5t-19.5 63.5t-20 62t-25.5 72.5t-29 77t-35.5 93.5q-69 182 -90 273q20 4 30 4q48 0 115 -55q82 -70 113 -78q17 -7 75 -62q44 -41 82 -41q54 9 39 72q-6 10 -43.5 73t-52 86t-44 70t-52 78t-43.5 56q-11 14 -43 14q-21 0 -185 -45q-9 0 -391 -4 q-246 -3 -375 -12q-9 2 -81 32q-58 25 -80 25q-21 0 -31 -17q-125 -249 -156 -317q-16 -40 -16 -55q0 -41 45 -41q27 0 57 35q31 36 54 53q6 4 44.5 30.5t53 35t44 26t51 24.5t40.5 9q10 -17 10 -35q0 -21 -14 -53q-14 -35 -14 -58q-58 -120 -123 -360q-72 -261 -117 -365 q-44 -231 -180 -307q-86 -42 -113 -53q-9 -24 -9 -40.5zM698 612q-12 116 74 160q126 15 455 6q35 -8 71 -88q9 -27 9 -55q0 -67 -47 -82q-75 -16 -158 -16q-42 0 -121 6q-106 4 -117 4q-48 0 -88 -6q-4 2 -15.5 7t-16 7.5t-14 7.5t-14 9t-10 10.5t-7 13.5t-1.5 16z M805 1010q0 29 31 96q29 62 32 100q2 44 32.5 85t92.5 52q34 3 58 -24l36 -53q63 -197 84 -254q5 -15 5 -17q0 -37 -43 -49q-47 3 -113 0q-85 -6 -105 -6q-42 0 -90 10q-20 26 -20 60zM893 1726q0 -42 18 -79q60 -78 140 -78q63 0 127 73q22 28 22 66q0 36 -20 86 q-39 63 -129 78q-94 -27 -136 -66q-22 -36 -22 -80zM977 1706q-12 51 61 78q80 0 80 -76q0 -17 -2 -27q-27 -27 -84 -30q-37 9 -55 55z" />
<glyph unicode="&#xc6;" horiz-adv-x="2836" d="M97 41.5q0 -16.5 5 -24.5t19.5 -12t23 -4.5t26.5 -0.5h7q22 0 84 10t86 10q35 0 66 -8q40 3 121 -10q71 -14 112 -14q65 0 117 24q14 8 14 23q0 36 -47 57l-131 58q-74 44 -74 114q3 44 64 105q38 12 84 12q4 0 74 -4t79 -4q50 -13 99 -13q39 0 141 13q91 12 139 12 q83 0 150 -31q43 -46 43 -108q0 -28 -10 -58q-46 -55 -93 -55q-14 0 -20 2q-69 -9 -72 -74q-3 -34 33 -47q92 -28 211 -28q34 0 97.5 3.5t128.5 8t73 4.5q146 -55 293 -55q135 0 250 47q40 7 106 45q65 35 101 35q16 0 22 -2q10 -20 49 -170q26 -102 80 -156q52 -27 113 -27 q59 0 112 27q78 84 78 162q0 24 -10 51q-19 16 -66 16q-51 3 -71 13l-66 57q-34 27 -47 64q-72 191 -72 475q0 15 0.5 43t1.5 79.5t2 92.5q4 190 3 221q4 32 13.5 70.5t18.5 68t28 78t28.5 71t33 77.5t29.5 69q-1 2 -1.5 5t-1 7.5t-1.5 8.5q-1 3 -2 9.5t-2 8.5 q-23 10 -43 10q-36 0 -86 -33q-49 -29 -91.5 -37t-109.5 -8q-145 0 -231 50q-71 14 -168 14q-78 0 -238 -16q-167 -60 -221 -97q-80 -74 -141 -172l-33 113q-46 166 -119 172q-442 0 -655 -16q-11 2 -82 32q-58 25 -80 25q-21 0 -31 -17q-116 -231 -155 -317 q-17 -42 -17 -55q0 -41 45 -41q28 0 58 35q33 38 53 53q6 4 44.5 30.5t53 35t44 26t51 24.5t40.5 9q11 -18 11 -35q0 -18 -15 -53q-14 -35 -14 -58q-59 -120 -123 -360q-72 -261 -117 -365q-44 -231 -180 -307q-86 -42 -113 -53q-9 -24 -9 -40.5zM672 612q-12 117 73 160 q126 15 455 6q36 -8 72 -88q8 -24 8 -55q0 -67 -47 -82q-75 -16 -170 -16q-19 0 -125 4t-115 4q-33 0 -73 -4q-4 2 -15.5 7t-16 7.5t-14 7.5t-14 9t-10 10.5t-7 13.5t-1.5 16zM778 1010q0 29 31 96q30 65 33 100q2 44 32.5 85t92.5 52q33 3 57 -24l37 -53q63 -197 84 -254 q4 -12 4 -17q0 -37 -43 -49q-47 3 -113 0q-86 -6 -104 -6q-42 0 -90 10q-21 27 -21 60zM1673 637q9 361 113 584l14 6q8 2 13 -0.5t4 -9.5q-7 -116 -7 -222q0 -57 7 -276q4 -250 4 -281q0 -68 -4 -174q-3 -8 -15 -8q-13 0 -16 8q-12 17 -23 38.5t-21 51.5l-16.5 49.5 t-15.5 60t-12.5 55t-13 62.5t-11.5 56zM1948 1094q0 141 49 229q39 28 65 36.5t56 8.5q140 0 249 -151q142 -198 142 -508q0 -123 -29 -258q-101 -299 -315 -340q-76 -13 -97 -13q-63 0 -86 33q-30 95 -24 252q6 202 0 254q57 31 141 4q52 -16 164 -102q10 -15 23 -58 q12 -39 36 -39q7 0 19 4q26 26 31 39q4 83 2 213q0 145 8 213q0 5 -0.5 18t-1 19.5t-2 17.5t-4 17.5t-6.5 14t-10 12t-15 6.5q-10 -9 -57 -51.5t-67.5 -58.5t-59.5 -44t-72 -39t-66 -12q-29 -4 -45 14t-18 56q0 20 -6 108q-4 86 -4 105z" />
<glyph unicode="&#xc7;" horiz-adv-x="1507" d="M74 741q0 85 12 174q41 319 338 521q115 77 268 77q103 0 297 -43q203 -46 301 -49q38 3 99 43t100 43q40 -26 31 -77q-46 -87 -113 -238q-23 -71 -23 -152q0 -30 5 -88t11.5 -115.5t6.5 -58.5q-8 -8 -18 -8q1 0 -5 2t-20.5 7t-34.5 12q-48 60 -133 223 q-89 168 -167 250.5t-198 111.5q-237 -9 -339 -194q-86 -109 -86 -295q0 -68 8 -152q4 -44 7 -96t3 -55q59 -167 145 -238q4 1 7 2.5t5.5 4.5t4 5t3 6t2 6.5t1 8t1 7t1 8t0.5 7.5q0 176 -33 490q-12 26 -47 80q-40 55 -47 84q37 22 127 51q85 29 121 65q42 9 110 54 q66 43 105 49q4 -20 4 -29q0 -21 -19 -76q-17 -50 -14 -86q7 -55 4 -176l-6 -182q0 -43 8 -100q6 -65 6 -99q0 -10 -4 -80q-6 -56 -6 -84q0 -49 17 -98q33 -33 81 -33q7 0 58 7q47 6 67 4q73 26 121 58.5t169 133.5q22 19 34 29q3 -3 20 4q12 3 15 -10q9 -99 -31 -185 t-112 -145t-166.5 -101.5t-193.5 -62.5t-194 -20h-2q3 -3 -16 -31q-4 -12 -4 -18q0 -11 11 -19.5t20 -12t28 -9.5q72 -41 72 -95q0 -28 -18 -77q-23 -59 -116.5 -97.5t-176.5 -38.5q-15 0 -15 19q0 47 25 47q55 0 98 40t43 85q0 49 -57 49q-16 0 -16 29q0 38 18 84t35 47h14 q-139 10 -257.5 67t-208 155t-140.5 245.5t-51 328.5z" />
<glyph unicode="&#xc8;" horiz-adv-x="1630" d="M84 692q0 -172 85.5 -339.5t229.5 -280.5q210 -125 439 -125q132 0 247 47q40 6 107 45q65 35 102 35q15 0 21 -2q10 -20 49 -170q26 -102 80 -156q52 -27 112 -27t113 27q78 84 78 162q0 24 -10 51q-15 15 -68 18q-48 0 -70 11q-5 4 -20.5 17.5t-23 19.5t-20.5 18.5 t-20.5 21.5t-15.5 21t-12 23q-70 186 -70 475q0 15 0.5 43t1.5 79.5t2 92.5q3 138 0 221q5 38 14.5 78.5t30.5 96t31 80.5t41 97.5t35 81.5q-1 2 -1.5 5t-1 7.5t-1.5 8.5q-1 3 -2 9.5t-2 8.5q-23 10 -43 10q-36 0 -86 -33q-49 -29 -91 -37t-110 -8q-142 0 -231 50 q-71 14 -168 14q-78 0 -238 -16q-167 -60 -221 -97q-129 -122 -211 -313t-82 -371zM469 637q9 361 113 584l14 6q11 2 14 -0.5t2 -9.5q-6 -99 -6 -222q0 -89 6 -276q4 -250 4 -281q0 -68 -4 -174q0 -8 -14 -8q-13 0 -16 8q-43 64 -70 178zM547 1843q32 -46 192 -203 q16 -16 33 -16h88q13 0 0 29q-26 64 -129 198q-16 19 -24 19h-154q-24 0 -6 -27zM743 1094q0 140 50 229q39 28 64.5 36.5t55.5 8.5q141 0 250 -151q142 -198 142 -508q0 -123 -29 -258q-101 -299 -315 -340q-76 -13 -97 -13q-60 0 -86 33q-27 95 -24 252q6 202 0 254 q57 31 141 4q52 -16 164 -102q8 -12 22 -58q12 -39 39 -39q5 0 17 4q24 24 30 39q4 83 2 213q0 136 9 213v12v13.5t-0.5 13t-1 13.5t-2 12t-3.5 12t-5 9.5t-6.5 9t-9 6.5t-11.5 4q-10 -9 -57 -51.5t-67.5 -58.5t-59.5 -44t-72 -39t-66 -12q-29 -4 -45 14t-18 56q0 20 -6 108 q-1 16 -2 38.5t-2 38.5t-1 28z" />
<glyph unicode="&#xc9;" horiz-adv-x="1630" d="M84 692q0 -172 85.5 -339.5t229.5 -280.5q210 -125 439 -125q132 0 247 47q40 6 107 45q65 35 102 35q15 0 21 -2q10 -20 49 -170q26 -102 80 -156q52 -27 112 -27t113 27q78 84 78 162q0 24 -10 51q-15 15 -68 18q-48 0 -70 11q-5 4 -20.5 17.5t-23 19.5t-20.5 18.5 t-20.5 21.5t-15.5 21t-12 23q-70 186 -70 475q0 15 0.5 43t1.5 79.5t2 92.5q3 138 0 221q5 38 14.5 78.5t30.5 96t31 80.5t41 97.5t35 81.5q-1 2 -1.5 5t-1 7.5t-1.5 8.5q-1 3 -2 9.5t-2 8.5q-23 10 -43 10q-36 0 -86 -33q-49 -29 -91 -37t-110 -8q-142 0 -231 50 q-71 14 -168 14q-78 0 -238 -16q-167 -60 -221 -97q-129 -122 -211 -313t-82 -371zM469 637q9 361 113 584l14 6q11 2 14 -0.5t2 -9.5q-6 -99 -6 -222q0 -89 6 -276q4 -250 4 -281q0 -68 -4 -174q0 -8 -14 -8q-13 0 -16 8q-43 64 -70 178zM743 1094q0 140 50 229 q39 28 64.5 36.5t55.5 8.5q141 0 250 -151q142 -198 142 -508q0 -123 -29 -258q-101 -299 -315 -340q-76 -13 -97 -13q-60 0 -86 33q-27 95 -24 252q6 202 0 254q57 31 141 4q52 -16 164 -102q8 -12 22 -58q12 -39 39 -39q5 0 17 4q24 24 30 39q4 83 2 213q0 136 9 213v12 v13.5t-0.5 13t-1 13.5t-2 12t-3.5 12t-5 9.5t-6.5 9t-9 6.5t-11.5 4q-10 -9 -57 -51.5t-67.5 -58.5t-59.5 -44t-72 -39t-66 -12q-29 -4 -45 14t-18 56q0 20 -6 108q-1 16 -2 38.5t-2 38.5t-1 28zM803 1624h88q17 0 33 16q160 157 192 203q18 27 -6 27h-154q-8 0 -24 -19 q-103 -134 -129 -198q-13 -29 0 -29z" />
<glyph unicode="&#xca;" horiz-adv-x="1630" d="M84 692q0 -172 85.5 -339.5t229.5 -280.5q210 -125 439 -125q132 0 247 47q40 6 107 45q65 35 102 35q15 0 21 -2q10 -20 49 -170q26 -102 80 -156q52 -27 112 -27t113 27q78 84 78 162q0 24 -10 51q-15 15 -68 18q-48 0 -70 11q-5 4 -20.5 17.5t-23 19.5t-20.5 18.5 t-20.5 21.5t-15.5 21t-12 23q-70 186 -70 475q0 15 0.5 43t1.5 79.5t2 92.5q3 138 0 221q5 38 14.5 78.5t30.5 96t31 80.5t41 97.5t35 81.5q-1 2 -1.5 5t-1 7.5t-1.5 8.5q-1 3 -2 9.5t-2 8.5q-23 10 -43 10q-36 0 -86 -33q-49 -29 -91 -37t-110 -8q-142 0 -231 50 q-71 14 -168 14q-78 0 -238 -16q-167 -60 -221 -97q-129 -122 -211 -313t-82 -371zM469 637q9 361 113 584l14 6q11 2 14 -0.5t2 -9.5q-6 -99 -6 -222q0 -89 6 -276q4 -250 4 -281q0 -68 -4 -174q0 -8 -14 -8q-13 0 -16 8q-43 64 -70 178zM494 1640q0 -18 77 -18q74 0 95 12 q54 48 77 101q3 6 27 6q21 0 29 -4q43 -52 71 -103q9 -12 80 -12q90 0 90 23q0 6 -4 10q-117 137 -174 186q-31 16 -85.5 15t-82.5 -9q-40 -26 -102 -94q-64 -74 -92 -102q-6 -6 -6 -11zM743 1094q0 140 50 229q39 28 64.5 36.5t55.5 8.5q141 0 250 -151q142 -198 142 -508 q0 -123 -29 -258q-101 -299 -315 -340q-76 -13 -97 -13q-60 0 -86 33q-27 95 -24 252q6 202 0 254q57 31 141 4q52 -16 164 -102q8 -12 22 -58q12 -39 39 -39q5 0 17 4q24 24 30 39q4 83 2 213q0 136 9 213v12v13.5t-0.5 13t-1 13.5t-2 12t-3.5 12t-5 9.5t-6.5 9t-9 6.5 t-11.5 4q-10 -9 -57 -51.5t-67.5 -58.5t-59.5 -44t-72 -39t-66 -12q-29 -4 -45 14t-18 56q0 20 -6 108q-1 16 -2 38.5t-2 38.5t-1 28z" />
<glyph unicode="&#xcb;" horiz-adv-x="1630" d="M84 692q0 -172 85.5 -339.5t229.5 -280.5q210 -125 439 -125q132 0 247 47q40 6 107 45q65 35 102 35q15 0 21 -2q10 -20 49 -170q26 -102 80 -156q52 -27 112 -27t113 27q78 84 78 162q0 24 -10 51q-15 15 -68 18q-48 0 -70 11q-5 4 -20.5 17.5t-23 19.5t-20.5 18.5 t-20.5 21.5t-15.5 21t-12 23q-70 186 -70 475q0 15 0.5 43t1.5 79.5t2 92.5q3 138 0 221q5 38 14.5 78.5t30.5 96t31 80.5t41 97.5t35 81.5q-1 2 -1.5 5t-1 7.5t-1.5 8.5q-1 3 -2 9.5t-2 8.5q-23 10 -43 10q-36 0 -86 -33q-49 -29 -91 -37t-110 -8q-142 0 -231 50 q-71 14 -168 14q-78 0 -238 -16q-167 -60 -221 -97q-129 -122 -211 -313t-82 -371zM469 637q9 361 113 584l14 6q11 2 14 -0.5t2 -9.5q-6 -99 -6 -222q0 -89 6 -276q4 -250 4 -281q0 -68 -4 -174q0 -8 -14 -8q-13 0 -16 8q-43 64 -70 178zM481 1747q0 -47 41 -100 q21 -21 62 -21q34 0 51 14q59 44 59 111q0 19 -6 37q-18 63 -104 63q-19 0 -29 -2q-35 -15 -61 -51q-13 -26 -13 -51zM743 1094q0 140 50 229q39 28 64.5 36.5t55.5 8.5q141 0 250 -151q142 -198 142 -508q0 -123 -29 -258q-101 -299 -315 -340q-76 -13 -97 -13 q-60 0 -86 33q-27 95 -24 252q6 202 0 254q57 31 141 4q52 -16 164 -102q8 -12 22 -58q12 -39 39 -39q5 0 17 4q24 24 30 39q4 83 2 213q0 136 9 213v12v13.5t-0.5 13t-1 13.5t-2 12t-3.5 12t-5 9.5t-6.5 9t-9 6.5t-11.5 4q-10 -9 -57 -51.5t-67.5 -58.5t-59.5 -44t-72 -39 t-66 -12q-29 -4 -45 14t-18 56q0 20 -6 108q-1 16 -2 38.5t-2 38.5t-1 28zM901 1741q0 -51 27 -83t69 -32q40 0 60 14q59 44 59 111q0 19 -6 37q-18 63 -104 63q-19 0 -29 -2q-37 -16 -62 -51q-14 -25 -14 -57z" />
<glyph unicode="&#xcc;" horiz-adv-x="921" d="M45 1386q7 -16 19 -26.5t33 -16.5t33 -8.5t42 -5.5t37 -4q92 -44 92 -178q0 -33 -6 -98q-8 -57 -8 -91q-2 -44 8 -192q12 -138 12 -201q0 -70 -8 -114q-10 -35 -2 -78q10 -72 10 -76q0 -30 -12 -51q-18 -59 -63.5 -87.5t-141.5 -54.5q-11 -6 -18 -41.5t0 -42.5 q49 -32 141 -32q60 0 119 16q52 14 121 14q38 0 143 -10t145 -10q55 0 107 10q12 1 6.5 52.5t-18.5 58.5q-82 21 -113 24q-75 21 -96 166q6 144 -6 785q-3 165 55 223q60 42 102 39q61 18 58 108q-13 11 -32.5 20t-35 14t-45 9.5t-41.5 6t-47.5 4.5t-42.5 4 q-143 -33 -496 -33q-18 -4 -37 -43.5t-14 -59.5zM150 1843q32 -46 192 -203q16 -16 33 -16h88q13 0 0 29q-26 64 -129 198q-16 19 -25 19h-153q-24 0 -6 -27z" />
<glyph unicode="&#xcd;" horiz-adv-x="921" d="M45 1386q7 -16 19 -26.5t33 -16.5t33 -8.5t42 -5.5t37 -4q92 -44 92 -178q0 -33 -6 -98q-8 -57 -8 -91q-2 -44 8 -192q12 -138 12 -201q0 -70 -8 -114q-10 -35 -2 -78q10 -72 10 -76q0 -30 -12 -51q-18 -59 -63.5 -87.5t-141.5 -54.5q-11 -6 -18 -41.5t0 -42.5 q49 -32 141 -32q60 0 119 16q52 14 121 14q38 0 143 -10t145 -10q55 0 107 10q12 1 6.5 52.5t-18.5 58.5q-82 21 -113 24q-75 21 -96 166q6 144 -6 785q-3 165 55 223q60 42 102 39q61 18 58 108q-13 11 -32.5 20t-35 14t-45 9.5t-41.5 6t-47.5 4.5t-42.5 4 q-143 -33 -496 -33q-18 -4 -37 -43.5t-14 -59.5zM362 1624h89q16 0 32 16q163 160 193 203q18 27 -6 27h-154q-8 0 -24 -19q-105 -136 -130 -198q-13 -29 0 -29z" />
<glyph unicode="&#xce;" horiz-adv-x="921" d="M45 1386q7 -16 19 -26.5t33 -16.5t33 -8.5t42 -5.5t37 -4q92 -44 92 -178q0 -33 -6 -98q-8 -57 -8 -91q-2 -44 8 -192q12 -138 12 -201q0 -70 -8 -114q-10 -35 -2 -78q10 -72 10 -76q0 -30 -12 -51q-18 -59 -63.5 -87.5t-141.5 -54.5q-11 -6 -18 -41.5t0 -42.5 q49 -32 141 -32q60 0 119 16q52 14 121 14q38 0 143 -10t145 -10q55 0 107 10q12 1 6.5 52.5t-18.5 58.5q-82 21 -113 24q-75 21 -96 166q6 144 -6 785q-3 165 55 223q60 42 102 39q61 18 58 108q-13 11 -32.5 20t-35 14t-45 9.5t-41.5 6t-47.5 4.5t-42.5 4 q-143 -33 -496 -33q-18 -4 -37 -43.5t-14 -59.5zM154 1640q0 -18 77 -18q74 0 95 12q54 48 77 101q3 6 27 6q21 0 29 -4q43 -52 71 -103q9 -12 80 -12q90 0 90 23q0 6 -4 10q-117 137 -174 186q-31 16 -85.5 15t-82.5 -9q-40 -26 -102 -94q-64 -74 -92 -102q-6 -6 -6 -11z " />
<glyph unicode="&#xcf;" horiz-adv-x="921" d="M45 1386q7 -16 19 -26.5t33 -16.5t33 -8.5t42 -5.5t37 -4q92 -44 92 -178q0 -33 -6 -98q-8 -57 -8 -91q-2 -44 8 -192q12 -138 12 -201q0 -70 -8 -114q-10 -35 -2 -78q10 -72 10 -76q0 -30 -12 -51q-18 -59 -63.5 -87.5t-141.5 -54.5q-11 -6 -18 -41.5t0 -42.5 q49 -32 141 -32q60 0 119 16q52 14 121 14q38 0 143 -10t145 -10q55 0 107 10q12 1 6.5 52.5t-18.5 58.5q-82 21 -113 24q-75 21 -96 166q6 144 -6 785q-3 165 55 223q60 42 102 39q61 18 58 108q-13 11 -32.5 20t-35 14t-45 9.5t-41.5 6t-47.5 4.5t-42.5 4 q-143 -33 -496 -33q-18 -4 -37 -43.5t-14 -59.5zM113 1747q0 -47 41 -100q21 -21 61 -21q34 0 51 14q60 45 60 111q0 16 -7 37q-18 63 -104 63q-19 0 -29 -2q-35 -15 -61 -51q-12 -24 -12 -51zM532 1741q0 -51 27.5 -83t69.5 -32q39 0 59 14q60 45 60 111q0 16 -7 37 q-18 63 -104 63q-19 0 -29 -2q-35 -15 -61 -51q-15 -27 -15 -57z" />
<glyph unicode="&#xd1;" horiz-adv-x="1814" d="M86 1333q17 -56 84 -110q11 -8 38 -27t39.5 -29t32.5 -29t29.5 -34.5t17 -38.5t7.5 -49q0 -24 -6 -76t-6 -76q0 -28 10 -110t10 -113q0 -55 -10 -178l-13 -178q-24 -93 -149 -127q-51 -34 -51 -80q0 -15 2 -23q35 -59 117 -59q32 0 100 12t94 12q105 -10 209 -10 q70 0 424 21q48 25 39 55q-14 32 -45 51q-22 11 -62 35q-99 45 -96 221q6 45 62 72q64 20 129 20q106 0 159 -59q-4 -106 -4 -113q0 -247 135 -329q121 -41 207 -41q87 0 146 41q84 90 84 188q0 22 -11 64q-30 107 -137 122q-61 3 -112 -63q16 -43 16 -55q0 -22 -12 -37 q-34 -37 -82 -17q-42 23 -45 64q6 82 54 145t159 154q108 163 108 381q0 113 -35 223q-39 118 -142 206t-235 131.5t-274 43.5q-47 0 -107 -7.5t-106 -16t-123.5 -28t-113 -29t-125 -35.5t-111.5 -32q-162 -38 -197 -38q-42 0 -82 16q-17 -14 -20 -31zM629 461q0 58 6 178 q4 156 4 176q0 12 -4 98t-4 97q0 49 37 264q12 12 28 43q16 29 31 29q12 0 27 -9q12 -53 12 -123q0 -14 -4 -116q-4 -106 -4 -121q0 -47 2 -70q27 -273 12 -669q-1 -1 -2.5 -4t-5.5 -10.5t-8 -14.5q-10 -20 -27 -23q-56 -3 -82 45q-18 102 -18 230zM680 1681 q-4 -11 16 -20.5t41 -9.5q59 0 86 41q15 6 31 6q34 0 107 -37t110 -37q25 0 41 8q66 19 112 73.5t52 121.5q1 16 -12.5 22.5t-32.5 1.5q-12 4 -17 4q-18 0 -40 -28q-22 -32 -39 -35q-41 3 -127 45q-79 39 -129 39q-26 0 -56 -10q-95 -59 -143 -185zM905 1169q0 20 15 134 q0 29 61 69q4 3 6 4q32 4 49 4q127 0 240 -82q56 -59 84 -145q2 -38 -18.5 -70.5t-51.5 -38.5q-88 -14 -174 -14q-89 0 -176 19q-35 47 -35 120zM911 723q-9 56 4 92q48 66 156 66q41 0 76 -2q16 -1 41.5 -3t32.5 -2q20 0 55 5q36 -8 92 -78q3 -98 -35 -123l-33 -19 q-31 2 -161 -4q-102 -5 -158.5 9.5t-69.5 58.5z" />
<glyph unicode="&#xd2;" horiz-adv-x="1695" d="M82 782q0 183 84 324q66 209 264 326q126 74 250 88q20 -2 65 -2q15 0 109 4q45 2 100 2q131 0 224 -43q200 -92 336 -277t159 -395q-9 -47 -6 -143q3 -90 -8 -146q-108 -271 -293 -438q-59 -43 -162 -76q-148 -50 -168 -61q-70 -13 -131 -13q-161 0 -459 121 q-306 229 -346 510q-18 132 -18 219zM510 764q0 -15 2 -21q3 -41 57 -86q18 -6 59 -6.5t72.5 2.5t32.5 4q79 -10 217 -4q146 3 217 -6q-2 5 4 7.5t19 2.5q19 0 22 9q75 46 72 133q-50 80 -141 80q-27 0 -117 -17q-85 -16 -121 -16q-32 -4 -53 -4q-41 0 -104 8t-105 8 q-49 0 -84 -12q-49 -34 -49 -82zM524 360q32 -88 35 -98q25 -54 64 -80q100 -106 266 -106q42 0 94 10q180 43 227 195q3 8 31 63q21 40 21 68q0 34 -31 59q-59 33 -135 33q-64 0 -158 -27q-14 -2 -41 -2q-34 0 -119 10q-97 11 -119 11q-30 0 -65 -7q-61 -19 -70 -129z M528 1110q0 -21 2 -31q14 -25 60 -47q214 -28 336 -31q35 15 110 21q85 5 126 21t65 67q9 126 -162 242q-88 49 -199 49q-73 0 -155 -29q-183 -103 -183 -262zM604 1843q-18 27 6 27h154q8 0 24 -19q105 -136 130 -198q13 -29 0 -29h-89q-16 0 -32 16q-163 160 -193 203z M731 657h2h-2z" />
<glyph unicode="&#xd3;" horiz-adv-x="1695" d="M82 782q0 183 84 324q66 209 264 326q126 74 250 88q20 -2 65 -2q15 0 109 4q45 2 100 2q131 0 224 -43q200 -92 336 -277t159 -395q-9 -47 -6 -143q3 -90 -8 -146q-108 -271 -293 -438q-59 -43 -162 -76q-148 -50 -168 -61q-70 -13 -131 -13q-161 0 -459 121 q-306 229 -346 510q-18 132 -18 219zM510 764q0 -15 2 -21q3 -41 57 -86q18 -6 59 -6.5t72.5 2.5t32.5 4q79 -10 217 -4q146 3 217 -6q-2 5 4 7.5t19 2.5q19 0 22 9q75 46 72 133q-50 80 -141 80q-27 0 -117 -17q-85 -16 -121 -16q-32 -4 -53 -4q-41 0 -104 8t-105 8 q-49 0 -84 -12q-49 -34 -49 -82zM524 360q32 -88 35 -98q25 -54 64 -80q100 -106 266 -106q42 0 94 10q180 43 227 195q3 8 31 63q21 40 21 68q0 34 -31 59q-59 33 -135 33q-64 0 -158 -27q-14 -2 -41 -2q-34 0 -119 10q-97 11 -119 11q-30 0 -65 -7q-61 -19 -70 -129z M528 1110q0 -21 2 -31q14 -25 60 -47q214 -28 336 -31q35 15 110 21q85 5 126 21t65 67q9 126 -162 242q-88 49 -199 49q-73 0 -155 -29q-183 -103 -183 -262zM731 657h2h-2zM803 1624q-13 0 0 29q26 64 129 198q16 19 24 19h154q24 0 6 -27q-32 -46 -192 -203 q-16 -16 -33 -16h-88z" />
<glyph unicode="&#xd4;" horiz-adv-x="1695" d="M82 782q0 183 84 324q66 209 264 326q126 74 250 88q20 -2 65 -2q15 0 109 4q45 2 100 2q131 0 224 -43q200 -92 336 -277t159 -395q-9 -47 -6 -143q3 -90 -8 -146q-108 -271 -293 -438q-59 -43 -162 -76q-148 -50 -168 -61q-70 -13 -131 -13q-161 0 -459 121 q-306 229 -346 510q-18 132 -18 219zM510 764q0 -15 2 -21q3 -41 57 -86q18 -6 59 -6.5t72.5 2.5t32.5 4q79 -10 217 -4q146 3 217 -6q-2 5 4 7.5t19 2.5q19 0 22 9q75 46 72 133q-50 80 -141 80q-27 0 -117 -17q-85 -16 -121 -16q-32 -4 -53 -4q-41 0 -104 8t-105 8 q-49 0 -84 -12q-49 -34 -49 -82zM524 360q32 -88 35 -98q25 -54 64 -80q100 -106 266 -106q42 0 94 10q180 43 227 195q3 8 31 63q21 40 21 68q0 34 -31 59q-59 33 -135 33q-64 0 -158 -27q-14 -2 -41 -2q-34 0 -119 10q-97 11 -119 11q-30 0 -65 -7q-61 -19 -70 -129z M528 1110q0 -21 2 -31q14 -25 60 -47q214 -28 336 -31q35 15 110 21q85 5 126 21t65 67q9 126 -162 242q-88 49 -199 49q-73 0 -155 -29q-183 -103 -183 -262zM565 1640q0 5 6 11q36 36 93 102q62 68 102 94q28 8 82.5 9t85.5 -15q57 -49 174 -186q4 -4 4 -10q0 -23 -90 -23 q-71 0 -80 12q-26 47 -72 103q-8 4 -28 4q-24 0 -27 -6q-22 -52 -78 -101q-21 -12 -94 -12q-78 0 -78 18zM731 657h2h-2z" />
<glyph unicode="&#xd5;" horiz-adv-x="1695" d="M82 782q0 183 84 324q66 209 264 326q126 74 250 88q20 -2 65 -2q15 0 109 4q45 2 100 2q131 0 224 -43q200 -92 336 -277t159 -395q-9 -47 -6 -143q3 -90 -8 -146q-108 -271 -293 -438q-59 -43 -162 -76q-148 -50 -168 -61q-70 -13 -131 -13q-161 0 -459 121 q-306 229 -346 510q-18 132 -18 219zM510 764q0 -15 2 -21q3 -41 57 -86q18 -6 59 -6.5t72.5 2.5t32.5 4q79 -10 217 -4q146 3 217 -6q-2 5 4 7.5t19 2.5q19 0 22 9q75 46 72 133q-50 80 -141 80q-27 0 -117 -17q-85 -16 -121 -16q-32 -4 -53 -4q-41 0 -104 8t-105 8 q-49 0 -84 -12q-49 -34 -49 -82zM524 360q32 -88 35 -98q25 -54 64 -80q100 -106 266 -106q42 0 94 10q180 43 227 195q3 8 31 63q21 40 21 68q0 34 -31 59q-59 33 -135 33q-64 0 -158 -27q-14 -2 -41 -2q-34 0 -119 10q-97 11 -119 11q-30 0 -65 -7q-61 -19 -70 -129z M528 1110q0 -21 2 -31q14 -25 60 -47q214 -28 336 -31q35 15 110 21q85 5 126 21t65 67q9 126 -162 242q-88 49 -199 49q-73 0 -155 -29q-183 -103 -183 -262zM537 1681q48 126 143 185q30 10 55 10q50 0 129 -39q86 -42 127 -45q17 3 39 35q22 28 41 28q4 0 16 -4 q19 5 33 -1.5t13 -22.5q-6 -67 -52 -121.5t-112 -73.5q-16 -8 -41 -8q-38 0 -111 37t-106 37q-16 0 -31 -6q-27 -41 -86 -41q-21 0 -41 9.5t-16 20.5zM731 657h2h-2z" />
<glyph unicode="&#xd6;" horiz-adv-x="1695" d="M82 782q0 183 84 324q66 209 264 326q126 74 250 88q20 -2 65 -2q15 0 109 4q45 2 100 2q131 0 224 -43q200 -92 336 -277t159 -395q-9 -47 -6 -143q3 -90 -8 -146q-108 -271 -293 -438q-59 -43 -162 -76q-148 -50 -168 -61q-70 -13 -131 -13q-161 0 -459 121 q-306 229 -346 510q-18 132 -18 219zM510 764q0 -15 2 -21q3 -41 57 -86q18 -6 59 -6.5t72.5 2.5t32.5 4q79 -10 217 -4q146 3 217 -6q-2 5 4 7.5t19 2.5q19 0 22 9q75 46 72 133q-50 80 -141 80q-27 0 -117 -17q-85 -16 -121 -16q-32 -4 -53 -4q-41 0 -104 8t-105 8 q-49 0 -84 -12q-49 -34 -49 -82zM524 360q32 -88 35 -98q25 -54 64 -80q100 -106 266 -106q42 0 94 10q180 43 227 195q3 8 31 63q21 40 21 68q0 34 -31 59q-59 33 -135 33q-64 0 -158 -27q-14 -2 -41 -2q-34 0 -119 10q-97 11 -119 11q-30 0 -65 -7q-61 -19 -70 -129z M528 1110q0 -21 2 -31q14 -25 60 -47q214 -28 336 -31q35 15 110 21q85 5 126 21t65 67q9 126 -162 242q-88 49 -199 49q-73 0 -155 -29q-183 -103 -183 -262zM539 1747q0 27 12 51q26 36 61 51q10 2 29 2q86 0 104 -63q7 -21 7 -37q0 -66 -60 -111q-17 -14 -51 -14 q-40 0 -61 21q-41 53 -41 100zM731 657h2h-2zM958 1741q0 30 15 57q26 36 61 51q10 2 29 2q86 0 104 -63q7 -21 7 -37q0 -66 -60 -111q-20 -14 -59 -14q-42 0 -69.5 32t-27.5 83z" />
<glyph unicode="&#xd8;" horiz-adv-x="1699" d="M82 780q0 185 84 326q66 209 264 326q126 74 250 88q59 -3 145 0q108 6 133 6q112 0 213.5 -43.5t176.5 -102.5q158 168 163 170q72 -28 72 -84q0 -10 -4 -22l-139 -148q206 -215 233 -487q-9 -47 -6 -143q3 -90 -8 -146q-108 -271 -293 -438q-59 -43 -162 -76 q-148 -50 -168 -61q-70 -13 -131 -13q-161 0 -459 121q-13 9 -35 28t-30 25q-36 -40 -184 -200q-10 -10 -55.5 26t-37.5 48q7 21 181 219q-158 172 -185 364q-18 132 -18 217zM510 764q0 -15 2 -21q3 -41 57 -86q43 -13 117 -4l170 189q-43 0 -106 8t-105 8q-49 0 -86 -12 q-49 -34 -49 -82zM528 1110q0 -21 2 -31q14 -25 60 -47q214 -28 336 -31q24 10 90 19l184 199q-45 72 -135 133q-88 49 -199 49q-73 0 -155 -29q-183 -103 -183 -262zM547 295q37 -89 76 -113q100 -106 266 -106q42 0 94 10q180 43 227 195q3 8 31 63q21 40 21 68 q0 34 -31 59q-59 33 -135 33q-64 0 -158 -27q-27 -1 -37.5 -1.5t-42 2t-45 4t-46 5.5t-44.5 5q-39 -45 -176 -197zM862 649q32 2 136 2.5t169 -4.5q-2 5 4 7.5t19 2.5q19 0 22 9q75 46 72 133q-50 80 -141 80q-20 0 -84 -11z" />
<glyph unicode="&#xd9;" horiz-adv-x="1794" d="M86 1313q0 140 174 219q32 0 57 2t54 2q78 0 123 -39q112 -63 112 -225q0 -53 -26 -219q-88 -183 -88 -387q0 -238 131 -369q23 -23 41 -23q9 0 16 7q6 3 16 32q3 202 -2 467q-8 308 -8 461q0 85 4 221q34 46 84 43q44 -14 47 -51q13 -29 13 -72q0 -30 -9 -94 q-10 -72 -10 -90q0 -93 72 -121q15 0 100 -10q78 -10 109 -10q125 0 166 90q4 28 4 43q0 83 -52 135q-13 4 -122 47q-65 35 -62 101q62 20 197 8q129 -15 190 4l150 24q17 0 41 -4l12 -16q-2 -9 -13 -52t-14.5 -57t-13 -53.5t-13 -58t-10 -52.5t-9 -56t-5 -49t-2.5 -50 q0 -44 6 -90q35 -110 35 -254q0 -77 -8 -189t-8 -190q0 -43 4 -109q14 -25 66.5 -49t94 -35.5t46.5 -11.5q16 -43 16 -51q0 -18 -16 -31q-17 -15 -52 -18l-108 2q-15 0 -30.5 -1t-36 -4t-34.5 -5.5t-39.5 -9t-37 -9t-41 -11.5t-37 -11t-40.5 -12t-36 -11q-63 9 -47 82 q18 91 -6 115q-20 -8 -51 -35q-41 -35 -47 -39q-207 -115 -426 -115q-170 0 -310 70q-301 228 -301 446q0 49 15 101q12 147 83 272.5t183 185.5q83 71 80 195q-3 57 -68 72q-36 -9 -47.5 -12.5t-22.5 -13.5t-16 -28q-9 -25 -12 -57q-9 -35 -35 -45q-149 34 -170 158z M575 1843q-18 27 7 27h153q9 0 25 -19q103 -134 129 -198q13 -29 0 -29h-88q-17 0 -33 16q-163 160 -193 203zM813 840q0 -65 52 -93t147 -14q31 3 78 -6q55 -12 73 -12q34 0 54 14q43 61 43 105q0 71 -72 106q-14 -2 -49 -2q-29 0 -127 10q-91 10 -127 8q-72 -31 -72 -116z M821 285q0 -54 60 -82q31 7 114 4q77 0 115 14q106 53 127 154q20 90 20 123q0 57 -30 84q-12 -2 -37 -2q-38 0 -115 12t-110 12q-78 0 -125 -47q0 -5 -3.5 -42t-6.5 -74.5t-6 -82.5t-3 -73zM1700 31l24 2l14 -2h-38z" />
<glyph unicode="&#xda;" horiz-adv-x="1794" d="M86 1313q0 140 174 219q32 0 57 2t54 2q78 0 123 -39q112 -63 112 -225q0 -53 -26 -219q-88 -183 -88 -387q0 -238 131 -369q23 -23 41 -23q9 0 16 7q6 3 16 32q3 202 -2 467q-8 308 -8 461q0 85 4 221q34 46 84 43q44 -14 47 -51q13 -29 13 -72q0 -30 -9 -94 q-10 -72 -10 -90q0 -93 72 -121q15 0 100 -10q78 -10 109 -10q125 0 166 90q4 28 4 43q0 83 -52 135q-13 4 -122 47q-65 35 -62 101q62 20 197 8q129 -15 190 4l150 24q17 0 41 -4l12 -16q-2 -9 -13 -52t-14.5 -57t-13 -53.5t-13 -58t-10 -52.5t-9 -56t-5 -49t-2.5 -50 q0 -44 6 -90q35 -110 35 -254q0 -77 -8 -189t-8 -190q0 -43 4 -109q14 -25 66.5 -49t94 -35.5t46.5 -11.5q16 -43 16 -51q0 -18 -16 -31q-17 -15 -52 -18l-108 2q-15 0 -30.5 -1t-36 -4t-34.5 -5.5t-39.5 -9t-37 -9t-41 -11.5t-37 -11t-40.5 -12t-36 -11q-63 9 -47 82 q18 91 -6 115q-20 -8 -51 -35q-41 -35 -47 -39q-207 -115 -426 -115q-170 0 -310 70q-301 228 -301 446q0 49 15 101q12 147 83 272.5t183 185.5q83 71 80 195q-3 57 -68 72q-36 -9 -47.5 -12.5t-22.5 -13.5t-16 -28q-9 -25 -12 -57q-9 -35 -35 -45q-149 34 -170 158z M813 840q0 -65 52 -93t147 -14q31 3 78 -6q55 -12 73 -12q34 0 54 14q43 61 43 105q0 71 -72 106q-14 -2 -49 -2q-29 0 -127 10q-91 10 -127 8q-72 -31 -72 -116zM821 285q0 -54 60 -82q31 7 114 4q77 0 115 14q106 53 127 154q20 90 20 123q0 57 -30 84q-12 -2 -37 -2 q-38 0 -115 12t-110 12q-78 0 -125 -47q0 -5 -3.5 -42t-6.5 -74.5t-6 -82.5t-3 -73zM860 1624q-13 0 0 29q26 64 129 198q16 19 25 19h153q25 0 7 -27q-30 -43 -193 -203q-16 -16 -33 -16h-88zM1700 31l24 2l14 -2h-38z" />
<glyph unicode="&#xdb;" horiz-adv-x="1794" d="M86 1313q0 140 174 219q32 0 57 2t54 2q78 0 123 -39q112 -63 112 -225q0 -53 -26 -219q-88 -183 -88 -387q0 -238 131 -369q23 -23 41 -23q9 0 16 7q6 3 16 32q3 202 -2 467q-8 308 -8 461q0 85 4 221q34 46 84 43q44 -14 47 -51q13 -29 13 -72q0 -30 -9 -94 q-10 -72 -10 -90q0 -93 72 -121q15 0 100 -10q78 -10 109 -10q125 0 166 90q4 28 4 43q0 83 -52 135q-13 4 -122 47q-65 35 -62 101q62 20 197 8q129 -15 190 4l150 24q17 0 41 -4l12 -16q-2 -9 -13 -52t-14.5 -57t-13 -53.5t-13 -58t-10 -52.5t-9 -56t-5 -49t-2.5 -50 q0 -44 6 -90q35 -110 35 -254q0 -77 -8 -189t-8 -190q0 -43 4 -109q14 -25 66.5 -49t94 -35.5t46.5 -11.5q16 -43 16 -51q0 -18 -16 -31q-17 -15 -52 -18l-108 2q-15 0 -30.5 -1t-36 -4t-34.5 -5.5t-39.5 -9t-37 -9t-41 -11.5t-37 -11t-40.5 -12t-36 -11q-63 9 -47 82 q18 91 -6 115q-20 -8 -51 -35q-41 -35 -47 -39q-207 -115 -426 -115q-170 0 -310 70q-301 228 -301 446q0 49 15 101q12 147 83 272.5t183 185.5q83 71 80 195q-3 57 -68 72q-36 -9 -47.5 -12.5t-22.5 -13.5t-16 -28q-9 -25 -12 -57q-9 -35 -35 -45q-149 34 -170 158z M580 1640q0 5 6 11q28 28 92 102q62 68 102 94q28 8 82.5 9t85.5 -15q57 -49 174 -186q4 -4 4 -10q0 -23 -90 -23q-71 0 -80 12q-28 51 -71 103q-8 4 -29 4q-24 0 -27 -6q-23 -53 -77 -101q-21 -12 -95 -12q-77 0 -77 18zM813 840q0 -65 52 -93t147 -14q31 3 78 -6 q55 -12 73 -12q34 0 54 14q43 61 43 105q0 71 -72 106q-14 -2 -49 -2q-29 0 -127 10q-91 10 -127 8q-72 -31 -72 -116zM821 285q0 -54 60 -82q31 7 114 4q77 0 115 14q106 53 127 154q20 90 20 123q0 57 -30 84q-12 -2 -37 -2q-38 0 -115 12t-110 12q-78 0 -125 -47 q0 -5 -3.5 -42t-6.5 -74.5t-6 -82.5t-3 -73zM1700 31l24 2l14 -2h-38z" />
<glyph unicode="&#xdc;" horiz-adv-x="1794" d="M86 1313q0 140 174 219q32 0 57 2t54 2q78 0 123 -39q112 -63 112 -225q0 -53 -26 -219q-88 -183 -88 -387q0 -238 131 -369q23 -23 41 -23q9 0 16 7q6 3 16 32q3 202 -2 467q-8 308 -8 461q0 85 4 221q34 46 84 43q44 -14 47 -51q13 -29 13 -72q0 -30 -9 -94 q-10 -72 -10 -90q0 -93 72 -121q15 0 100 -10q78 -10 109 -10q125 0 166 90q4 28 4 43q0 83 -52 135q-13 4 -122 47q-65 35 -62 101q62 20 197 8q129 -15 190 4l150 24q17 0 41 -4l12 -16q-2 -9 -13 -52t-14.5 -57t-13 -53.5t-13 -58t-10 -52.5t-9 -56t-5 -49t-2.5 -50 q0 -44 6 -90q35 -110 35 -254q0 -77 -8 -189t-8 -190q0 -43 4 -109q14 -25 66.5 -49t94 -35.5t46.5 -11.5q16 -43 16 -51q0 -18 -16 -31q-17 -15 -52 -18l-108 2q-15 0 -30.5 -1t-36 -4t-34.5 -5.5t-39.5 -9t-37 -9t-41 -11.5t-37 -11t-40.5 -12t-36 -11q-63 9 -47 82 q18 91 -6 115q-20 -8 -51 -35q-41 -35 -47 -39q-207 -115 -426 -115q-170 0 -310 70q-301 228 -301 446q0 49 15 101q12 147 83 272.5t183 185.5q83 71 80 195q-3 57 -68 72q-36 -9 -47.5 -12.5t-22.5 -13.5t-16 -28q-9 -25 -12 -57q-9 -35 -35 -45q-149 34 -170 158z M553 1747q0 27 12 51q25 35 62 51q10 2 28 2q87 0 105 -63q6 -18 6 -37q0 -67 -59 -111q-17 -14 -52 -14q-40 0 -61 21q-41 53 -41 100zM813 840q0 -65 52 -93t147 -14q31 3 78 -6q55 -12 73 -12q34 0 54 14q43 61 43 105q0 71 -72 106q-14 -2 -49 -2q-29 0 -127 10 q-91 10 -127 8q-72 -31 -72 -116zM821 285q0 -54 60 -82q31 7 114 4q77 0 115 14q106 53 127 154q20 90 20 123q0 57 -30 84q-12 -2 -37 -2q-38 0 -115 12t-110 12q-78 0 -125 -47q0 -5 -3.5 -42t-6.5 -74.5t-6 -82.5t-3 -73zM973 1741q0 32 14 57q25 35 62 51q10 2 28 2 q87 0 105 -63q6 -18 6 -37q0 -66 -60 -111q-20 -14 -59 -14q-42 0 -69 32t-27 83zM1700 31l24 2l14 -2h-38z" />
<glyph unicode="&#xdd;" horiz-adv-x="2088" d="M100 1417q23 51 74 51q21 0 80 -16t84 -16q11 0 31 4q116 -6 286 30q181 39 281 39q41 0 61 -2q87 -9 195 -129q33 -62 33 -127q0 -64 -40.5 -112t-121.5 -64q-58 -3 -117 62q-4 8 -4 12q0 10 14 18q10 6 17 13q24 65 -3.5 118t-88.5 64q-102 0 -117 -74q-14 -32 -14 -71 q0 -21 5.5 -43.5t19.5 -52t21.5 -43.5t29.5 -51.5t26 -43.5q165 -337 211 -430q17 -26 70 -8q76 120 180 350q120 266 168 360q-15 38 -99 197q-9 58 25 76q29 2 61 -0.5t75 -12.5t67 -16t79 -22.5t68 -20.5q4 2 178 2q106 0 168 -26q28 -28 6 -70q-7 -21 -41.5 -47.5 t-65.5 -42.5l-30 -17q-80 -61 -119.5 -137.5t-101.5 -257.5q-47 -139 -90 -209q-83 -99 -164 -321q-85 -232 -158 -322q-9 -20 -26.5 -61t-26.5 -62q-26 -71 -26 -129q0 -41 16 -84q5 -14 12 -47q8 -27 8 -49q0 -27 -16 -49q-129 -14 -184 -14q-114 0 -181 34q-20 2 -63 2 q-77 0 -203 -14q-129 -14 -205 -14q-56 0 -102 6q-180 41 -201 176q-6 30 -6 64q0 119 74 237q45 57 149 57q51 0 92.5 -16t81.5 -65q46 -55 46 -107t-46 -98q-13 -23 -28 -23q-9 0 -27 15q-15 9 -31 14q-20 0 -36 -18t-20.5 -41t7 -47t41.5 -35q190 -12 273 120 q112 130 194 375q-33 88 -155 281q-12 36 -26.5 74.5t-35 84.5t-35.5 80t-43.5 90.5t-42 84.5t-47 93t-44 84t-48 90.5t-43.5 82.5q-65 135 -240 159q-42 25 -45 78zM969 -184q-34 -60 4 -95q8 -8 24 -8q23 0 54 25q15 28 70 144t168 364.5t224 505.5q111 264 220 436 q20 29 20 61q0 38 -35 47q-35 0 -51 -16q-80 -80 -143 -233q-44 -127 -97 -269q-98 -161 -235 -477q-156 -360 -223 -485zM1133 1624q-13 0 0 29q26 64 129 198q16 19 24 19h154q24 0 6 -27q-30 -43 -193 -203q-16 -16 -32 -16h-88z" />
<glyph unicode="&#xdf;" horiz-adv-x="1167" d="M31 39q0 -28 45 -37l313 -4q29 6 29 55q0 22 -23 160q-24 123 -24 188q0 138 -2 310q-3 236 0 352q3 174 18 192l51 88q33 53 65 66.5t101 13.5q89 0 115 -26q59 -68 59 -172q0 -138 -65 -221q-133 -90 -172 -115q-9 -6 -9 -19q0 -11 37 -75q6 -6 39 8t35 12 q27 -14 47.5 -29t37.5 -36.5t29 -39t23.5 -50.5t18 -56.5t15.5 -72t14.5 -82t15.5 -99.5q-22 -85 -66.5 -169.5t-89.5 -112.5q-62 -62 -135 -62q-18 0 -33 6q-8 4 -12 4q-21 0 -21 -36q0 -80 54 -74q35 -1 127 22t123 41q99 29 184 132.5t102 213.5q15 89 15 168 q0 265 -152 355q-12 15 -88 39q-57 18 -57 67q73 44 103 92.5t63 151.5q3 84 -60 207l-80 80q-51 48 -110 51q-36 3 -103 9q-104 15 -185 10t-137.5 -40t-90 -135t-41.5 -276q-4 -144 -4 -222q0 -98 6 -307q6 -212 6 -350q-37 -93 -90 -131q-41 -15 -41 -45z" />
<glyph unicode="&#xe0;" horiz-adv-x="1101" d="M66 176q0 -40 8 -76q15 -82 176 -106q32 -4 51 -4t34.5 1t28.5 2t29.5 6t26.5 7.5t31 12.5t31.5 14.5t39 20.5t43 24t55 31t62.5 36q27 -9 27 -39v-51q15 -60 114 -75q145 75 209 114q39 14 39 66q0 11 -10 76q-19 3 -49 -15q-29 -20 -43 -20q-17 0 -31 20q-15 83 -6 242 q-6 34 -12 137q-5 101 -24 151.5t-81 84.5q-17 8 -37.5 17t-45 19.5l-38.5 16.5q-118 14 -192 14q-207 0 -309 -108q-50 -65 -50 -123q0 -24 9 -45q38 -68 77 -62q23 3 44.5 15t36 25t32 37.5t26.5 39.5t26 45.5t24 42.5q75 47 148 38t102 -69q15 -78 -19 -108 q-81 -20 -147 -60q-42 -33 -140 -69q-98 -31 -147 -64q-149 -82 -149 -262zM289 1212q30 -43 192 -202q17 -17 33 -17h88q13 0 0 29q-27 66 -129 199q-15 18 -24 18h-154q-24 0 -6 -27zM313 256q0 48 27 92q52 43 109 66q53 19 104 57q65 39 125 39q0 -18 6 -64q4 -62 4 -73 q0 -93 -55 -117q-114 -69 -121 -74q-74 -44 -137 -35q-62 35 -62 109z" />
<glyph unicode="&#xe1;" horiz-adv-x="1101" d="M66 176q0 -40 8 -76q15 -82 176 -106q32 -4 51 -4t34.5 1t28.5 2t29.5 6t26.5 7.5t31 12.5t31.5 14.5t39 20.5t43 24t55 31t62.5 36q27 -9 27 -39v-51q15 -60 114 -75q145 75 209 114q39 14 39 66q0 11 -10 76q-19 3 -49 -15q-29 -20 -43 -20q-17 0 -31 20q-15 83 -6 242 q-6 34 -12 137q-5 101 -24 151.5t-81 84.5q-17 8 -37.5 17t-45 19.5l-38.5 16.5q-118 14 -192 14q-207 0 -309 -108q-50 -65 -50 -123q0 -24 9 -45q38 -68 77 -62q23 3 44.5 15t36 25t32 37.5t26.5 39.5t26 45.5t24 42.5q75 47 148 38t102 -69q15 -78 -19 -108 q-81 -20 -147 -60q-42 -33 -140 -69q-98 -31 -147 -64q-149 -82 -149 -262zM313 256q0 48 27 92q52 43 109 66q53 19 104 57q65 39 125 39q0 -18 6 -64q4 -62 4 -73q0 -93 -55 -117q-114 -69 -121 -74q-74 -44 -137 -35q-62 35 -62 109zM416 993h88q16 0 33 17 q162 159 192 202q18 27 -6 27h-154q-9 0 -24 -18q-102 -133 -129 -199q-13 -29 0 -29z" />
<glyph unicode="&#xe2;" horiz-adv-x="1101" d="M66 176q0 -40 8 -76q15 -82 176 -106q32 -4 51 -4t34.5 1t28.5 2t29.5 6t26.5 7.5t31 12.5t31.5 14.5t39 20.5t43 24t55 31t62.5 36q27 -9 27 -39v-51q15 -60 114 -75q145 75 209 114q39 14 39 66q0 11 -10 76q-19 3 -49 -15q-29 -20 -43 -20q-17 0 -31 20q-15 83 -6 242 q-6 34 -12 137q-5 101 -24 151.5t-81 84.5q-17 8 -37.5 17t-45 19.5l-38.5 16.5q-118 14 -192 14q-207 0 -309 -108q-50 -65 -50 -123q0 -24 9 -45q38 -68 77 -62q23 3 44.5 15t36 25t32 37.5t26.5 39.5t26 45.5t24 42.5q75 47 148 38t102 -69q15 -78 -19 -108 q-81 -20 -147 -60q-42 -33 -140 -69q-98 -31 -147 -64q-149 -82 -149 -262zM250 1010q0 -19 78 -19q71 0 94 13q56 50 78 100q3 6 26 6q21 0 29 -4q48 -59 72 -102q10 -13 80 -13q90 0 90 23q0 6 -4 10q-114 134 -175 186q-14 11 -50.5 14t-68.5 0.5t-48 -7.5 q-41 -26 -103 -95q-64 -74 -92 -102q-6 -6 -6 -10zM313 256q0 48 27 92q52 43 109 66q53 19 104 57q65 39 125 39q0 -18 6 -64q4 -62 4 -73q0 -93 -55 -117q-114 -69 -121 -74q-74 -44 -137 -35q-62 35 -62 109z" />
<glyph unicode="&#xe3;" horiz-adv-x="1101" d="M66 176q0 -40 8 -76q15 -82 176 -106q32 -4 51 -4t34.5 1t28.5 2t29.5 6t26.5 7.5t31 12.5t31.5 14.5t39 20.5t43 24t55 31t62.5 36q27 -9 27 -39v-51q15 -60 114 -75q145 75 209 114q39 14 39 66q0 11 -10 76q-19 3 -49 -15q-29 -20 -43 -20q-17 0 -31 20q-15 83 -6 242 q-6 34 -12 137q-5 101 -24 151.5t-81 84.5q-17 8 -37.5 17t-45 19.5l-38.5 16.5q-118 14 -192 14q-207 0 -309 -108q-50 -65 -50 -123q0 -24 9 -45q38 -68 77 -62q23 3 44.5 15t36 25t32 37.5t26.5 39.5t26 45.5t24 42.5q75 47 148 38t102 -69q15 -78 -19 -108 q-81 -20 -147 -60q-42 -33 -140 -69q-98 -31 -147 -64q-149 -82 -149 -262zM221 1051q-4 -11 16.5 -21t41.5 -10q59 0 86 41q15 6 30 6q34 0 107 -37t110 -37q25 0 41 8q66 19 112 73.5t52 121.5q1 16 -13 23t-32 2q-12 4 -16 4q-18 0 -41 -29q-22 -32 -39 -35 q-41 3 -127 45q-79 39 -129 39q-25 0 -55 -10q-97 -60 -144 -184zM313 256q0 48 27 92q52 43 109 66q53 19 104 57q65 39 125 39q0 -18 6 -64q4 -62 4 -73q0 -93 -55 -117q-114 -69 -121 -74q-74 -44 -137 -35q-62 35 -62 109z" />
<glyph unicode="&#xe4;" horiz-adv-x="1101" d="M66 176q0 -40 8 -76q15 -82 176 -106q32 -4 51 -4t34.5 1t28.5 2t29.5 6t26.5 7.5t31 12.5t31.5 14.5t39 20.5t43 24t55 31t62.5 36q27 -9 27 -39v-51q15 -60 114 -75q145 75 209 114q39 14 39 66q0 11 -10 76q-19 3 -49 -15q-29 -20 -43 -20q-17 0 -31 20q-15 83 -6 242 q-6 34 -12 137q-5 101 -24 151.5t-81 84.5q-17 8 -37.5 17t-45 19.5l-38.5 16.5q-118 14 -192 14q-207 0 -309 -108q-50 -65 -50 -123q0 -24 9 -45q38 -68 77 -62q23 3 44.5 15t36 25t32 37.5t26.5 39.5t26 45.5t24 42.5q75 47 148 38t102 -69q15 -78 -19 -108 q-81 -20 -147 -60q-42 -33 -140 -69q-98 -31 -147 -64q-149 -82 -149 -262zM223 1116q0 -47 41 -100q21 -21 62 -21q33 0 51 15q59 44 59 110q0 19 -6 37q-18 64 -104 64q-19 0 -29 -2q-34 -15 -61 -52q-13 -26 -13 -51zM313 256q0 48 27 92q52 43 109 66q53 19 104 57 q65 39 125 39q0 -18 6 -64q4 -62 4 -73q0 -93 -55 -117q-114 -69 -121 -74q-74 -44 -137 -35q-62 35 -62 109zM643 1110q0 -51 27 -83t69 -32q39 0 60 15q59 44 59 110q0 19 -6 37q-18 64 -104 64q-19 0 -29 -2q-36 -16 -62 -52q-14 -25 -14 -57z" />
<glyph unicode="&#xe5;" horiz-adv-x="1101" d="M66 176q0 -40 8 -76q15 -82 176 -106q32 -4 51 -4t34.5 1t28.5 2t29.5 6t26.5 7.5t31 12.5t31.5 14.5t39 20.5t43 24t55 31t62.5 36q27 -9 27 -39v-51q15 -60 114 -75q145 75 209 114q39 14 39 66q0 11 -10 76q-19 3 -49 -15q-29 -20 -43 -20q-17 0 -31 20q-15 83 -6 242 q-6 34 -12 137q-5 101 -24 151.5t-81 84.5q-17 8 -37.5 17t-45 19.5l-38.5 16.5q-118 14 -192 14q-207 0 -309 -108q-50 -65 -50 -123q0 -24 9 -45q38 -68 77 -62q23 3 44.5 15t36 25t32 37.5t26.5 39.5t26 45.5t24 42.5q75 47 148 38t102 -69q15 -78 -19 -108 q-81 -20 -147 -60q-42 -33 -140 -69q-98 -31 -147 -64q-149 -82 -149 -262zM313 256q0 48 27 92q52 43 109 66q53 19 104 57q65 39 125 39q0 -18 6 -64q4 -62 4 -73q0 -93 -55 -117q-114 -69 -121 -74q-74 -44 -137 -35q-62 35 -62 109zM371 1118q0 -42 18 -80 q59 -77 139 -77q63 0 127 73q23 30 23 66q0 34 -21 86q-39 63 -129 78q-92 -26 -135 -66q-22 -36 -22 -80zM455 1098q-12 51 61 78q80 0 80 -76q0 -17 -2 -27q-28 -28 -84 -31q-37 9 -55 56z" />
<glyph unicode="&#xe6;" horiz-adv-x="1566" d="M49 176q0 -40 8 -76q15 -82 176 -106q32 -4 50 -4q79 0 132 21t197 103q35 20 54 31q9 -4 15 -10.5t8.5 -18t3 -17.5t0 -23.5t-0.5 -20.5q15 -60 115 -75q32 13 86 43q121 -50 266 -50q41 0 64 2q144 28 231 125q62 103 62 142q0 19 -11 45q-142 -70 -198 -111 q-33 -10 -64 -10q-67 0 -186 61q-44 21 -13 70q151 99 240 201q22 37 111 104q78 60 98 109q6 15 6 37q0 42 -33 92q-125 55 -256 55q-134 0 -264 -59q-16 -11 -80 -60q-29 44 -86 70l-102 43q-118 14 -193 14q-207 0 -309 -108q-49 -64 -49 -123q0 -26 8 -45q38 -68 78 -62 q27 4 50 16.5t44.5 39.5t32.5 42.5t33.5 56.5t27.5 50q74 47 146.5 38t103.5 -69q15 -79 -18 -108q-83 -20 -148 -60q-45 -35 -141 -69q-97 -32 -145 -64q-150 -82 -150 -262zM297 256q0 48 27 92q53 44 108 66q55 20 105 57q65 39 125 39l6 -68q4 -62 4 -77q0 -77 -45 -103 q-82 -52 -115.5 -72t-75 -34t-78.5 -9q-61 34 -61 109zM913 530q0 171 121 224q53 16 80 16q44 0 68 -27q42 -20 51 -90q-23 -74 -117 -149q-123 -100 -151 -131q-12 -4 -15 -4q-14 0 -26 45q-11 83 -11 116z" />
<glyph unicode="&#xe7;" horiz-adv-x="915" d="M43 387q0 -52 10 -127q26 -98 117 -174q135 -113 346 -113q242 0 356 150q38 70 29 156h-27q-198 -103 -292 -103q-31 0 -58 6q-7 5 -30.5 19.5t-35 22t-29 20.5t-29.5 25t-21 24q-92 133 -92 246q0 44 16 90q6 47 39 72.5t115 58.5q24 4 35 4q59 0 135 -76t133 -76 q20 0 41 6q29 22 40 31t27.5 30.5t16.5 39.5q0 11 -6 26q-15 106 -138 127q-37 3 -107 10.5t-104 10.5q-274 -15 -399 -213q-88 -113 -88 -293zM313 -410q0 -18 15 -18q83 0 176.5 38.5t116.5 96.5q18 49 18 78q0 53 -72 94q-19 6 -28 9.5t-20 12t-11 19.5q0 7 4 19 q18 28 16 30t-69 2q-17 -1 -35 -47t-18 -84q0 -28 16 -28q57 0 57 -50q0 -44 -43 -84t-98 -40q-25 0 -25 -48z" />
<glyph unicode="&#xe8;" horiz-adv-x="923" d="M41 401q0 -179 123 -323q153 -105 362 -105q45 0 68 2q144 28 231 125q62 103 62 142q0 22 -10 45q-136 -67 -199 -111q-33 -10 -62 -10q-69 0 -188 61q-30 15 -12 70q148 97 239 201q24 36 111 104q78 60 98 109q6 15 6 37q0 43 -32 92q-125 55 -256 55q-135 0 -265 -59 q-228 -154 -266 -338q-10 -55 -10 -97zM285 530q0 171 121 224q53 16 81 16q45 0 66 -27q42 -20 51 -90q-23 -74 -117 -149q-123 -100 -151 -131q-8 -4 -12 -4q-14 0 -29 45q-10 75 -10 116zM289 1212q30 -43 192 -202q17 -17 33 -17h88q13 0 0 29q-27 66 -129 199 q-15 18 -24 18h-154q-24 0 -6 -27z" />
<glyph unicode="&#xe9;" horiz-adv-x="923" d="M41 401q0 -179 123 -323q153 -105 362 -105q45 0 68 2q144 28 231 125q62 103 62 142q0 22 -10 45q-136 -67 -199 -111q-33 -10 -62 -10q-69 0 -188 61q-30 15 -12 70q148 97 239 201q24 36 111 104q78 60 98 109q6 15 6 37q0 43 -32 92q-125 55 -256 55q-135 0 -265 -59 q-228 -154 -266 -338q-10 -55 -10 -97zM285 530q0 171 121 224q53 16 81 16q45 0 66 -27q42 -20 51 -90q-23 -74 -117 -149q-123 -100 -151 -131q-8 -4 -12 -4q-14 0 -29 45q-10 75 -10 116zM416 993h88q16 0 33 17q162 159 192 202q18 27 -6 27h-154q-9 0 -24 -18 q-102 -133 -129 -199q-13 -29 0 -29z" />
<glyph unicode="&#xea;" horiz-adv-x="923" d="M41 401q0 -179 123 -323q153 -105 362 -105q45 0 68 2q144 28 231 125q62 103 62 142q0 22 -10 45q-136 -67 -199 -111q-33 -10 -62 -10q-69 0 -188 61q-30 15 -12 70q148 97 239 201q24 36 111 104q78 60 98 109q6 15 6 37q0 43 -32 92q-125 55 -256 55q-135 0 -265 -59 q-228 -154 -266 -338q-10 -55 -10 -97zM221 1010q0 -19 78 -19q71 0 94 13q56 50 78 100q3 6 27 6q20 0 28 -4q48 -59 72 -102q10 -13 80 -13q90 0 90 23q0 6 -4 10q-117 137 -174 186q-31 16 -85.5 15.5t-82.5 -8.5q-41 -26 -103 -95q-64 -74 -92 -102q-6 -6 -6 -10z M285 530q0 171 121 224q53 16 81 16q45 0 66 -27q42 -20 51 -90q-23 -74 -117 -149q-123 -100 -151 -131q-8 -4 -12 -4q-14 0 -29 45q-10 75 -10 116z" />
<glyph unicode="&#xeb;" horiz-adv-x="923" d="M41 401q0 -179 123 -323q153 -105 362 -105q45 0 68 2q144 28 231 125q62 103 62 142q0 22 -10 45q-136 -67 -199 -111q-33 -10 -62 -10q-69 0 -188 61q-30 15 -12 70q148 97 239 201q24 36 111 104q78 60 98 109q6 15 6 37q0 43 -32 92q-125 55 -256 55q-135 0 -265 -59 q-228 -154 -266 -338q-10 -55 -10 -97zM195 1116q0 -47 41 -100q21 -21 61 -21q33 0 51 15q60 45 60 110q0 16 -7 37q-18 64 -104 64q-19 0 -29 -2q-34 -15 -61 -52q-12 -24 -12 -51zM285 530q0 171 121 224q53 16 81 16q45 0 66 -27q42 -20 51 -90q-23 -74 -117 -149 q-123 -100 -151 -131q-8 -4 -12 -4q-14 0 -29 45q-10 75 -10 116zM614 1110q0 -51 27.5 -83t69.5 -32q38 0 59 15q59 44 59 110q0 19 -6 37q-18 64 -104 64q-19 0 -29 -2q-34 -15 -61 -52q-15 -27 -15 -57z" />
<glyph unicode="&#xec;" horiz-adv-x="579" d="M35 1212q30 -43 192 -202q17 -17 33 -17h88q13 0 0 29q-27 66 -129 199q-15 18 -24 18h-154q-24 0 -6 -27zM48 604q0 -10 1 -20q12 -21 29 -21q3 0 49 17q35 15 53 10q16 -2 35 -45q-13 -70 -10 -187q3 -130 -6 -188q-8 -18 -68 -57q-52 -27 -49 -72q9 -46 45 -55 q35 7 73 10t90.5 3t79.5 -1t95.5 -4t81.5 -4q39 39 39 65q0 29 -70 66q-69 37 -78 76q-14 186 -14 301q0 141 22 264q3 97 -49 100q-38 -20 -145 -61q-107 -39 -138 -60q-67 -45 -66 -137z" />
<glyph unicode="&#xed;" horiz-adv-x="579" d="M38 604q0 -10 1 -20q12 -21 29 -21q3 0 49 17q35 15 53 10q16 -2 35 -45q-13 -70 -10 -187q3 -124 -7 -188q-8 -19 -67 -57q-52 -27 -49 -72q9 -46 45 -55q35 7 73 10t90.5 3t79.5 -1t95.5 -4t81.5 -4q38 38 38 65q0 29 -69 66t-78 76q-14 186 -14 301q0 141 22 264 q3 97 -49 100q-38 -20 -145 -61q-107 -39 -138 -60q-67 -45 -66 -137zM209 993h88q16 0 33 17q162 159 192 202q18 27 -6 27h-154q-9 0 -24 -18q-102 -133 -129 -199q-13 -29 0 -29z" />
<glyph unicode="&#xee;" horiz-adv-x="579" d="M6 1010q0 -19 78 -19q71 0 94 13q56 50 78 100q3 6 27 6q20 0 28 -4q48 -59 72 -102q10 -13 80 -13q90 0 90 23q0 6 -4 10q-117 137 -174 186q-31 16 -85.5 15.5t-82.5 -8.5q-41 -26 -103 -95q-64 -74 -92 -102q-6 -6 -6 -10zM30 605q0 -10 1 -21q12 -21 28 -21 q4 0 50 17q35 15 53 10q16 -2 35 -45q-14 -74 -11 -187q3 -130 -6 -188q-8 -19 -67 -57q-53 -27 -50 -72q9 -45 46 -55q35 7 73 10t90.5 3t79.5 -1t94.5 -4t81.5 -4q39 39 39 65q0 29 -69 66t-78 76q-14 186 -14 301q0 141 22 264q3 97 -49 100q-35 -18 -146 -61 q-106 -39 -138 -60q-65 -45 -65 -136z" />
<glyph unicode="&#xef;" horiz-adv-x="579" d="M-6 1116q0 -47 41 -100q21 -21 61 -21q33 0 51 15q60 45 60 110q0 19 -6 37q-18 64 -105 64q-18 0 -28 -2q-36 -16 -62 -52q-12 -24 -12 -51zM30 605q0 -10 1 -21q12 -21 28 -21q4 0 50 17q35 15 53 10q16 -2 35 -45q-14 -74 -11 -187q3 -130 -6 -188q-8 -19 -67 -57 q-53 -27 -50 -72q9 -45 46 -55q35 7 73 10t90.5 3t79.5 -1t94.5 -4t81.5 -4q39 39 39 65q0 29 -69 66t-78 76q-14 186 -14 301q0 141 22 264q3 97 -49 100q-35 -18 -146 -61q-106 -39 -138 -60q-65 -45 -65 -136zM414 1110q0 -51 27 -83t69 -32q38 0 59 15q60 45 60 110 q0 19 -6 37q-18 64 -105 64q-19 0 -29 -2q-34 -15 -61 -52q-14 -25 -14 -57z" />
<glyph unicode="&#xf1;" horiz-adv-x="1220" d="M57 696q0 -16 2 -26q10 -23 31 -23q7 0 37 10q24 9 37 9q10 0 20 -7q12 -86 9 -231q-4 -219 -3 -231q-9 -20 -69 -68q-42 -36 -40.5 -72.5t40.5 -54.5q74 16 198 8q137 -9 195 4q6 15 6 33q0 22 -16.5 47.5t-31 40t-42.5 39.5q4 45 -4 113q-8 79 -8 127q0 160 117 194 q4 3 28 20t31 22t28 18.5t32 18t28 12t31 9t28 -0.5q50 -30 50 -101q0 -13 -7 -74q-9 -52 -6 -79q17 -73 17 -156q0 -43 -2 -78t-2 -78q0 -79 12 -137q48 -31 86 -31q137 53 291 131q0 7 6 37q7 27 4 41q-14 17 -37 17q-15 0 -27 -2l-28 -4q-29 0 -45 22q3 30 -13 113 q-12 73 -6 112q-4 36 -4 58q0 45 8 108q9 70 9 103q0 96 -56 149q-70 33 -112 33q-24 0 -43 -8q-52 -30 -166 -80q-115 -48 -164 -86q-42 -31 -64 -31q-28 0 -28 68v22v23q0 66 -25 82q-22 19 -100 -2q-28 -25 -94 -50q-77 -29 -107.5 -55t-30.5 -78zM293 1051 q-4 -11 16 -21t41 -10q59 0 86 41q15 6 31 6q33 0 106 -37t111 -37q25 0 41 8q66 19 112 73.5t52 121.5q1 16 -13 23t-32 2q-12 4 -17 4q-18 0 -41 -29q-22 -32 -38 -35q-41 3 -127 45q-79 39 -129 39q-26 0 -56 -10q-96 -60 -143 -184z" />
<glyph unicode="&#xf2;" d="M45 455q0 -49 59 -209q46 -148 283 -256q61 -25 121 -25q97 0 250 72q204 100 219 463q-88 300 -309 356q-62 35 -142 35q-48 0 -89.5 -6.5t-92 -28t-93.5 -57.5t-89 -98.5t-84 -147.5q-33 -42 -33 -98zM289 1212q30 -43 192 -202q17 -17 33 -17h88q13 0 0 29 q-27 66 -129 199q-15 18 -24 18h-154q-24 0 -6 -27zM319 430q6 88 15 172q15 96 74 143q66 29 124 29q35 0 54 -8q95 -65 110 -209l13 -250q-9 -164 -140 -219q-19 -8 -45 -8q-71 0 -133 53q-9 10 -16.5 22.5t-13 23.5t-10.5 28.5t-8.5 28t-7 32t-5 31.5t-3.5 34t-3 31.5 t-3 34t-2 31.5z" />
<glyph unicode="&#xf3;" d="M45 455q0 -49 59 -209q46 -148 283 -256q61 -25 121 -25q97 0 250 72q204 100 219 463q-88 300 -309 356q-62 35 -142 35q-48 0 -89.5 -6.5t-92 -28t-93.5 -57.5t-89 -98.5t-84 -147.5q-33 -42 -33 -98zM319 430q6 88 15 172q15 96 74 143q66 29 124 29q35 0 54 -8 q95 -65 110 -209l13 -250q-9 -164 -140 -219q-19 -8 -45 -8q-71 0 -133 53q-9 10 -16.5 22.5t-13 23.5t-10.5 28.5t-8.5 28t-7 32t-5 31.5t-3.5 34t-3 31.5t-3 34t-2 31.5zM416 993h88q16 0 33 17q162 159 192 202q18 27 -6 27h-154q-9 0 -24 -18q-102 -133 -129 -199 q-13 -29 0 -29z" />
<glyph unicode="&#xf4;" d="M45 455q0 -49 59 -209q46 -148 283 -256q61 -25 121 -25q97 0 250 72q204 100 219 463q-88 300 -309 356q-62 35 -142 35q-48 0 -89.5 -6.5t-92 -28t-93.5 -57.5t-89 -98.5t-84 -147.5q-33 -42 -33 -98zM246 1016q0 -19 78 -19q71 0 94 13q56 50 78 100q3 6 26 6 q21 0 29 -4q48 -59 72 -102q10 -13 79 -13q91 0 91 23q0 5 -5 10q-121 141 -174 187q-31 16 -85.5 15t-82.5 -9q-38 -25 -102 -95q-64 -74 -92 -102q-6 -6 -6 -10zM319 430q6 88 15 172q15 96 74 143q66 29 124 29q35 0 54 -8q95 -65 110 -209l13 -250q-9 -164 -140 -219 q-19 -8 -45 -8q-71 0 -133 53q-9 10 -16.5 22.5t-13 23.5t-10.5 28.5t-8.5 28t-7 32t-5 31.5t-3.5 34t-3 31.5t-3 34t-2 31.5z" />
<glyph unicode="&#xf5;" d="M45 455q0 -49 59 -209q46 -148 283 -256q61 -25 121 -25q97 0 250 72q204 100 219 463q-88 300 -309 356q-62 35 -142 35q-48 0 -89.5 -6.5t-92 -28t-93.5 -57.5t-89 -98.5t-84 -147.5q-33 -42 -33 -98zM221 1051q-4 -11 16.5 -21t41.5 -10q59 0 86 41q15 6 30 6 q34 0 107 -37t110 -37q25 0 41 8q66 19 112 73.5t52 121.5q1 16 -13 23t-32 2q-12 4 -16 4q-18 0 -41 -29q-22 -32 -39 -35q-41 3 -127 45q-79 39 -129 39q-25 0 -55 -10q-97 -60 -144 -184zM319 430q6 88 15 172q15 96 74 143q66 29 124 29q35 0 54 -8q95 -65 110 -209 l13 -250q-9 -164 -140 -219q-19 -8 -45 -8q-71 0 -133 53q-9 10 -16.5 22.5t-13 23.5t-10.5 28.5t-8.5 28t-7 32t-5 31.5t-3.5 34t-3 31.5t-3 34t-2 31.5z" />
<glyph unicode="&#xf6;" d="M45 455q0 -49 59 -209q46 -148 283 -256q61 -25 121 -25q97 0 250 72q204 100 219 463q-88 300 -309 356q-62 35 -142 35q-48 0 -89.5 -6.5t-92 -28t-93.5 -57.5t-89 -98.5t-84 -147.5q-33 -42 -33 -98zM195 1116q0 -47 41 -100q21 -21 61 -21q33 0 51 15q60 45 60 110 q0 16 -7 37q-18 64 -104 64q-19 0 -29 -2q-34 -15 -61 -52q-12 -24 -12 -51zM319 430q6 88 15 172q15 96 74 143q66 29 124 29q35 0 54 -8q95 -65 110 -209l13 -250q-9 -164 -140 -219q-19 -8 -45 -8q-71 0 -133 53q-9 10 -16.5 22.5t-13 23.5t-10.5 28.5t-8.5 28t-7 32 t-5 31.5t-3.5 34t-3 31.5t-3 34t-2 31.5zM614 1110q0 -51 27.5 -83t69.5 -32q38 0 59 15q59 44 59 110q0 19 -6 37q-18 64 -104 64q-19 0 -29 -2q-34 -15 -61 -52q-15 -27 -15 -57z" />
<glyph unicode="&#xf8;" d="M45 457q0 -36 23 -107l36 -104q11 -44 60 -105q-79 -92 -84 -100q-4 -5 11.5 -20t33.5 -26.5t22 -6.5q9 5 86 90q158 -113 275 -113q100 0 250 72q204 100 219 463q-41 151 -129 245q62 71 76 80q1 3 2 8t2 7v2q0 31 -54 53q-6 -3 -92 -92q-50 37 -114 53q-62 35 -142 35 q-48 0 -89.5 -6.5t-92 -28t-93.5 -57.5t-89 -98.5t-84 -147.5q-33 -42 -33 -96zM319 430q6 88 15 172q15 96 74 143q66 29 124 29q35 0 54 -8q53 -37 78 -86l-336 -361zM350 205l344 375q6 -41 6 -134q0 -92 9 -139q-9 -164 -140 -219q-19 -8 -45 -8q-71 0 -133 53 q-32 40 -41 72z" />
<glyph unicode="&#xf9;" horiz-adv-x="1230" d="M57 647q0 -19 2 -29q14 -20 33 -20q12 0 41 16q31 17 43 17q14 0 31 -17q14 -192 -8 -438q1 -5 4 -25t4 -27t4.5 -25t6.5 -26t8.5 -22.5t11.5 -22.5t15 -17t19 -15q61 -25 121 -25q87 0 205 56q22 11 90.5 46.5t104.5 55.5q8 -11 8 -27q0 -10 -6 -34q-3 -14 -4.5 -22 t-1.5 -21.5t4.5 -21t15.5 -12.5t29 -3q53 26 151 32q133 9 154 15q47 14 57 28q5 6 6 15q2 6 2 20q0 58 -80 52q-61 12 -73 73q-2 28 2 131q6 95 6 125q0 27 -6 80q-8 47 -8 78q0 23 6 70t6 65q0 42 -23 80q-27 12 -67 12q-49 0 -107 -18q-10 -10 -123 -68q-75 -40 -75 -102 q0 -11 4 -35q4 -20 9.5 -29.5t15.5 -9.5t18.5 4.5t25.5 14.5q29 16 39 16q19 0 27 -14q-4 -28 -4 -50q0 -37 12 -108q10 -78 10 -107q0 -73 -41 -120q-106 -68 -237 -80q-54 0 -88 67q-14 107 -11 281l7 285q-9 35 -19 45q-41 56 -98 47q-30 -23 -111 -60 q-91 -40 -129.5 -77t-38.5 -99zM289 1212q30 -43 192 -202q17 -17 33 -17h88q13 0 0 29q-27 66 -129 199q-15 18 -24 18h-154q-24 0 -6 -27z" />
<glyph unicode="&#xfa;" horiz-adv-x="1230" d="M57 647q0 -19 2 -29q14 -20 33 -20q12 0 41 16q31 17 43 17q14 0 31 -17q14 -192 -8 -438q1 -5 4 -25t4 -27t4.5 -25t6.5 -26t8.5 -22.5t11.5 -22.5t15 -17t19 -15q61 -25 121 -25q87 0 205 56q22 11 90.5 46.5t104.5 55.5q8 -11 8 -27q0 -10 -6 -34q-3 -14 -4.5 -22 t-1.5 -21.5t4.5 -21t15.5 -12.5t29 -3q53 26 151 32q133 9 154 15q47 14 57 28q5 6 6 15q2 6 2 20q0 58 -80 52q-61 12 -73 73q-2 28 2 131q6 95 6 125q0 27 -6 80q-8 47 -8 78q0 23 6 70t6 65q0 42 -23 80q-27 12 -67 12q-49 0 -107 -18q-10 -10 -123 -68q-75 -40 -75 -102 q0 -11 4 -35q4 -20 9.5 -29.5t15.5 -9.5t18.5 4.5t25.5 14.5q29 16 39 16q19 0 27 -14q-4 -28 -4 -50q0 -37 12 -108q10 -78 10 -107q0 -73 -41 -120q-106 -68 -237 -80q-54 0 -88 67q-14 107 -11 281l7 285q-9 35 -19 45q-41 56 -98 47q-30 -23 -111 -60 q-91 -40 -129.5 -77t-38.5 -99zM502 993h88q16 0 33 17q162 159 192 202q18 27 -6 27h-154q-9 0 -24 -18q-102 -133 -129 -199q-13 -29 0 -29z" />
<glyph unicode="&#xfb;" horiz-adv-x="1230" d="M57 647q0 -19 2 -29q14 -20 33 -20q12 0 41 16q31 17 43 17q14 0 31 -17q14 -192 -8 -438q1 -5 4 -25t4 -27t4.5 -25t6.5 -26t8.5 -22.5t11.5 -22.5t15 -17t19 -15q61 -25 121 -25q87 0 205 56q22 11 90.5 46.5t104.5 55.5q8 -11 8 -27q0 -10 -6 -34q-3 -14 -4.5 -22 t-1.5 -21.5t4.5 -21t15.5 -12.5t29 -3q53 26 151 32q133 9 154 15q47 14 57 28q5 6 6 15q2 6 2 20q0 58 -80 52q-61 12 -73 73q-2 28 2 131q6 95 6 125q0 27 -6 80q-8 47 -8 78q0 23 6 70t6 65q0 42 -23 80q-27 12 -67 12q-49 0 -107 -18q-10 -10 -123 -68q-75 -40 -75 -102 q0 -11 4 -35q4 -20 9.5 -29.5t15.5 -9.5t18.5 4.5t25.5 14.5q29 16 39 16q19 0 27 -14q-4 -28 -4 -50q0 -37 12 -108q10 -78 10 -107q0 -73 -41 -120q-106 -68 -237 -80q-54 0 -88 67q-14 107 -11 281l7 285q-9 35 -19 45q-41 56 -98 47q-30 -23 -111 -60 q-91 -40 -129.5 -77t-38.5 -99zM322 1010q0 -19 77 -19q72 0 95 13q55 48 77 100q3 6 27 6q21 0 29 -4q44 -55 71 -102q10 -13 80 -13q90 0 90 23q0 6 -4 10q-117 137 -174 186q-31 16 -85.5 15.5t-82.5 -8.5q-38 -25 -102 -95q-64 -74 -92 -102q-6 -6 -6 -10z" />
<glyph unicode="&#xfc;" horiz-adv-x="1230" d="M57 647q0 -19 2 -29q14 -20 33 -20q12 0 41 16q31 17 43 17q14 0 31 -17q14 -192 -8 -438q1 -5 4 -25t4 -27t4.5 -25t6.5 -26t8.5 -22.5t11.5 -22.5t15 -17t19 -15q61 -25 121 -25q87 0 205 56q22 11 90.5 46.5t104.5 55.5q8 -11 8 -27q0 -10 -6 -34q-3 -14 -4.5 -22 t-1.5 -21.5t4.5 -21t15.5 -12.5t29 -3q53 26 151 32q133 9 154 15q47 14 57 28q5 6 6 15q2 6 2 20q0 58 -80 52q-61 12 -73 73q-2 28 2 131q6 95 6 125q0 27 -6 80q-8 47 -8 78q0 23 6 70t6 65q0 42 -23 80q-27 12 -67 12q-49 0 -107 -18q-10 -10 -123 -68q-75 -40 -75 -102 q0 -11 4 -35q4 -20 9.5 -29.5t15.5 -9.5t18.5 4.5t25.5 14.5q29 16 39 16q19 0 27 -14q-4 -28 -4 -50q0 -37 12 -108q10 -78 10 -107q0 -73 -41 -120q-106 -68 -237 -80q-54 0 -88 67q-14 107 -11 281l7 285q-9 35 -19 45q-41 56 -98 47q-30 -23 -111 -60 q-91 -40 -129.5 -77t-38.5 -99zM295 1116q0 -47 41 -100q21 -21 61 -21q34 0 52 15q59 44 59 110q0 19 -6 37q-18 64 -105 64q-18 0 -28 -2q-36 -16 -62 -52q-12 -24 -12 -51zM715 1110q0 -51 27 -83t69 -32q38 0 59 15q60 45 60 110q0 19 -6 37q-18 64 -105 64 q-18 0 -28 -2q-36 -16 -62 -52q-14 -25 -14 -57z" />
<glyph unicode="&#xfd;" horiz-adv-x="1110" d="M53 782q0 -24 13 -47q15 -41 65 -41q15 0 27 2h24q38 0 54 -16q2 -22 -5 -45q-165 -143 -165 -344q0 -63 18 -125q86 -164 195 -170q89 -21 159 -21q158 0 250 99q25 14 39 14q13 0 21 -14q10 -55 10 -99q0 -138 -74 -233q-86 -83 -219 -86q-23 3 -49 35q-31 39 -39 47 q-76 31 -144 31q-41 0 -83 -17q-54 -51 -54 -96q0 -9 4 -25q76 -113 322 -116q133 -1 262.5 57t220.5 158q82 143 82 372q0 88 -14 252q-13 172 -10 248q0 50 69 107q70 55 70 100q0 14 -2 20q-21 27 -60 27q-18 0 -63 -10q-55 -15 -77 -16.5t-91 8.5q-66 14 -96 14 q-37 0 -64 -12q-10 -10 -10 -21q0 -26 49 -102q50 -78 60 -121q-2 -216 -11 -273q-13 -79 -65 -142q-3 -4 -6 -7q-66 -57 -138 -57q-18 0 -28 2q-80 34 -120 99t-40 134q0 19 4 43.5t8.5 43t15 50.5t15 46t18.5 51t17 45q0 24 8 65q6 47 6 68q0 58 -33 84q-195 -9 -309 4 q-37 -15 -37 -70zM444 993h88q16 0 33 17q165 162 193 202q18 27 -6 27h-154q-10 0 -25 -18q-102 -133 -129 -199q-13 -29 0 -29z" />
<glyph unicode="&#xff;" horiz-adv-x="1110" d="M53 782q0 -24 13 -47q15 -41 65 -41q15 0 27 2h24q38 0 54 -16q2 -22 -5 -45q-165 -143 -165 -344q0 -63 18 -125q86 -164 195 -170q89 -21 159 -21q158 0 250 99q25 14 39 14q13 0 21 -14q10 -55 10 -99q0 -138 -74 -233q-86 -83 -219 -86q-23 3 -49 35q-31 39 -39 47 q-76 31 -144 31q-41 0 -83 -17q-54 -51 -54 -96q0 -9 4 -25q76 -113 322 -116q133 -1 262.5 57t220.5 158q82 143 82 372q0 88 -14 252q-13 172 -10 248q0 50 69 107q70 55 70 100q0 14 -2 20q-21 27 -60 27q-18 0 -63 -10q-55 -15 -77 -16.5t-91 8.5q-66 14 -96 14 q-37 0 -64 -12q-10 -10 -10 -21q0 -26 49 -102q50 -78 60 -121q-2 -216 -11 -273q-13 -79 -65 -142q-3 -4 -6 -7q-66 -57 -138 -57q-18 0 -28 2q-80 34 -120 99t-40 134q0 19 4 43.5t8.5 43t15 50.5t15 46t18.5 51t17 45q0 24 8 65q6 47 6 68q0 58 -33 84q-195 -9 -309 4 q-37 -15 -37 -70zM223 1116q0 -47 41 -100q21 -21 62 -21q33 0 51 15q59 44 59 110q0 19 -6 37q-18 64 -104 64q-19 0 -29 -2q-34 -15 -61 -52q-13 -26 -13 -51zM643 1110q0 -51 27 -83t69 -32q39 0 60 15q59 44 59 110q0 19 -6 37q-18 64 -104 64q-19 0 -29 -2 q-36 -16 -62 -52q-14 -25 -14 -57z" />
<glyph unicode="&#x152;" horiz-adv-x="2846" d="M82 782q0 183 84 324q66 209 264 326q126 74 250 88q59 -3 143 0q108 6 133 6q135 0 273 -69t254 -210q51 74 112 129q53 36 222 97q160 16 237 16q97 0 168 -14q86 -50 232 -50q66 0 108.5 8t91.5 37q50 33 86 33q20 0 43 -10q1 -2 2 -8.5t2 -9.5q1 -4 1.5 -8.5t1 -7.5 t1.5 -5q-6 -14 -29.5 -69t-33 -77.5t-28.5 -71t-28 -78t-18.5 -68t-13.5 -70.5q2 -48 -2 -221q-1 -41 -2 -92.5t-1.5 -79.5t-0.5 -43q0 -286 71 -475q13 -36 48 -64l65 -57q20 -10 72 -13q46 0 65 -16q11 -29 11 -51q0 -78 -78 -162q-52 -27 -113 -27t-113 27 q-52 52 -79 156q-38 146 -50 170q-6 2 -22 2q-36 0 -101 -35q-66 -38 -106 -45q-115 -47 -248 -47q-228 0 -438 125q-76 62 -137 135q-49 -63 -115 -125q-59 -43 -162 -76q-148 -50 -168 -61q-70 -13 -131 -13q-161 0 -459 121q-306 229 -346 510q-18 132 -18 219zM510 764 q0 -15 2 -21q3 -41 57 -86q18 -6 59 -6.5t72.5 2.5t32.5 4q79 -10 217 -4q146 3 217 -6q-2 5 4 7.5t19 2.5q19 0 22 9q75 46 72 133q-50 80 -141 80q-27 0 -117 -17q-85 -16 -121 -16q-32 -4 -53 -4q-41 0 -104 8t-105 8q-49 0 -84 -12q-49 -34 -49 -82zM524 360 q32 -88 35 -98q25 -54 64 -80q100 -106 266 -106q42 0 94 10q180 43 227 195q3 8 31 63q21 40 21 68q0 34 -31 59q-59 33 -135 33q-64 0 -158 -27q-14 -2 -41 -2q-34 0 -119 10q-97 11 -119 11q-30 0 -65 -7q-61 -19 -70 -129zM528 1110q0 -21 2 -31q14 -25 60 -47 q214 -28 336 -31q35 15 110 21q85 5 126 21t65 67q9 126 -162 242q-88 49 -199 49q-73 0 -155 -29q-183 -103 -183 -262zM731 657h2h-2zM1688 637q3 -14 11.5 -56.5t12.5 -61.5t12.5 -56t15.5 -59.5t16.5 -50.5t20.5 -50t23 -39q3 -8 17 -8q11 0 14 8q4 106 4 174 q0 31 -4 281q-6 187 -6 276q0 123 6 222q1 7 -3.5 9.5t-12.5 0.5l-15 -6q-103 -221 -112 -584zM1962 1094q0 -19 4 -105q6 -88 6 -108q1 -38 18 -56.5t46 -13.5q33 1 66 12t71.5 38.5t60 44.5t67 58.5t56.5 51.5q9 -2 15 -6.5t10 -12t6.5 -14t4 -17.5t2 -17.5t1 -19.5 t0.5 -18q-8 -68 -8 -213q2 -130 -2 -213q-5 -13 -31 -39q-12 -4 -18 -4q-25 0 -37 39q-13 43 -23 58q-113 86 -163 102q-85 27 -142 -4q6 -52 0 -254q-6 -155 25 -252q23 -33 86 -33q20 0 96 13q214 41 315 340q29 135 29 258q0 311 -141 508q-109 151 -250 151 q-30 0 -56 -8.5t-65 -36.5q-49 -88 -49 -229z" />
<glyph unicode="&#x153;" horiz-adv-x="1597" d="M45 455q0 -49 59 -209q43 -148 283 -256q55 -25 117 -25q87 0 254 72q1 0 43 26q20 14 30 11q153 -105 363 -105q45 0 68 2q144 28 231 125q61 101 61 142q0 22 -10 45q-142 -70 -198 -111q-33 -10 -62 -10q-69 0 -188 61q-31 15 -13 70q151 99 240 201q22 37 111 104 q78 60 98 109q6 15 6 36q0 43 -33 93q-125 55 -256 55q-132 0 -264 -60q-86 -59 -129 -102q-66 97 -188 127q-62 35 -144 35q-47 0 -88 -6.5t-91.5 -28t-94 -57.5t-89 -98.5t-83.5 -147.5q-33 -42 -33 -98zM319 430q2 28 6.5 86t6.5 86q14 94 76 143q63 29 124 29 q35 0 54 -8q95 -65 110 -209l13 -250q-9 -164 -140 -219q-19 -8 -47 -8q-69 0 -131 53q-43 46 -59 139zM952 530q0 171 121 224q53 16 80 16q44 0 68 -27q42 -20 51 -90q-23 -74 -117 -149q-123 -100 -151 -131q-12 -4 -15 -4q-14 0 -26 45q-11 83 -11 116z" />
<glyph unicode="&#x178;" horiz-adv-x="2088" d="M100 1417q23 51 74 51q21 0 80 -16t84 -16q11 0 31 4q116 -6 286 30q181 39 281 39q41 0 61 -2q87 -9 195 -129q33 -62 33 -127q0 -64 -40.5 -112t-121.5 -64q-58 -3 -117 62q-4 8 -4 12q0 10 14 18q10 6 17 13q24 65 -3.5 118t-88.5 64q-102 0 -117 -74q-14 -32 -14 -71 q0 -21 5.5 -43.5t19.5 -52t21.5 -43.5t29.5 -51.5t26 -43.5q165 -337 211 -430q17 -26 70 -8q76 120 180 350q120 266 168 360q-15 38 -99 197q-9 58 25 76q29 2 61 -0.5t75 -12.5t67 -16t79 -22.5t68 -20.5q4 2 178 2q106 0 168 -26q28 -28 6 -70q-7 -21 -41.5 -47.5 t-65.5 -42.5l-30 -17q-80 -61 -119.5 -137.5t-101.5 -257.5q-47 -139 -90 -209q-83 -99 -164 -321q-85 -232 -158 -322q-9 -20 -26.5 -61t-26.5 -62q-26 -71 -26 -129q0 -41 16 -84q5 -14 12 -47q8 -27 8 -49q0 -27 -16 -49q-129 -14 -184 -14q-114 0 -181 34q-20 2 -63 2 q-77 0 -203 -14q-129 -14 -205 -14q-56 0 -102 6q-180 41 -201 176q-6 30 -6 64q0 119 74 237q45 57 149 57q51 0 92.5 -16t81.5 -65q46 -55 46 -107t-46 -98q-13 -23 -28 -23q-9 0 -27 15q-15 9 -31 14q-20 0 -36 -18t-20.5 -41t7 -47t41.5 -35q190 -12 273 120 q112 130 194 375q-33 88 -155 281q-12 36 -26.5 74.5t-35 84.5t-35.5 80t-43.5 90.5t-42 84.5t-47 93t-44 84t-48 90.5t-43.5 82.5q-65 135 -240 159q-42 25 -45 78zM840 1747q0 27 12 51q26 36 61 51q10 2 29 2q87 0 105 -63q6 -18 6 -37q0 -66 -60 -111q-17 -14 -51 -14 q-40 0 -61 21q-41 53 -41 100zM969 -184q-34 -60 4 -95q8 -8 24 -8q23 0 54 25q15 28 70 144t168 364.5t224 505.5q111 264 220 436q20 29 20 61q0 38 -35 47q-35 0 -51 -16q-80 -80 -143 -233q-44 -127 -97 -269q-98 -161 -235 -477q-156 -360 -223 -485zM1260 1741 q0 32 14 57q26 36 61 51q10 2 29 2q86 0 104 -63q7 -21 7 -37q0 -66 -60 -111q-20 -14 -59 -14q-42 0 -69 32t-27 83z" />
<glyph unicode="&#x2c6;" horiz-adv-x="1126" d="M279 1010q0 -19 77 -19q72 0 95 13q55 48 77 100q3 6 27 6q21 0 29 -4q44 -55 71 -102q10 -13 80 -13q90 0 90 23q0 6 -4 10q-117 137 -174 186q-31 16 -85.5 15.5t-82.5 -8.5q-38 -25 -102 -95q-64 -74 -92 -102q-6 -6 -6 -10z" />
<glyph unicode="&#x2dc;" horiz-adv-x="921" d="M164 1051q-4 -11 16 -21t41 -10q59 0 86 41q15 6 31 6q33 0 106 -37t111 -37q25 0 41 8q66 19 112 73.5t52 121.5q1 16 -13 23t-32 2q-12 4 -17 4q-18 0 -41 -29q-22 -32 -39 -35q-40 3 -126 45q-79 39 -130 39q-25 0 -55 -10q-96 -60 -143 -184z" />
<glyph unicode="&#x2000;" horiz-adv-x="938" />
<glyph unicode="&#x2001;" horiz-adv-x="1876" />
<glyph unicode="&#x2002;" horiz-adv-x="938" />
<glyph unicode="&#x2003;" horiz-adv-x="1876" />
<glyph unicode="&#x2004;" horiz-adv-x="625" />
<glyph unicode="&#x2005;" horiz-adv-x="469" />
<glyph unicode="&#x2006;" horiz-adv-x="312" />
<glyph unicode="&#x2007;" horiz-adv-x="312" />
<glyph unicode="&#x2008;" horiz-adv-x="234" />
<glyph unicode="&#x2009;" horiz-adv-x="375" />
<glyph unicode="&#x200a;" horiz-adv-x="104" />
<glyph unicode="&#x2010;" horiz-adv-x="675" d="M98 547q0 -101 25 -101h405q25 0 25 95q0 67 -14 75q-39 20 -133 2q-137 15 -201 9q-6 -1 -49 2q-26 3 -41 -6q-17 -10 -17 -76z" />
<glyph unicode="&#x2011;" horiz-adv-x="675" d="M98 547q0 -101 25 -101h405q25 0 25 95q0 67 -14 75q-39 20 -133 2q-137 15 -201 9q-6 -1 -49 2q-26 3 -41 -6q-17 -10 -17 -76z" />
<glyph unicode="&#x2012;" horiz-adv-x="675" d="M98 547q0 -101 25 -101h405q25 0 25 95q0 67 -14 75q-39 20 -133 2q-137 15 -201 9q-6 -1 -49 2q-26 3 -41 -6q-17 -10 -17 -76z" />
<glyph unicode="&#x2013;" horiz-adv-x="1228" d="M57 496q0 -101 25 -101q193 0 498 2h565q24 0 24 84q0 62 -14 70q-25 12 -121 18t-139 -2q-65 17 -176 11q-134 -9 -180 -3l-236 3q-212 3 -229 -7t-17 -75z" />
<glyph unicode="&#x2014;" horiz-adv-x="1740" d="M57 496q0 -101 25 -101q279 0 756 2h823q25 0 25 84q0 61 -15 70q-23 12 -408 19.5t-429 -3.5q-83 22 -299 13q-257 -13 -316 -5q-1 0 -76 3q-28 -1 -45 0.5t-26 -7t-12 -24.5t-3 -51z" />
<glyph unicode="&#x2018;" horiz-adv-x="512" d="M111 1122q0 -161 147 -161q33 0 64 8q21 12 33 27.5t40 62.5q6 18 6 41q0 47 -26 86q-15 30 -58 51q-42 17 -59 41q-4 12 -4 22q0 35 78 154l12 29q10 20 10 28q0 16 -28 19q-86 -49 -150 -139l-37 -95q-28 -77 -28 -174z" />
<glyph unicode="&#x2019;" horiz-adv-x="512" d="M104 1399q0 -8 5 -23q3 -55 69 -106q7 -7 37 -10q23 -1 36 -21.5t13 -48.5q0 -36 -35 -86l-55 -74q-18 -54 0 -63q99 27 164 151q0 26 24 66q25 42 25 65q0 15 -2 21q0 15 12 45q11 37 11 45q0 18 -13 31q6 12 6 22q0 16 -12 37q-14 20 -14 33q-43 55 -119 55 q-60 0 -106 -43.5t-46 -95.5z" />
<glyph unicode="&#x201a;" horiz-adv-x="512" d="M106 133q0 -33 42 -78.5t88 -58.5q16 -3 16 -31q0 -33 -19 -65q-6 -31 -49 -80q-45 -48 -45 -70q0 -10 5.5 -17t13.5 -7q21 0 48.5 16.5t37.5 36.5q126 108 147 287q15 27 15 61q0 78 -44 124t-104 46q-64 0 -108 -47q-44 -41 -44 -117z" />
<glyph unicode="&#x201c;" horiz-adv-x="819" d="M86 1122q0 -161 147 -161q33 0 64 8q22 13 34.5 28.5t39.5 61.5q6 18 6 41q0 46 -27 86q-15 31 -57 51q-44 18 -60 41q-4 12 -4 22q0 35 78 154l12 29q11 22 11 28q0 16 -29 19q-85 -48 -149 -139l-37 -95q-29 -79 -29 -174zM442 1122q0 -161 148 -161q32 0 63 8 q22 13 34.5 28.5t39.5 61.5q6 18 6 41q0 47 -26 86q-15 30 -58 51q-42 17 -59 41q-4 12 -4 22q0 35 78 154l12 29q10 20 10 28q0 16 -29 19q-85 -48 -149 -139l-37 -95q-29 -79 -29 -174z" />
<glyph unicode="&#x201d;" horiz-adv-x="819" d="M86 1391q0 -45 27 -86q17 -33 57 -50q43 -21 59 -43q4 -12 4 -22q0 -36 -77 -154l-13 -26q-10 -23 -10 -31q0 -15 29 -18q85 48 149 139q57 143 62 192q4 54 4 76q0 83 -39.5 122.5t-108.5 39.5q-32 0 -63 -8q-22 -13 -34.5 -28.5t-39.5 -61.5q-6 -18 -6 -41zM442 1391 q0 -45 27 -86q17 -33 57 -50q45 -22 60 -43q4 -12 4 -22q0 -35 -78 -154q-2 -6 -12 -26q-11 -26 -11 -31q0 -15 29 -18q86 49 150 139q56 140 61 192q4 54 4 76q0 83 -39 122.5t-108 39.5q-33 0 -64 -8q-21 -12 -33 -27.5t-40 -62.5q-7 -21 -7 -41z" />
<glyph unicode="&#x201e;" horiz-adv-x="819" d="M82 133q0 -33 41.5 -78.5t87.5 -58.5q16 -3 16 -31q0 -35 -18 -65q-6 -31 -49 -80q-45 -48 -45 -70q0 -10 5 -17t13 -7q21 0 48.5 16.5t37.5 36.5q127 109 148 287q14 25 14 61q0 78 -44 124t-104 46q-64 0 -108 -47q-43 -40 -43 -117zM438 133q0 -33 41.5 -78.5 t87.5 -58.5q17 -3 17 -31q0 -33 -19 -65q-6 -31 -49 -80q-45 -48 -45 -70q0 -10 5 -17t13 -7q21 0 48.5 16.5t37.5 36.5q127 109 148 287q14 25 14 61q0 78 -43.5 124t-103.5 46q-65 0 -109 -47q-43 -40 -43 -117z" />
<glyph unicode="&#x2022;" d="M150 748q1 -146 105.5 -247.5t250.5 -99.5q142 2 242.5 105t99.5 248q-2 143 -105.5 246t-248.5 102q-93 -1 -173 -49.5t-126 -130t-45 -174.5z" />
<glyph unicode="&#x2026;" horiz-adv-x="1433" d="M18 117q13 -48 53 -86.5t87 -38.5q55 0 99 45.5t44 101.5q0 39 -20 72q-47 59 -131 59q-57 0 -89 -32q-25 -16 -33 -42t-10 -79zM510 117q13 -48 52.5 -86.5t86.5 -38.5q55 0 99.5 45.5t44.5 101.5q0 37 -21 72q-47 59 -131 59q-56 0 -88 -32q-25 -16 -33 -42t-10 -79z M1001 117q13 -48 53 -86.5t87 -38.5q55 0 99 45.5t44 101.5q0 39 -20 72q-47 59 -131 59q-57 0 -89 -32q-25 -16 -33 -42t-10 -79z" />
<glyph unicode="&#x202f;" horiz-adv-x="375" />
<glyph unicode="&#x2039;" horiz-adv-x="552" d="M154 377q26 -69 77 -211q43 -123 54 -123q16 0 34 -2q16 -2 39 -2q24 0 37 8q11 4 11 16q0 13 -25 68q-27 50 -33 70q-8 25 -43 104q-29 69 -29 109q0 24 9 51q1 3 5.5 17.5t14 44.5t19.5 61q24 75 55 127q24 53 24 61q0 22 -36 19q-8 -1 -28 -2.5t-29.5 -2.5t-25 -5.5 t-22.5 -10.5t-12.5 -17.5t-5.5 -27.5q3 -26 -23 -82q-27 -52 -24 -86q-18 -21 -27 -61q-9 -45 -16 -72q-9 -27 0 -51z" />
<glyph unicode="&#x203a;" horiz-adv-x="552" d="M147 63q0 -24 48 -24q23 0 41 2q16 2 34 2q8 0 52 123q51 142 77 211q9 24 0 51q-7 27 -16 72q-9 40 -27 61q3 32 -22 86q-28 54 -25 82q0 16 -5.5 27.5t-12.5 17.5t-22.5 10.5t-25 5.5t-29.5 2.5t-28 2.5q-36 3 -36 -19q0 -8 28 -59q27 -53 51 -129q10 -31 19.5 -61 t14 -44.5t5.5 -17.5q8 -24 8 -51q0 -42 -28 -109q-35 -79 -43 -104q-4 -15 -31 -70q-27 -53 -27 -68z" />
<glyph unicode="&#x205f;" horiz-adv-x="469" />
<glyph unicode="&#x2122;" horiz-adv-x="2170" d="M53 1178q-12 84 53 122q52 20 140 23q47 -2 143 -2q45 3 154 -23q98 -26 149 -26q73 0 129 41q27 21 47 8q34 -20 21 -82q-37 -102 -197 -129q-12 -12 -16 -23q0 -153 8 -380q6 -13 16 -13q6 0 21 6q17 7 22 5q12 2 24 7t24.5 14t21.5 15.5t22 20.5t19 20.5t20.5 23.5 t18.5 21q18 0 18 -41q-21 -110 -80 -151q-11 -7 -104 -72q-109 -33 -209 -33q-97 0 -170 33q-34 7 -83 48.5t-68 68.5q-52 73 -52 178q0 49 11.5 95.5t38 94t80 79.5t128.5 38q-3 -3 -21 -28t-39 -62.5t-24 -58.5q-4 -46 -4 -66q0 -106 47 -180q22 -28 35 -25q6 6 6 9v139 q0 84 -47 125q20 12 90 29q62 16 84 47h13q6 0 6 -9q-5 -46 -2 -131l6 -129q0 -45 -6 -82q1 -6 4 -18t4 -18q5 -20 27.5 -21t27.5 23q2 31 2 141v139q-8 14 -2 62q3 47 -10 65q-49 8 -207 88q-126 68 -213 56q-2 -1 -9.5 -3.5l-10.5 -3.5t-9 -3.5t-9 -5t-7 -5.5t-6.5 -7 t-3.5 -9q-9 -41 27 -60q1 0 3 -0.5t6.5 -1.5t7 -2.5t5.5 -4.5t0 -7q-44 -35 -53 -35q-3 0 -15 4q-2 2 -9.5 7l-10.5 7t-9.5 7t-9.5 8.5t-6.5 9t-5.5 11.5t-2 12zM889 598q-3 31 31 43l51 18q48 26 69 97l31 121q16 61 27 143q12 88 39 135q0 8 8 21q3 9 0 18q-14 10 -74 25 q-46 9 -49 49q0 12 12 23.5t23 11.5q163 -15 203 -9q87 15 114 0q20 -29 37 -86q17 -55 35 -84q20 -46 63 -116q19 19 29 51q9 35 18 47q63 85 78 184q9 27 47 27q23 0 64 -8q9 -2 25 -5.5t21.5 -4.5l16.5 -3t18.5 -1.5t18 1t23.5 2.5l28 2t22.5 2t12.5 1q26 0 35.5 -4 t13.5 -23q5 -24 -4.5 -34.5t-42.5 -16.5q-55 -12 -55 -74q0 -3 27 -98q6 -57 41 -162q36 -98 47 -160q1 -2 3.5 -9t3.5 -9.5t3.5 -9t4.5 -9.5t4.5 -8.5t5.5 -8t6.5 -5.5t7.5 -5t8 -3q69 -15 78 -64q0 -32 -19 -41q-201 19 -309 -14q-44 -3 -70 14q-8 3 -8 14q0 4 17 35 l53 45q28 22 28 52q0 8 -4 20q-27 129 -77 301q-2 2 -11 61q-6 39 -28 48q-48 -28 -72 -101q-37 -101 -49 -119q3 -29 47 -73q44 -48 41 -93t-51 -100l-82 -94q-20 -4 -29 -4q-37 0 -76 45q-14 17 -31 36t-25 27.5t-17 20t-11.5 17t-4 13.5t1 14.5t7.5 16.5q2 12 35 56 q24 30 21 61q-102 159 -150 264q-15 12 -22 8q-32 -57 -54 -239q0 -1 -26 -84q-21 -56 -21 -86q0 -15 4.5 -28t10 -21t16 -16.5t17 -12t19 -10t15.5 -8.5q20 -14 29 -35q12 -15 -10 -31q-41 -3 -99 0q-77 6 -96 6q-45 0 -90 -10q-26 10 -38.5 21t-10.5 22zM1432 707 q0 -18 12 -27q30 -10 39 4l12 41q-3 18 -37 27q-26 -14 -26 -45z" />
<glyph unicode="&#x25fc;" horiz-adv-x="901" d="M0 0v901h901v-901h-901z" />
</font>
</defs>
</svg>
